<svg width="180" height="200" viewBox="0 0 180 200" fill="none" xmlns="http://www.w3.org/2000/svg">
<g clip-path="url(#clip0_36_215)">
<path opacity="0.1" d="M56.8324 7.05809C61.7204 0.86593 69.3959 -0.387728 76.3929 0.0880437C98.3523 1.63906 118.174 16.6925 135.321 33.7227C141.529 39.8863 147.64 46.5305 151.668 55.0206C159.877 72.303 157.438 96.2438 146.033 110.481C142.152 115.325 137.448 119.045 132.619 122.33C124.032 128.182 114.767 132.881 105.021 134.225C98.0725 135.176 91.037 134.403 84.127 133.073C64.8244 129.355 45.877 121.134 29.995 107.07C23.0298 100.902 16.4616 93.2322 13.5938 83.2529C10.7259 73.2736 12.5602 60.6276 19.6728 54.7209C22.6144 52.2778 26.1322 51.174 29.5746 50.1368C34.6435 48.612 39.7929 47.1085 44.366 44.0089C49.0916 40.8069 54.6848 34.6148 53.7468 27.5258C52.745 19.9206 51.941 13.2431 56.8324 7.05809Z" fill="#6C63FF"/>
<path opacity="0.1" d="M77.2119 197.583C89.5294 197.583 99.5147 193.144 99.5147 187.668C99.5147 182.192 89.5294 177.753 77.2119 177.753C64.8945 177.753 54.9092 182.192 54.9092 187.668C54.9092 193.144 64.8945 197.583 77.2119 197.583Z" fill="#6C63FF"/>
<path d="M122.947 85.6959L123.756 146.766L125.476 147.054L124.828 85.4533L122.947 85.6959Z" fill="#F5C5CC"/>
<path d="M118.787 84.547L119.596 145.617L121.317 145.905L120.668 84.3043L118.787 84.547Z" fill="#F5C5CC"/>
<path d="M119.804 81.3545L119.888 147.963L121.647 147.725L120.977 80.0461L119.804 81.3545Z" fill="#CC929B"/>
<path d="M71.2871 70.2334L72.0292 125.592L73.7496 125.849L73.17 70.0098L71.2871 70.2334Z" fill="#F5C5CC"/>
<path d="M72.2805 69.1985L73.1315 126.814L73.7496 125.849L73.17 70.0097L72.2805 69.1985Z" fill="#CC929B"/>
<path d="M74.9473 71.6345L75.6893 126.991L77.4097 127.247L76.8301 71.4109L74.9473 71.6345Z" fill="#F5C5CC"/>
<path d="M75.9407 70.5974L76.7933 128.213L77.4098 127.247L76.8302 71.4109L75.9407 70.5974Z" fill="#CC929B"/>
<path d="M78.5254 73.1522L79.2675 128.511L80.9878 128.767L80.4082 72.931L78.5254 73.1522Z" fill="#F5C5CC"/>
<path d="M79.5186 72.1198L80.3712 129.733L80.9876 128.768L80.4081 72.931L79.5186 72.1198Z" fill="#CC929B"/>
<path d="M82.0063 73.4615L82.7702 130.763L84.4906 131.03L83.8875 73.2331L82.0063 73.4615Z" fill="#F5C5CC"/>
<path d="M82.998 72.391L83.8741 132.029L84.4906 131.03L83.8875 73.2331L82.998 72.391Z" fill="#CC929B"/>
<path d="M85.7803 73.9087L86.5458 131.208L88.2662 131.475L87.6631 73.678L85.7803 73.9087Z" fill="#F5C5CC"/>
<path d="M86.7737 72.8382L87.6498 132.474L88.2662 131.475L87.6632 73.6779L86.7737 72.8382Z" fill="#CC929B"/>
<path d="M89.489 75.7809L90.2529 133.083L91.9732 133.349L91.3719 75.5525L89.489 75.7809Z" fill="#F5C5CC"/>
<path d="M90.4807 74.7104L91.3568 134.348L91.9733 133.349L91.3719 75.5525L90.4807 74.7104Z" fill="#CC929B"/>
<path d="M93.7339 77.0179L94.5178 135.918L96.2382 136.192L95.6167 76.7823L93.7339 77.0179Z" fill="#F5C5CC"/>
<path d="M94.7256 75.9188L95.6218 137.22L96.2382 136.192L95.6168 76.7823L94.7256 75.9188Z" fill="#CC929B"/>
<path d="M97.4275 77.6435L98.2098 136.544L99.9318 136.818L99.3087 77.408L97.4275 77.6435Z" fill="#F5C5CC"/>
<path d="M98.4192 76.5421L99.3154 137.845L99.9318 136.818L99.3087 77.408L98.4192 76.5421Z" fill="#CC929B"/>
<path d="M101.341 79.2135L102.125 138.114L103.845 138.39L103.223 78.9804L101.341 79.2135Z" fill="#F5C5CC"/>
<path d="M102.334 78.1145L103.229 139.418L103.845 138.39L103.223 78.9804L102.334 78.1145Z" fill="#CC929B"/>
<path d="M67.9351 70.1358L67.8513 66.6294L68.7224 65.9538L131.195 84.1497L131.31 88.6005L67.9351 70.1358Z" fill="#F5C5CC"/>
<path d="M68.7226 65.9538L131.425 84.1354L131.361 85.803L67.9805 66.5271" fill="#CC929B"/>
<path d="M71.3088 157.402L69.5499 158.311H67.8748L67.791 64.4551L68.7123 62.6377L69.6018 62.2666L70.7225 62.0263L71.3088 157.402Z" fill="#F5C5CC"/>
<path d="M71.3089 157.402L69.55 158.311L69.4412 64.6407L69.602 62.2666L70.7226 62.0263L71.3089 157.402Z" fill="#CC929B"/>
<path d="M105.592 80.9573L106.376 139.855L108.096 140.131L107.475 80.7217L105.592 80.9573Z" fill="#F5C5CC"/>
<path d="M106.584 79.8558L107.48 141.159L108.096 140.131L107.475 80.7217L106.584 79.8558Z" fill="#CC929B"/>
<path d="M109.875 81.8874L110.675 142.046L112.395 142.327L111.757 81.6495L109.875 81.8874Z" fill="#F5C5CC"/>
<path d="M114.286 82.9888L115.095 144.059L116.816 144.347L116.169 82.7462L114.286 82.9888Z" fill="#F5C5CC"/>
<path d="M115.278 81.8493L116.201 145.412L116.816 144.347L116.169 82.7461L115.278 81.8493Z" fill="#CC929B"/>
<path d="M46.9357 139.399L45.1768 139.637L45.0947 73.9349L45.093 73.0285L46.2656 71.7202L46.284 73.5424L46.9357 139.399Z" fill="#F5C5CC"/>
<path d="M53.1337 135.711L51.3748 135.949L51.2927 71.3205L51.291 69.3413L52.4636 68.0329L52.4904 70.6877L53.1337 135.711Z" fill="#F5C5CC"/>
<path d="M63.3519 129.764L61.593 130.002L61.5126 66.1893L61.5093 63.3941L62.6819 62.0858L62.7187 65.792L63.3519 129.764Z" fill="#F5C5CC"/>
<path d="M67.7911 127.385L66.0322 127.623L65.9535 65.3686L65.9485 61.0153L67.1211 59.7069L67.1814 65.754L67.7911 127.385Z" fill="#F5C5CC"/>
<path d="M50.0345 138.685L48.2757 138.923L48.1919 72.7906V72.3148L49.3645 71.0065L49.3762 72.2601L50.0345 138.685Z" fill="#F5C5CC"/>
<path d="M59.0804 132.738L57.3215 132.976L57.2395 68.09L57.2378 66.3677L58.4104 65.0593L58.4338 67.5L59.0804 132.738Z" fill="#F5C5CC"/>
<path d="M56.1488 133.927L54.3899 134.165L54.3095 69.672L54.3062 67.5572L55.4787 66.2488L55.5055 69.0035L56.1488 133.927Z" fill="#F5C5CC"/>
<path d="M45.0594 128.423L44.6407 129.672C44.6407 129.672 43.5518 131.991 43.6775 135.559C43.8031 139.127 41.9236 148.583 41.9236 148.583C41.9236 148.583 43.6406 149.713 44.9388 149.594C46.2371 149.475 49.0429 151.438 49.0429 151.438L54.859 154L66.6268 157.925C66.6268 157.925 73.5367 163.397 75.4213 163.397C77.3058 163.397 84.802 167.024 84.802 167.024C84.802 167.024 94.9366 170.176 95.7323 171.366C96.528 172.555 99.8833 174.156 100.218 174.22C100.553 174.285 105.662 174.993 105.662 174.993C105.662 174.993 111.609 176.956 112.447 174.875C112.935 173.704 113.262 172.412 113.41 171.068C113.41 171.068 116.048 171.901 116.76 170.652C117.472 169.403 117.514 166.727 118.352 166.846C119.189 166.965 122.623 168.452 123 167.916C123.377 167.381 125.387 161.077 126.811 162.029C128.235 162.98 130.706 164.467 130.706 164.467L129.282 143.89L128.654 138.24C128.654 138.24 105.83 151.443 105.034 151.443C104.239 151.443 45.0594 128.423 45.0594 128.423Z" fill="#6C63FF"/>
<path d="M128.528 110.403L128.402 139.425L104.694 152.335L44.6407 129.676C44.6407 129.676 40.5785 121.529 44.3475 113.916C44.3475 113.916 39.4896 104.401 45.5201 98.2158L45.6692 98.1659L68.4695 90.3656L78.6091 92.9966L123.411 104.634C123.411 104.634 127.811 106.953 128.528 110.403Z" fill="#6C63FF"/>
<path opacity="0.1" d="M77.8083 95.7727C76.6776 96.6053 68.4695 99.6384 66.8362 101.482C65.2029 103.326 53.8958 104.758 53.8958 104.758L52.6394 105.115C52.6394 105.115 52.7232 103.925 47.7397 100.476C46.9435 99.9195 46.2382 99.1327 45.6692 98.1659L68.4695 90.3656L78.6091 92.9966C78.6225 94.1361 78.4851 95.2732 77.8083 95.7727Z" fill="black"/>
<path d="M43.3424 84.2996C43.3424 84.2996 42.9236 95.837 47.9072 99.2864C52.8907 102.736 52.812 103.92 52.812 103.92L54.0683 103.564C54.0683 103.564 49.7129 96.6649 50.0061 95.4754C50.2992 94.286 46.1114 88.2794 45.5201 88.0415C44.9288 87.8036 43.3424 84.2996 43.3424 84.2996Z" fill="#6C63FF"/>
<path opacity="0.1" d="M43.4313 84.4732C43.4313 84.4732 43.0125 96.0107 47.996 99.46C52.9795 102.909 52.8958 104.099 52.8958 104.099L54.1521 103.742C54.1521 103.742 49.7968 96.8433 50.0899 95.6538C50.3831 94.4644 46.1902 88.4578 45.609 88.2199C45.0277 87.982 43.4313 84.4732 43.4313 84.4732Z" fill="black"/>
<path opacity="0.1" d="M44.6038 89.3499C44.6038 89.3499 48.6241 97.9732 49.336 98.2706C50.0479 98.5679 45.5619 89.4688 44.6038 89.3499Z" fill="black"/>
<path d="M42.7612 82.6891C42.7612 82.6891 45.3577 79.7155 45.6927 79.1208C46.0277 78.5261 49.713 78.2882 49.8387 78.2882C49.9643 78.2882 52.7702 75.8498 55.911 75.0767C59.0519 74.3036 60.3083 73.9468 60.3083 73.9468C60.3083 73.9468 64.9149 71.2111 65.1662 70.6164C65.4174 70.0216 67.5532 69.3675 70.1916 72.2816C72.8299 75.1957 78.651 88.2794 78.6929 89.7067C78.7348 91.134 79.1117 93.7507 77.9809 94.5833C76.8502 95.4159 68.6421 98.449 67.0088 100.293C65.3756 102.136 54.0634 103.568 54.0634 103.568L49.7968 96.9622L47.5354 91.7882L43.7663 86.1384L42.7612 82.6891Z" fill="#6C63FF"/>
<path opacity="0.1" d="M49.7632 134.053C49.7632 134.053 48.2003 134.529 49.0931 135.797C49.986 137.065 49.7632 134.053 49.7632 134.053Z" fill="black"/>
<path opacity="0.1" d="M55.236 136.592C55.236 136.592 53.5608 139.446 53.8959 140.238C54.2309 141.031 55.236 136.592 55.236 136.592Z" fill="black"/>
<path opacity="0.1" d="M65.0639 140.238C65.0639 140.238 63.3887 143.093 63.7237 143.885C64.0588 144.677 65.0639 140.238 65.0639 140.238Z" fill="black"/>
<path opacity="0.1" d="M77.0126 144.996C77.0126 144.996 75.3374 147.851 75.6725 148.643C76.0075 149.435 77.0126 144.996 77.0126 144.996Z" fill="black"/>
<path opacity="0.1" d="M93.0939 150.705C93.0939 150.705 91.4187 153.56 91.7538 154.352C92.0888 155.144 93.0939 150.705 93.0939 150.705Z" fill="black"/>
<path opacity="0.1" d="M60.0385 137.384C60.0385 137.384 58.3633 140.238 58.6984 141.031C59.0334 141.823 60.0385 137.384 60.0385 137.384Z" fill="black"/>
<path opacity="0.1" d="M83.3781 147.375C83.3781 147.375 81.7029 150.23 82.038 151.022C82.373 151.814 83.3781 147.375 83.3781 147.375Z" fill="black"/>
<path opacity="0.1" d="M88.2914 149.594C88.2914 149.594 86.6163 152.449 86.9513 153.244C87.2863 154.038 88.2914 149.594 88.2914 149.594Z" fill="black"/>
<path opacity="0.1" d="M69.4193 142.141C69.4193 142.141 67.7442 144.996 68.0792 145.788C68.4142 146.58 69.4193 142.141 69.4193 142.141Z" fill="black"/>
<path opacity="0.1" d="M111.633 159.429L113.405 171.064C113.405 171.064 113.419 162.916 111.633 159.429Z" fill="black"/>
<path opacity="0.1" d="M117.104 161.172L118.347 166.846C118.347 166.846 118.221 164.662 117.104 161.172Z" fill="black"/>
<path opacity="0.1" d="M123 167.912C123 167.912 120.349 154.195 119.789 153.244C119.23 152.292 121.404 167.041 123 167.912Z" fill="black"/>
<path opacity="0.1" d="M126.149 161.489C126.149 161.489 123.024 153.719 124.251 152.292C125.479 150.865 126.149 161.489 126.149 161.489Z" fill="black"/>
<path opacity="0.1" d="M44.3474 113.912L105.043 133.261L128.384 123.586L104.82 132.31C104.82 132.31 46.1901 113.119 44.3474 113.912Z" fill="black"/>
<path d="M46.1819 92.892L46.2656 148.26L47.9827 148.557L48.0664 92.7136L46.1819 92.892Z" fill="#F5C5CC"/>
<path d="M47.187 91.881L47.3545 149.509L47.9827 148.557L48.0665 92.7136L47.187 91.881Z" fill="#CC929B"/>
<path d="M49.8252 94.3787L49.909 149.747L51.626 150.044L51.7097 94.2003L49.8252 94.3787Z" fill="#F5C5CC"/>
<path d="M50.8303 93.3677L50.9978 150.996L51.626 150.044L51.7098 94.2003L50.8303 93.3677Z" fill="#CC929B"/>
<path d="M53.3848 95.9845L53.4685 151.352L55.1855 151.65L55.2693 95.8061L53.3848 95.9845Z" fill="#F5C5CC"/>
<path d="M54.3899 94.9734L54.5574 152.601L55.1856 151.65L55.2693 95.806L54.3899 94.9734Z" fill="#CC929B"/>
<path d="M56.8608 96.377L56.9446 153.688L58.6616 153.995L58.7454 96.1915L56.8608 96.377Z" fill="#F5C5CC"/>
<path d="M57.866 95.3303L58.0335 154.98L58.6617 153.995L58.7454 96.1915L57.866 95.3303Z" fill="#CC929B"/>
<path d="M60.6299 96.9122L60.7136 154.224L62.4307 154.531L62.5144 96.7267L60.6299 96.9122Z" fill="#F5C5CC"/>
<path d="M61.635 95.8655L61.8025 155.515L62.4307 154.531L62.5145 96.7267L61.635 95.8655Z" fill="#CC929B"/>
<path d="M64.3152 98.8748L64.3989 156.186L66.116 156.493L66.1997 98.6893L64.3152 98.8748Z" fill="#F5C5CC"/>
<path d="M65.3203 97.8281L65.4878 157.478L66.116 156.493L66.1998 98.6893L65.3203 97.8281Z" fill="#CC929B"/>
<path d="M69.55 99.1365L69.7176 160.452L70.3457 159.438L70.4295 100.021L69.55 99.1365Z" fill="#CC929B"/>
<path d="M72.2302 100.925L72.314 159.835L74.031 160.152L74.1148 100.735L72.2302 100.925Z" fill="#F5C5CC"/>
<path d="M73.2354 99.8501L73.4029 161.165L74.031 160.152L74.1148 100.735L73.2354 99.8501Z" fill="#CC929B"/>
<path d="M76.1248 102.591L76.2085 161.501L77.9255 161.817L78.0093 102.4L76.1248 102.591Z" fill="#F5C5CC"/>
<path d="M77.1299 101.515L77.2974 162.83L77.9256 161.817L78.0093 102.4L77.1299 101.515Z" fill="#CC929B"/>
<path d="M80.3545 104.434L80.4382 163.344L82.1553 163.661L82.239 104.244L80.3545 104.434Z" fill="#F5C5CC"/>
<path d="M81.3596 103.359L81.5271 164.674L82.1553 163.661L82.2391 104.244L81.3596 103.359Z" fill="#CC929B"/>
<path d="M84.6262 105.469L84.71 165.635L86.427 165.959L86.5107 105.274L84.6262 105.469Z" fill="#F5C5CC"/>
<path d="M85.6313 104.37L85.7989 166.993L86.427 165.959L86.5108 105.274L85.6313 104.37Z" fill="#CC929B"/>
<path d="M89.0234 106.675L89.1072 167.757L90.8242 168.085L90.908 106.478L89.0234 106.675Z" fill="#CC929B"/>
<path d="M93.5044 108.34L93.5882 169.422L95.3052 169.75L95.3889 108.143L93.5044 108.34Z" fill="#F5C5CC"/>
<path d="M94.5095 107.225L94.677 170.8L95.3052 169.75L95.389 108.143L94.5095 107.225Z" fill="#CC929B"/>
<path d="M97.6504 109.589L97.7341 170.671L99.4512 170.999L99.5349 109.392L97.6504 109.589Z" fill="#CC929B"/>
<path d="M43.9204 159.024L42.1615 159.976H40.4863L40.4026 72.6717L41.3239 70.7686L42.2134 70.3809L43.5016 69.8171L43.9204 159.024Z" fill="#F5C5CC"/>
<path d="M43.9203 159.024L42.1614 159.976L42.0525 72.8644L42.2133 70.3809L43.5015 69.8171L43.9203 159.024Z" fill="#CC929B"/>
<path d="M42.329 162.711C43.4392 162.711 44.3392 161.433 44.3392 159.857C44.3392 158.28 43.4392 157.002 42.329 157.002C41.2188 157.002 40.3188 158.28 40.3188 159.857C40.3188 161.433 41.2188 162.711 42.329 162.711Z" fill="#40414D"/>
<path d="M133.875 172.389L132.116 173.297H130.441L130.357 77.301L131.279 77.6245L132.168 77.2534L133.456 76.7158L133.875 172.389Z" fill="#F5C5CC"/>
<path d="M133.875 172.389L132.116 173.297L132.007 79.6275L132.168 77.2534L133.456 76.7158L133.875 172.389Z" fill="#CC929B"/>
<path d="M109.502 154.385L107.743 154.623L107.663 90.4917L107.659 88.0153L108.832 86.707L108.865 90.1254L109.502 154.385Z" fill="#F5C5CC"/>
<path d="M115.7 150.698L113.941 150.936L113.862 87.9891L113.857 84.3281L115.03 83.0197L115.073 87.3635L115.7 150.698Z" fill="#F5C5CC"/>
<path d="M125.918 144.751L124.159 144.989L124.081 82.1895L124.076 78.3809L125.248 77.0726L125.292 81.4758L125.918 144.751Z" fill="#F5C5CC"/>
<path d="M128.515 76.0021L128.598 142.61L130.357 142.372L129.687 74.6937L128.515 76.0021Z" fill="#F5C5CC"/>
<path d="M112.601 153.672L110.842 153.91L110.762 89.4141L110.758 87.3017L111.931 85.9933L111.959 88.8979L112.601 153.672Z" fill="#F5C5CC"/>
<path d="M118.715 148.914L116.956 149.152L116.878 86.3715L116.873 82.544L118.045 81.2356L118.089 85.6793L118.715 148.914Z" fill="#F5C5CC"/>
<path d="M122.121 147.327L120.362 147.565L120.283 84.7848V84.4113L120.278 80.9572L121.451 79.6489L121.491 83.7072L121.494 84.0926L122.121 147.327Z" fill="#F5C5CC"/>
<path d="M105.984 153.95L130.274 139.28L131.949 139.834L132.004 145.305L106.431 159.341L105.984 153.95Z" fill="#F5C5CC"/>
<path d="M130.274 139.28L105.984 153.95L131.858 139.803" fill="#CC929B"/>
<path d="M43.0543 146.178L104.309 172.584L104.197 176.866L42.8315 149.985L43.0543 146.178Z" fill="#F5C5CC"/>
<path d="M106.989 187.57L105.23 188.522H103.555L103.471 90.751V90.2752L103.602 90.004L104.393 88.3721L105.282 87.9844L106.57 87.4206L106.584 90.751L106.989 187.57Z" fill="#F5C5CC"/>
<path d="M106.989 187.57L105.23 188.522L105.121 90.4679L105.282 87.9844L106.57 87.4206L106.989 187.57Z" fill="#CC929B"/>
<path opacity="0.1" d="M106.57 87.4206L106.584 90.751C106.099 90.8516 105.611 90.9167 105.121 90.9461C103.915 91.0127 103.471 90.7534 103.471 90.7534C103.471 90.7201 103.518 90.4536 103.602 90.0088L104.393 88.3769L105.282 87.9891L106.57 87.4206Z" fill="black"/>
<path opacity="0.1" d="M108.832 86.707L108.865 90.1254C108.433 90.2681 108.032 90.3902 107.663 90.4917V88.0153L108.832 86.707Z" fill="black"/>
<path opacity="0.1" d="M111.931 85.9933L111.959 88.8979C111.542 89.0858 111.142 89.2571 110.762 89.4141V87.3017L111.931 85.9933Z" fill="black"/>
<path opacity="0.1" d="M115.03 83.0197L115.073 87.3635C114.655 87.5839 114.251 87.7925 113.862 87.9891V84.3281L115.03 83.0197Z" fill="black"/>
<path opacity="0.1" d="M118.045 81.2356L118.089 85.6793L117.124 86.2312L116.877 86.3715V82.544L118.045 81.2356Z" fill="black"/>
<path opacity="0.1" d="M125.292 81.4758L124.081 82.1895V78.3833L125.253 77.075L125.292 81.4758Z" fill="black"/>
<path opacity="0.1" d="M121.492 83.7072L120.285 84.4209V80.9668L121.457 79.6584L121.492 83.7072Z" fill="black"/>
<path d="M134.461 78.8567C134.461 78.8567 131.362 78.8567 130.525 78.4999C129.687 78.143 127.928 79.5704 117.124 85.7554C110.591 89.4973 106.964 90.3656 105.121 90.4679C103.915 90.5345 103.471 90.2752 103.471 90.2752C103.471 90.2752 105.678 75.9022 112.703 73.2164C113.486 72.9134 114.257 72.5457 115.01 72.115L115.145 72.0413C115.735 71.7167 116.34 71.4505 116.956 71.2444C119.211 70.5093 120.821 69.1034 124.896 69.0606C127.425 69.0004 129.893 70.1631 131.895 72.3577C133.292 73.9182 134.497 76.0758 134.461 78.8567Z" fill="#CC929B"/>
<path d="M115.449 71.958C106.755 77.2819 105.428 87.2326 105.121 90.4679C103.915 90.5345 103.471 90.2752 103.471 90.2752C103.471 90.2752 105.678 75.9022 112.703 73.2164C113.486 72.9134 114.257 72.5457 115.01 72.115L115.145 72.0413C115.246 72.0199 115.346 71.9913 115.449 71.958Z" fill="#F5C5CC"/>
<path opacity="0.1" d="M46.2656 71.7202L46.2841 73.5424C45.8603 73.6922 45.4649 73.8231 45.0947 73.9349V73.0285L46.2656 71.7202Z" fill="black"/>
<path opacity="0.1" d="M49.3645 71.0065L49.3762 72.2601C48.9641 72.4536 48.5694 72.6304 48.1919 72.7906V72.3148L49.3645 71.0065Z" fill="black"/>
<path opacity="0.1" d="M52.4636 68.0329L52.4904 70.6877C52.0784 70.9113 51.6791 71.1222 51.2927 71.3205V69.3413L52.4636 68.0329Z" fill="black"/>
<path opacity="0.1" d="M55.4788 66.2488L55.5056 69.0035C55.1203 69.2144 54.7217 69.4372 54.3096 69.672V67.5572L55.4788 66.2488Z" fill="black"/>
<path opacity="0.1" d="M58.4102 65.0593L58.4336 67.5C58.0539 67.6808 57.6558 67.8775 57.2393 68.09V66.3677L58.4102 65.0593Z" fill="black"/>
<path opacity="0.1" d="M62.6819 62.0858L62.7188 65.792C62.3486 65.9014 61.9482 66.0299 61.5127 66.1893V63.3941L62.6819 62.0858Z" fill="black"/>
<path opacity="0.1" d="M67.1812 65.7444C66.787 65.5335 66.3735 65.4037 65.9534 65.3591V61.0058L67.126 59.6974L67.1812 65.7444Z" fill="black"/>
<path d="M71.3926 65.773C71.3926 65.773 68.2936 65.773 67.456 65.4162C66.6185 65.0593 64.8596 63.1563 54.0549 69.3413C47.5219 73.0832 43.8952 73.9515 42.0526 74.0538C40.8465 74.1204 40.4026 73.8611 40.4026 73.8611C40.4026 73.8611 42.066 61.3721 49.4014 59.2645C49.8108 59.1511 50.2152 59.0042 50.6125 58.8244C51.0631 58.615 51.7734 58.3153 52.7282 58.0037C55.1907 57.1996 59.273 56.3171 64.6987 56.6905C66.5793 56.7905 68.363 57.901 69.689 59.7973C70.2438 60.5769 70.681 61.5088 70.9739 62.5362C71.2667 63.5635 71.4092 64.6649 71.3926 65.773Z" fill="#CC929B"/>
<path d="M52.7282 58.0037C44.0343 63.3275 42.3591 70.8186 42.0526 74.0538C40.8465 74.1204 40.4026 73.8611 40.4026 73.8611C40.4026 73.8611 42.066 61.3721 49.4014 59.2645C49.8108 59.1511 50.2152 59.0042 50.6125 58.8244C51.0631 58.6079 51.7734 58.3153 52.7282 58.0037Z" fill="#F5C5CC"/>
<path d="M42.8314 92.7135L42.7896 89.2047L43.669 88.5505L103.806 107.7L103.639 112.161L42.8314 92.7135Z" fill="#F5C5CC"/>
<path d="M43.6692 88.5505L103.807 107.7L103.723 109.366L42.9204 89.1072" fill="#CC929B"/>
<path d="M132.116 176.152C133.227 176.152 134.127 174.874 134.127 173.297C134.127 171.721 133.227 170.443 132.116 170.443C131.006 170.443 130.106 171.721 130.106 173.297C130.106 174.874 131.006 176.152 132.116 176.152Z" fill="#40414D"/>
<path d="M105.482 192.328C106.592 192.328 107.492 191.05 107.492 189.474C107.492 187.897 106.592 186.619 105.482 186.619C104.371 186.619 103.471 187.897 103.471 189.474C103.471 191.05 104.371 192.328 105.482 192.328Z" fill="#40414D"/>
<path d="M45.1214 130.794C45.1214 130.794 43.334 133.649 42.7762 136.187C42.2184 138.725 43.4462 148.241 43.4462 148.241C44.0757 146.658 44.5278 144.945 44.7863 143.164C45.2319 140.153 45.1214 130.794 45.1214 130.794Z" fill="#6C63FF"/>
<path d="M129.939 154.504C129.939 154.504 131.027 162.355 131.111 163.544C131.195 164.733 128.347 162.949 128.347 162.949L129.939 154.504Z" fill="#6C63FF"/>
<path d="M96.9384 57.3732H96.91C96.9031 57.2924 96.8818 57.2154 96.848 57.1496C96.7715 57.0226 96.6766 56.9204 96.5699 56.8499L95.7843 56.229L96.4627 56.5787C96.4309 56.5011 96.3956 56.4264 96.3572 56.3551L96.4359 56.4169L96.3823 56.3099L96.3103 56.2742C95.9484 55.6724 95.3454 55.4226 94.7608 55.4345H94.7708C94.8462 55.4202 94.9233 55.4107 94.9986 55.4035C94.831 55.3886 94.6628 55.3958 94.4961 55.425C94.5148 55.4365 94.5345 55.4445 94.5547 55.4487C94.5011 55.4487 94.4475 55.463 94.3872 55.4725C94.3011 55.5057 94.2103 55.5057 94.1242 55.4725C94.0712 55.4342 94.0252 55.3787 93.99 55.3106C93.9548 55.2424 93.9313 55.1634 93.9215 55.08C93.8378 54.6043 93.9701 54.0928 94.0086 53.5956C94.0275 53.3623 94.0098 53.1259 93.9567 52.9034C93.9567 52.8558 93.9567 52.8082 93.9567 52.7606C93.9291 52.6554 93.8843 52.5609 93.8261 52.4848C93.7679 52.4088 93.6978 52.3533 93.6217 52.3229C93.6209 52.3412 93.6209 52.3594 93.6217 52.3776L93.5932 52.361C93.5932 52.7868 93.5932 53.215 93.5932 53.6408C93.333 53.3495 93.1025 53.0085 92.9081 52.6274C92.8734 52.5695 92.8497 52.4999 92.8394 52.4252C92.8226 52.2087 93.017 52.0589 93.0287 51.84C93.028 51.7697 93.0113 51.7016 92.9811 51.6459C92.9509 51.5901 92.9089 51.5498 92.8612 51.5308L92.9114 51.5046C92.8518 51.4654 92.7859 51.449 92.7205 51.457C92.577 51.5035 92.436 51.5639 92.2983 51.6378L92.3419 51.6497C92.3094 51.6649 92.2765 51.6776 92.2431 51.6878C91.8226 51.8115 91.4474 51.3357 91.1442 50.9051L91.0788 50.8124C90.9348 49.0211 90.7019 46.9681 90.7019 46.9681C90.7019 46.9681 90.4925 44.6226 90.1994 43.3618C89.9062 42.101 89.4841 39.8744 89.4841 39.8744C89.4841 39.8744 88.5192 37.1696 88.3115 37.0507C88.2305 36.9932 88.1516 36.9297 88.0753 36.8604C87.9847 36.4558 87.9285 36.0373 87.9078 35.6138C87.8559 33.2493 89.6349 31.5698 89.9029 29.2266C90.1223 27.3235 89.2781 25.4204 89.4003 23.4912C89.4573 22.6467 89.6968 21.8522 89.8258 21.0243C89.9483 20.2212 89.9647 19.3928 89.8744 18.5812C89.8317 18.1448 89.7389 17.7213 89.5997 17.3276C89.8432 16.8808 90.0463 16.3925 90.2044 15.8741C90.4758 14.7751 90.1826 13.5476 89.7588 12.5437C88.3969 9.34888 85.638 6.83443 83.0583 6.50853C82.018 6.37293 80.9744 6.34676 79.9325 6.32298C78.7364 6.29205 77.5002 6.27302 76.3946 6.92958C74.1968 8.23558 73.1566 11.7254 71.8215 14.5419C70.7186 16.8714 69.3063 18.8729 67.6638 20.4344C66.8916 21.167 65.9886 21.9473 65.8077 23.2485C65.7905 23.3733 65.7799 23.4998 65.7759 23.6268C65.7533 23.5124 65.7349 23.3965 65.7206 23.2795C65.538 24.6378 66.2131 25.8962 66.5582 27.1927C66.7385 27.8703 66.8425 28.5839 66.8664 29.3075C66.8798 28.9652 66.8798 28.6221 66.8664 28.2798C67.2014 30.7491 66.5867 33.3991 66.2064 35.9231C66.1779 36.1086 66.1562 36.2942 66.1294 36.4797C65.8173 36.6033 65.5202 36.7934 65.2482 37.0435C64.6517 37.6073 63.9762 37.9806 63.2682 38.1378C62.3185 38.3496 61.4641 39.0783 60.8862 40.1694C60.779 40.3739 60.6751 40.5143 60.5847 40.5286C60.2078 40.5904 58.1071 49.906 58.1071 49.906C58.1071 49.906 57.6699 53.7431 57.6699 54.6423C57.6699 55.5415 56.9144 62.0358 56.9144 62.0358C56.9144 62.0358 56.6615 63.2252 56.7469 63.7177C56.7955 63.9912 56.6799 64.9071 56.571 65.6445C56.5254 65.6176 56.4851 65.5751 56.4538 65.5208C56.3281 65.1616 54.0165 65.5208 54.7317 67.9259C54.9096 68.5729 55.1858 69.1561 55.5408 69.6339C55.2226 70.7662 54.9462 71.82 54.983 71.9533C54.983 71.9533 54.983 72.812 55.0366 73.873C54.5458 74.3488 54.1438 74.777 54.1438 74.777C54.1086 76.0901 54.725 76.2994 55.3046 76.2519C55.4537 77.0131 55.6715 77.6173 55.9914 77.7815C57.0418 78.3238 57.7135 78.0836 58.0502 78.4951C58.3869 78.9067 60.1826 79.7059 60.1826 79.7059C60.9453 79.8691 61.7136 79.9731 62.4843 80.0176L62.7925 80.2364L62.7556 79.9986C62.8545 79.9724 62.8092 79.8059 62.6853 79.5228C62.63 79.1588 62.5597 78.683 62.4809 78.1407L62.9416 77.9028L63.0672 78.1668C62.8997 79.4134 62.7925 80.2436 62.7925 80.2436C62.7925 80.2436 61.9549 84.5112 62.3302 85.1726C62.7054 85.8339 62.3302 86.676 62.3302 86.676C62.3302 86.676 62.2464 87.756 62.4575 87.756C62.6685 87.756 62.9181 89.1381 62.7087 89.2C62.4993 89.2618 61.5361 90.4013 61.8712 90.6416C62.2062 90.8818 61.8712 91.4218 61.8712 91.9642C61.8712 92.3591 62.3838 92.9443 62.6618 93.2321C62.6116 93.489 62.5596 93.7626 62.5111 94.0314C62.367 94.826 62.2548 95.592 62.29 95.8703C62.3737 96.5316 62.0806 98.3942 62.1643 98.9961C62.2481 99.5979 62.5429 100.918 62.3318 101.461C62.1208 102.003 62.3737 103.804 62.3737 103.804L62.7523 108.911C62.7523 108.911 62.501 110.355 62.7523 110.714C63.0036 111.074 63.2146 115.284 63.4659 115.765C63.7172 116.245 64.0974 118.769 63.8009 119.611C63.5044 120.453 64.1795 122.195 64.1795 122.195C64.1795 122.195 64.1376 124.238 64.1376 124.778C64.1376 125.318 64.5145 126.16 64.5145 126.16C64.5145 126.16 64.8931 129.046 64.8496 129.767C64.806 130.487 65.1008 131.51 65.1008 131.51C65.1008 131.51 65.3538 133.613 65.3119 134.094C65.27 134.574 65.6469 135.236 65.6469 135.236C65.6469 135.236 66.1093 136.798 65.982 137.46C65.8546 138.121 66.2751 138.782 66.2751 138.782C66.2751 138.782 66.2332 140.224 66.2332 140.405C66.2332 140.586 67.116 142.027 67.116 142.027C67.116 142.027 66.7374 143.11 66.9485 143.531C67.1596 143.952 67.116 145.453 67.451 145.936C67.7861 146.419 67.7023 148.398 68.1211 148.759C68.5399 149.121 68.9185 149.421 69.0022 150.201C69.086 150.981 69.4227 152.125 69.8013 152.306C69.8731 152.376 69.9355 152.464 69.9855 152.566L69.818 153.577L69.3004 156.633C69.3004 156.633 68.7979 161.079 68.8381 161.741C68.8783 162.402 68.3355 163.063 68.3355 163.063C68.3355 163.063 67.8732 166.91 67.7894 167.391C67.7057 167.871 67.8313 168.773 67.8313 168.773C67.8313 168.773 67.5382 171.056 67.7475 171.178C67.9569 171.299 68.8397 172.56 68.8397 172.56H68.9084L68.818 173.012L67.369 180.315C67.369 180.315 66.0289 183.5 69.1346 185.123C69.2384 185.408 69.3339 185.415 69.2217 185.36C69.3238 185.484 71.3993 187.977 71.5669 189.145C71.7344 190.313 73.1633 191.548 73.6675 191.669C74.1717 191.791 77.532 195.635 78.7498 191.85C79.9677 188.065 76.6073 185.598 76.6073 185.598L74.0494 183.26C74.0494 183.26 72.7478 180.555 72.5418 180.075C72.3357 179.594 71.9538 177.249 72.2068 176.889C72.3357 176.704 72.7395 175.058 73.1046 173.492C73.1381 173.342 73.1733 173.195 73.2068 173.048C73.9204 173.285 74.7278 172.81 74.7278 172.81L76.599 168.618L76.934 167.883L76.9943 168.054C76.9943 168.054 78.5488 168.235 79.3043 168.416C79.5443 168.43 79.7843 168.387 80.0146 168.29C80.043 168.378 80.0715 168.468 80.0983 168.559C80.2817 169.116 80.4373 169.69 80.564 170.279C80.6896 171.059 80.8169 173.823 80.8169 173.823C80.8169 173.823 79.9794 177.791 79.7666 178.512C79.5539 179.233 79.976 185.244 84.1354 182.839C84.1354 182.839 84.6379 181.697 85.1003 181.697C85.5626 181.697 86.6967 180.075 86.2729 178.331C85.8491 176.587 84.0952 171.24 85.308 168.416C86.2863 166.142 86.2075 163.092 84.8926 161.674C84.8373 161.615 84.7786 161.562 84.725 161.51C84.7393 161.208 84.7393 160.904 84.725 160.601C84.4302 154.833 82.5474 154.531 82.5474 154.531C82.5474 154.531 81.4552 154.171 81.3295 153.579C81.2558 153.232 80.3094 151.438 79.5254 149.98C79.5522 149.918 79.5774 149.856 79.6025 149.794C79.6025 149.773 79.6192 149.751 79.6259 149.73C79.6628 149.632 79.698 149.533 79.7315 149.428C80.3412 147.482 80.1838 144.651 80.1519 144.144C80.11 143.483 80.1519 142.641 80.1519 141.68C80.1519 140.719 80.822 139.275 80.7399 138.735C80.6578 138.195 81.5389 135.971 81.5389 135.428C81.5389 134.886 82.1571 131.639 82.1571 131.639C82.1571 131.639 83.3749 127.911 83.6278 126.829C83.8691 125.792 88.1708 106.884 88.5192 105.352C88.5257 105.318 88.5335 105.285 88.5427 105.252C88.5427 105.252 89.9163 98.87 88.9966 94.6785C88.937 94.4017 88.8648 94.1308 88.7805 93.8673C89.062 93.6746 89.2563 93.5342 89.2563 93.5342C89.2563 93.5342 88.7102 91.2505 88.9615 90.4084C89.2127 89.5663 89.0452 87.9439 89.0452 87.9439C89.0452 87.9439 88.0401 87.1018 87.9966 86.7426C87.953 86.3834 87.5342 85.9005 87.6615 85.42C87.7889 84.9394 88.4991 85.1821 88.417 84.0973C88.335 83.0126 87.4522 81.8731 87.5359 81.2118C87.6197 80.5504 87.9547 79.3491 87.5359 78.6283C87.1171 77.9075 86.948 76.7657 86.9061 75.8641C86.8943 75.6262 86.9312 74.9245 86.9898 73.9991C87.4376 74.3948 87.9001 74.7561 88.3752 75.0815C88.3752 75.0815 90.181 75.443 90.2664 75.2028C90.4279 74.8966 90.6109 74.6144 90.8125 74.3607C93.0806 73.5804 92.0722 67.6999 92.0722 67.6999C92.0722 67.6999 92.0387 67.2693 91.9851 66.5604C92.0421 66.54 92.0956 66.5036 92.1425 66.4533C92.3352 66.2535 92.3821 65.8729 92.4993 65.5732C92.6328 65.2898 92.789 65.0295 92.965 64.7977C93.3805 64.1554 93.6267 63.3347 93.8646 62.5282C94.0153 62.0144 94.1695 61.5006 94.3219 60.9843C94.4743 60.4681 94.6569 59.852 94.9919 59.4785C95.3772 59.0384 95.8999 58.9528 96.3907 58.8886C96.3709 58.3548 96.2305 57.8443 95.9903 57.4327C96.1378 57.3686 96.2936 57.3523 96.4462 57.3853C96.5987 57.4182 96.744 57.4995 96.8715 57.623C96.8782 57.6069 96.8844 57.5902 96.8899 57.5731H96.8999C96.928 57.5143 96.9415 57.4441 96.9384 57.3732ZM61.0688 73.8326C61.0788 73.7136 61.0939 73.5947 61.1123 73.4757C61.1944 73.3663 61.2932 73.2378 61.3988 73.1189L61.9851 73.1998C61.841 73.3663 61.7154 73.5185 61.6132 73.6423C61.4323 73.5114 61.2346 73.6399 61.0688 73.8326ZM62.2414 72.184C62.3243 72.1755 62.4061 72.1506 62.4843 72.1103C62.5965 72.1103 62.7121 72.1103 62.8293 72.1103H62.9969C62.7171 72.3886 62.434 72.6978 62.1827 72.9857L62.2414 72.203V72.184ZM63.2079 60.0518C63.2079 60.0518 63.1694 61.7599 63.2548 63.4774C63.1242 63.6082 62.9885 63.751 62.8545 63.9008L63.151 59.94L63.2079 60.0518Z" fill="url(#paint0_linear_36_215)"/>
<path d="M85.0869 181.445C84.6263 181.445 84.1237 182.575 84.1237 182.575C79.9778 184.954 79.559 179.007 79.7684 178.293C79.9778 177.579 80.8153 173.654 80.8153 173.654C80.8153 173.654 80.6897 170.918 80.564 170.145C80.437 169.564 80.282 168.996 80.1 168.444C79.8186 167.533 79.5171 166.637 79.5171 166.637C79.5171 166.637 81.3179 160.333 83.7049 160.927C84.1304 161.028 84.5325 161.273 84.8775 161.641C86.1892 163.044 86.2679 166.063 85.2913 168.302C84.0768 171.097 85.8357 176.39 86.2545 178.115C86.6733 179.839 85.5476 181.445 85.0869 181.445Z" fill="#FDC2CC"/>
<path d="M78.7632 191.496C77.5487 195.242 74.1984 191.436 73.6959 191.317C73.1934 191.198 71.7695 190.009 71.602 188.819C71.4345 187.63 69.3623 185.196 69.2568 185.075C69.369 185.125 69.2735 185.118 69.1697 184.837C66.0707 183.231 67.4108 180.079 67.4108 180.079L68.8548 172.852L69.2534 170.861L73.7763 170.445C73.7763 170.445 73.4664 171.851 73.1213 173.328C72.7578 174.877 72.3558 176.506 72.2268 176.69C71.9755 177.046 72.3524 179.366 72.5618 179.842C72.7712 180.317 74.0695 182.994 74.0695 182.994L76.624 185.313C76.624 185.313 79.9777 187.749 78.7632 191.496Z" fill="#FDC2CC"/>
<path opacity="0.1" d="M73.7797 170.443C73.7797 170.443 73.4698 171.849 73.1247 173.326C72.8884 173.229 72.6786 173.033 72.5234 172.762L68.8799 172.881L68.8582 172.85L69.2568 170.859L73.7797 170.443Z" fill="black"/>
<path d="M88.5208 105.797C88.5208 105.797 88.5208 105.831 88.499 105.895C88.1506 107.41 83.8622 126.115 83.621 127.148C83.3697 128.218 82.1553 131.905 82.1553 131.905C82.1553 131.905 81.5271 135.117 81.5271 135.652C81.5271 136.187 80.6476 138.388 80.7314 138.923C80.8152 139.458 80.1451 140.885 80.1451 141.837C80.1451 142.789 80.1032 143.621 80.1451 144.275C80.1769 144.777 80.3327 147.58 79.7246 149.509C79.592 149.958 79.3952 150.363 79.1467 150.698C79.0791 150.785 79.0068 150.865 78.9306 150.936C77.423 152.363 77.2974 166.993 77.2974 166.993L77.227 167.15L76.6156 168.511L74.7428 172.65C74.7428 172.65 73.2352 173.542 72.5232 172.293L68.8798 172.412C68.8798 172.412 68.0004 171.164 67.791 171.045C67.5816 170.926 67.8747 168.666 67.8747 168.666C67.8747 168.666 67.7491 167.774 67.8329 167.298C67.9166 166.822 68.3773 163.016 68.3773 163.016C68.3773 163.016 68.9217 162.362 68.8798 161.708C68.8379 161.053 69.3405 156.652 69.3405 156.652L69.8564 153.629L70.111 152.137L70.6387 149.045L74.1984 104.382L78.7212 102.419L87.4319 103.014L88.3868 105.464L88.5208 105.797Z" fill="#5F5D7E"/>
<path opacity="0.1" d="M76.2505 127.742C76.2086 128.872 75.9992 130.597 76.0829 131.608C76.1667 132.619 76.4598 136.425 76.3342 137.139C76.2086 137.852 76.7949 138.685 77.0043 139.042C77.2137 139.399 77.088 140.469 77.1299 141.302C77.1718 142.134 77.7162 142.907 77.7162 142.907C77.7162 142.907 77.088 144.811 77.5487 145.108C78.0093 145.405 78.9725 148.141 78.9725 148.141C78.9725 148.141 79.2958 148.719 79.7247 149.504C79.5607 150.077 79.2853 150.572 78.9307 150.931C77.423 152.359 77.2974 166.989 77.2974 166.989L77.2271 167.146L76.2923 164.491C76.2923 164.491 70.7225 152.537 70.3456 152.359C70.2548 152.308 70.1742 152.226 70.1111 152.121L70.6388 149.028L74.1984 104.365L78.7213 102.403L87.432 102.997L82.8455 103.652C82.8455 103.652 80.8068 105.728 80.7934 105.793L77.1299 107.993L76.4598 122.266C76.4598 122.266 76.2923 126.612 76.2505 127.742Z" fill="black"/>
<path opacity="0.1" d="M88.3868 105.452C88.2712 106.114 76.2086 104.132 76.2086 104.132L76.2923 108.711L75.6223 122.985C75.6223 122.985 75.4547 127.326 75.4129 128.456C75.371 129.586 75.1616 131.311 75.2454 132.322C75.3291 133.333 75.6223 137.139 75.4966 137.852C75.371 138.566 75.9573 139.399 76.1667 139.755C76.3761 140.112 76.2504 141.183 76.2923 142.015C76.3342 142.848 76.8786 143.621 76.8786 143.621C76.8786 143.621 76.2504 145.524 76.7111 145.822C77.1718 146.119 78.135 148.855 78.135 148.855C78.135 148.855 78.5956 149.68 79.14 150.693C79.0724 150.78 79.0001 150.86 78.924 150.931C77.4163 152.359 77.2907 166.989 77.2907 166.989L77.2203 167.146L76.6156 168.511L75.4547 165.216C75.4547 165.216 71.158 155.994 69.8564 153.629L70.1111 152.137L70.6387 149.045L74.1984 104.382L78.7213 102.419L87.432 103.014L88.3868 105.452Z" fill="black"/>
<path opacity="0.1" d="M84.8826 161.631C84.715 165.89 81.5557 167.973 80.1 168.444C79.8186 167.533 79.5171 166.637 79.5171 166.637C79.5171 166.637 81.3179 160.333 83.7049 160.927C84.1316 161.024 84.5355 161.266 84.8826 161.631Z" fill="black"/>
<path d="M75.748 127.742C75.7061 128.872 75.4967 130.597 75.5805 131.608C75.6642 132.619 75.9574 136.425 75.8317 137.139C75.7061 137.852 76.2924 138.685 76.5018 139.042C76.7112 139.399 76.5856 140.469 76.6274 141.302C76.6693 142.134 77.2137 142.907 77.2137 142.907C77.2137 142.907 76.5856 144.811 77.0462 145.108C77.5069 145.405 78.4701 148.141 78.4701 148.141C78.4701 148.141 81.1922 153.018 81.3178 153.612C81.4434 154.207 82.5323 154.564 82.5323 154.564C82.5323 154.564 84.4168 154.861 84.71 160.57C85.0031 166.28 80.0615 168.48 79.3076 168.302C78.5538 168.123 77.0043 167.945 77.0043 167.945L75.7899 164.496C75.7899 164.496 70.22 152.542 69.8431 152.363C69.4662 152.185 69.1312 151.055 69.0474 150.282C68.9637 149.509 68.5868 149.211 68.168 148.855C67.7492 148.498 67.833 146.535 67.4979 146.059C67.1629 145.584 67.2048 144.097 66.9954 143.681C66.786 143.264 67.1629 142.194 67.1629 142.194C67.1629 142.194 66.2835 140.766 66.2835 140.588C66.2835 140.41 66.3254 138.982 66.3254 138.982C66.3254 138.982 65.9066 138.328 66.0322 137.674C66.1578 137.02 65.6972 135.473 65.6972 135.473C65.6972 135.473 65.3203 134.819 65.3622 134.344C65.404 133.868 65.1528 131.786 65.1528 131.786C65.1528 131.786 64.8596 130.775 64.9015 130.062C64.9434 129.348 64.5665 126.493 64.5665 126.493C64.5665 126.493 64.1896 125.661 64.1896 125.125C64.1896 124.59 64.2314 122.568 64.2314 122.568C64.2314 122.568 63.5614 120.844 63.8545 120.011C64.1477 119.178 63.7708 116.681 63.5195 116.205C63.2682 115.729 63.0588 111.566 62.8076 111.209C62.5563 110.852 62.8076 109.425 62.8076 109.425L62.4307 104.37C62.4307 104.37 62.1794 102.586 62.3888 102.051C62.5982 101.515 62.305 100.207 62.2213 99.6122C62.1375 99.0175 62.4307 97.1739 62.3469 96.5197C62.3117 96.2438 62.424 95.4873 62.5664 94.6999C62.764 93.6151 63.017 92.4757 63.017 92.4757C63.017 92.4757 84.5424 89.621 87.6414 92.5946C88.3115 93.2321 88.7253 94.2003 88.9816 95.3327C89.8979 99.4814 88.5276 105.8 88.5276 105.8L76.6341 108L75.9641 122.273C75.9641 122.273 75.7899 126.612 75.748 127.742Z" fill="#5F5D7E"/>
<path opacity="0.1" d="M72.314 148.914C72.314 148.914 76.0411 147.308 76.9206 148.379C77.8 149.449 72.314 148.914 72.314 148.914Z" fill="black"/>
<path opacity="0.1" d="M73.6541 155.694C73.6541 155.694 74.7848 153.969 76.4599 154.504C77.4426 154.83 78.4735 154.683 79.3914 154.088L73.6541 155.694Z" fill="black"/>
<path opacity="0.1" d="M77.5906 157.656C77.5906 157.656 80.6477 157.062 80.7733 157.597C80.899 158.132 77.5906 157.656 77.5906 157.656Z" fill="black"/>
<path opacity="0.1" d="M76.7112 161.165C76.7112 161.165 80.1034 159.738 80.2709 160.333C80.4384 160.927 76.5437 161.106 76.5437 161.106L76.7112 161.165Z" fill="black"/>
<path opacity="0.1" d="M80.5221 129.11C80.5221 129.11 77.3393 133.095 77.8 133.511C78.2606 133.927 80.5221 129.11 80.5221 129.11Z" fill="black"/>
<path opacity="0.1" d="M77.9255 138.982C77.9255 138.982 80.1451 138.982 79.7263 139.696C79.3075 140.41 77.9255 138.982 77.9255 138.982Z" fill="black"/>
<path opacity="0.1" d="M79.2658 141.777C79.2658 141.777 78.3863 142.848 78.5957 143.086C78.8051 143.324 79.2658 141.777 79.2658 141.777Z" fill="black"/>
<path opacity="0.1" d="M69.5918 167.291C69.5918 167.291 72.3558 168.599 72.3976 169.432C72.4395 170.264 69.5918 167.291 69.5918 167.291Z" fill="black"/>
<path d="M82.9928 42.936L82.1134 50.3699C82.1134 50.3699 74.4915 56.0792 74.3659 56.0792C74.2403 56.0792 68.7961 54.7708 68.5867 54.7708C68.3773 54.7708 64.8176 39.4867 67.3303 38.5351C68.0104 38.2782 68.9971 37.6597 70.0742 36.8913C72.9789 34.8289 76.5436 31.6959 76.5436 31.6959C76.5436 31.6959 81.8621 30.8633 80.5639 36.0968C80.0614 38.1497 80.3193 39.6437 80.8269 40.7023C81.6243 42.3437 82.9928 42.936 82.9928 42.936Z" fill="#FDC2CC"/>
<path opacity="0.1" d="M82.9928 42.936L82.1134 50.3699C82.1134 50.3699 74.4915 56.0792 74.3659 56.0792C74.2403 56.0792 68.7961 54.7708 68.5867 54.7708C68.3773 54.7708 64.8176 39.4866 67.3303 38.5351C68.0104 38.2782 68.9971 37.6597 70.0742 36.8913C70.7593 36.9555 71.225 37.0483 71.225 37.0483C71.225 37.0483 72.9002 46.1474 73.0258 48.9426C73.1514 51.7377 77.5068 52.0351 77.7999 51.9162C78.0931 51.7972 79.3075 44.958 79.3075 44.958C79.3075 44.958 79.1819 42.5791 79.5588 42.5791C79.8737 42.5791 80.6008 41.1518 80.8269 40.7022C81.6243 42.3436 82.9928 42.936 82.9928 42.936Z" fill="black"/>
<path opacity="0.1" d="M88.9748 95.3327C88.3918 95.7371 86.9981 96.6601 86.6296 96.5221C86.1689 96.3437 85.0382 96.3437 85.0382 96.3437C85.0382 96.3437 84.3682 97.4142 83.6562 97.1763C82.9443 96.9384 80.1384 97.1168 80.1384 97.1168C80.1384 97.1168 75.113 97.4142 74.1498 96.9384C73.1866 96.4626 69.7526 96.0463 69.7526 96.0463C69.7526 96.0463 65.0622 95.2732 64.2665 94.7974C64.0422 94.6584 63.7957 94.6071 63.5527 94.649C63.3097 94.6908 63.079 94.8242 62.8845 95.0353C62.8845 95.0353 62.7388 94.8997 62.5596 94.7023C62.7572 93.6175 63.0102 92.478 63.0102 92.478C63.0102 92.478 84.5357 89.6234 87.6347 92.597C88.3047 93.2321 88.7252 94.2003 88.9748 95.3327Z" fill="black"/>
<path d="M71.2251 37.5241C71.2251 37.5241 66.9954 36.6915 65.3203 38.2972C64.725 38.8555 64.0519 39.2247 63.3469 39.3796C62.4018 39.5876 61.5502 40.3082 60.9716 41.3898C60.8644 41.5943 60.7605 41.7323 60.6718 41.7466C60.2948 41.8061 58.2009 51.0241 58.2009 51.0241L63.2682 61.0748C63.2682 61.0748 63.1426 66.6651 63.8545 67.7356C64.5664 68.8061 62.8494 81.0572 62.8494 81.0572C62.8494 81.0572 62.0119 85.2797 62.3888 85.9338C62.7657 86.588 62.3888 87.4206 62.3888 87.4206C62.3888 87.4206 62.305 88.4911 62.5144 88.4911C62.7238 88.4911 62.9751 89.859 62.7657 89.9184C62.5563 89.9779 61.5931 91.1079 61.9281 91.3457C62.2631 91.5836 61.9281 92.1189 61.9281 92.6541C61.9281 93.1894 62.8913 94.0814 62.8913 94.0814C63.0858 93.8703 63.3165 93.7369 63.5595 93.6951C63.8025 93.6532 64.0489 93.7045 64.2733 93.8435C65.069 94.3193 69.7594 95.0924 69.7594 95.0924C69.7594 95.0924 73.1934 95.5087 74.1566 95.9845C75.1198 96.4603 80.1452 96.1629 80.1452 96.1629C80.1452 96.1629 82.951 95.9845 83.663 96.2224C84.3749 96.4603 85.045 95.3898 85.045 95.3898C85.045 95.3898 86.1757 95.3898 86.6363 95.5682C87.097 95.7466 89.2328 94.2004 89.2328 94.2004C89.2328 94.2004 88.6884 91.9405 88.9397 91.1079C89.1909 90.2753 89.0234 88.6695 89.0234 88.6695C89.0234 88.6695 88.0183 87.8369 87.9765 87.4801C87.9346 87.1233 87.5158 86.6475 87.6414 86.1717C87.7671 85.696 88.479 85.9338 88.3952 84.8634C88.3115 83.7929 87.432 82.6629 87.5158 82.0087C87.5995 81.3545 87.9346 80.1651 87.5158 79.4515C87.097 78.7378 86.9295 77.6078 86.8876 76.7158C86.8457 75.8237 87.5158 67.7356 87.5158 67.7356L85.9663 51.4404L90.6985 48.11C90.6985 48.11 90.4892 45.7906 90.196 44.5417C89.9029 43.2928 89.4841 41.0924 89.4841 41.0924C89.4841 41.0924 88.5209 38.4162 88.3115 38.2972C88.1021 38.1783 85.8825 36.0968 85.38 36.3942C84.8775 36.6915 80.899 41.0329 80.899 41.0329C80.899 41.0329 79.9358 43.055 79.5589 43.055C79.182 43.055 79.3076 45.4338 79.3076 45.4338C79.3076 45.4338 78.0932 52.273 77.8 52.392C77.5069 52.5109 73.1515 52.2135 73.0259 49.4184C72.9002 46.6232 71.2251 37.5241 71.2251 37.5241Z" fill="#D39999"/>
<path d="M64.6585 72.686C64.0775 72.8675 63.4858 72.971 62.8912 72.9953C62.0319 73.0286 61.2764 72.8739 61.0904 72.4338C60.5879 71.2444 60.5879 68.9845 60.5879 68.9845C60.5879 68.9845 62.8594 69.7291 64.4273 70.5427L64.6869 70.6806C65.295 71.016 65.7574 71.3586 65.8595 71.6583C66.0053 72.0604 65.4441 72.4362 64.6585 72.686Z" fill="#FDC2CC"/>
<path opacity="0.1" d="M81.1083 39.6056C85.3409 39.6056 88.7721 34.733 88.7721 28.7223C88.7721 22.7117 85.3409 17.8391 81.1083 17.8391C76.8758 17.8391 73.4446 22.7117 73.4446 28.7223C73.4446 34.733 76.8758 39.6056 81.1083 39.6056Z" fill="black"/>
<path d="M81.1083 39.1298C85.3409 39.1298 88.7721 34.2572 88.7721 28.2466C88.7721 22.2359 85.3409 17.3633 81.1083 17.3633C76.8758 17.3633 73.4446 22.2359 73.4446 28.2466C73.4446 34.2572 76.8758 39.1298 81.1083 39.1298Z" fill="#FDC2CC"/>
<path opacity="0.1" d="M64.1477 87.0043C64.1477 87.0043 66.3254 87.0043 67.1629 87.3016C68.0005 87.599 69.7594 87.6585 69.7594 87.6585C69.7594 87.6585 64.9015 87.4206 64.1477 87.0043Z" fill="black"/>
<path opacity="0.1" d="M64.2314 88.9074C64.2314 88.9074 67.0373 89.2048 67.0792 89.7995C67.1211 90.3942 64.2314 88.9074 64.2314 88.9074Z" fill="black"/>
<path opacity="0.1" d="M85.5894 81.5924C85.5894 81.5924 87.3064 82.4845 87.2645 82.7818C87.2226 83.0792 85.7569 82.3061 85.5894 81.5924Z" fill="black"/>
<path d="M59.2897 49.9536L58.2009 51.0241C58.2009 51.0241 57.7402 54.8303 57.7402 55.7223C57.7402 56.6144 56.9864 63.0373 56.9864 63.0373C56.9864 63.0373 56.7351 64.2268 56.8189 64.7025C56.9027 65.1783 56.4839 67.6166 56.4839 67.6166C56.4839 67.6166 54.9762 72.5528 55.06 72.8501C55.1438 73.1475 62.2212 74.099 62.2212 74.099L63.2263 60.7774L59.2897 49.9536Z" fill="#D39999"/>
<path d="M56.107 71.2444L55.06 72.8501C55.06 72.8501 55.0182 78.0836 56.0651 78.6188C57.1121 79.1541 57.7821 78.9162 58.1172 79.3325C58.4522 79.7488 60.253 80.5219 60.253 80.5219C60.253 80.5219 62.2212 80.9382 62.8075 80.8193C63.3938 80.7003 59.3735 76.121 62.0119 72.2554L56.107 71.2444Z" fill="#D39999"/>
<path d="M89.2328 45.7906L90.6985 48.11C90.6985 48.11 91.3267 53.6408 91.1592 54.4139C90.9917 55.1871 92.0386 68.6276 92.0386 68.6276C92.0386 68.6276 93.0437 74.4558 90.7823 75.2289C90.5814 75.4796 90.399 75.7586 90.2379 76.0615C90.1541 76.2994 88.3533 75.9426 88.3533 75.9426L85.5894 50.1915L89.2328 45.7906Z" fill="#D39999"/>
<path opacity="0.1" d="M69.2986 67.0814C69.2986 67.0814 74.7846 62.4426 75.7897 62.2047C76.7948 61.9669 83.0347 57.7444 83.0347 57.7444C83.0347 57.7444 86.1337 60.0043 86.4268 61.729C86.72 63.4536 85.1286 70.3523 85.1286 70.3523C85.1286 70.3523 80.0194 75.4074 79.7263 76.4779C79.4332 77.5484 75.0359 80.7004 75.0359 81.2356C75.0359 81.7708 68.0841 87.599 65.027 82.4845C61.9699 77.37 62.0117 75.8832 62.0117 75.8832L69.7592 73.3259L70.5131 68.5682L69.2986 67.0814Z" fill="black"/>
<path d="M69.2986 66.6056C69.2986 66.6056 74.7846 61.9669 75.7897 61.729C76.7948 61.4911 83.0347 57.2686 83.0347 57.2686C83.0347 57.2686 86.1337 59.5285 86.4268 61.2532C86.72 62.9779 85.1286 69.8766 85.1286 69.8766C85.1286 69.8766 80.0194 74.9316 79.7263 76.0021C79.4332 77.0726 75.0359 80.2246 75.0359 80.7598C75.0359 81.2951 68.0841 87.1233 65.027 82.0087C61.9699 76.8942 62.0117 75.4074 62.0117 75.4074L69.7592 72.8501L70.5131 68.0924L69.2986 66.6056Z" fill="#C4C8E2"/>
<path d="M60.8391 68.6871L60.5878 71.6607L58.5961 71.4537L56.6513 71.2492C56.6513 71.2492 55.5206 71.2492 54.8086 68.8703C54.0967 66.4914 56.4 66.1346 56.5256 66.4914C56.6211 66.7602 59.0383 67.8807 60.2109 68.4112L60.8391 68.6871Z" fill="#FDC2CC"/>
<path opacity="0.1" d="M60.8392 68.6871L60.5879 71.6607L58.5962 71.4537C58.9212 70.7686 59.6013 69.5149 60.2127 68.4111L60.8392 68.6871Z" fill="black"/>
<path opacity="0.1" d="M60.5879 68.9845C60.5879 68.9845 62.8594 69.7291 64.4273 70.5427C64.3234 70.7805 63.6299 72.322 62.8912 72.9953C62.0319 73.0286 61.2764 72.8739 61.0904 72.4338C60.5879 71.2444 60.5879 68.9845 60.5879 68.9845Z" fill="black"/>
<path opacity="0.1" d="M64.6586 72.686L64.6218 72.2744C64.6218 72.2744 64.605 72.1864 64.5899 72.0532C64.5598 71.782 64.538 71.3253 64.6787 71.0469C64.7608 70.8828 64.7424 70.7662 64.6888 70.683C65.2968 71.0184 65.7592 71.361 65.8614 71.6607C66.0054 72.0603 65.4443 72.4362 64.6586 72.686Z" fill="black"/>
<path d="M71.7694 70.7401C71.7694 70.7401 69.4946 73.9729 69.3539 74.6652C69.2132 75.3574 64.9148 75.3788 64.9148 75.3788L64.6216 72.0484C64.6216 72.0484 64.6049 71.9604 64.5898 71.8272C64.5596 71.556 64.5379 71.0993 64.6786 70.821C64.888 70.4047 64.4407 70.2857 64.4407 70.2857C64.4407 70.2857 63.2815 73 62.3049 73.0809C62.3049 73.0809 60.9514 74.4677 60.9648 74.7461C60.9648 74.7461 60.3082 75.5977 60.2948 76.6277C60.2814 77.6578 59.4438 78.0765 58.829 77.7791C58.2142 77.4818 56.6932 76.8466 56.2041 76.9465C55.7149 77.0464 54.1671 77.6982 54.2224 75.6572C54.2224 75.6572 56.2326 73.5162 56.7351 73.5757C57.2376 73.6351 58.4102 72.8025 58.5777 72.1484C58.7453 71.4942 61.593 66.4986 61.593 66.4986C61.593 66.4986 63.3938 64.0793 64.1191 63.8414C64.1191 63.8414 65.5714 62.2357 67.7625 64.674C67.7625 64.674 70.7928 67.3288 70.89 67.6856C70.967 67.9663 71.8465 69.1653 71.9202 70.0645C71.9372 70.186 71.9323 70.3117 71.9059 70.4298C71.8796 70.5479 71.8326 70.6546 71.7694 70.7401Z" fill="#FDC2CC"/>
<path opacity="0.1" d="M64.6635 66.0109C64.6635 66.0109 64.8863 67.8355 64.7757 68.4896C64.6651 69.1438 64.4407 70.2738 64.4407 70.2738C64.4407 70.2738 65.7942 67.2598 64.6635 66.0109Z" fill="black"/>
<path opacity="0.1" d="M64.7607 70.4522C64.7607 70.4522 65.4593 69.3604 65.6134 69.6387C65.7675 69.917 64.7607 70.4522 64.7607 70.4522Z" fill="black"/>
<path d="M93.3586 59.3216C93.3587 60.835 93.0114 62.3071 92.3693 63.5151C91.7273 64.723 90.8255 65.6009 89.8007 66.0157C89.372 66.1907 88.9283 66.2803 88.4823 66.2821H88.4572C87.8137 66.2818 87.1767 66.1015 86.5823 65.7515C85.9879 65.4016 85.4479 64.8888 84.993 64.2424C84.5382 63.5961 84.1775 62.8288 83.9314 61.9845C83.6854 61.1402 83.5589 60.2353 83.5591 59.3216C83.5583 58.9131 83.5841 58.5053 83.6362 58.1036C83.8272 56.582 84.3701 55.1944 85.179 54.1603C85.9879 53.1262 87.0165 52.5048 88.1021 52.3943C88.2193 52.3801 88.3383 52.3729 88.4572 52.3729C89.7558 52.3723 91.0015 53.1038 91.9206 54.4067C92.8396 55.7096 93.3569 57.4774 93.3586 59.3216Z" fill="#F8BDC5"/>
<path d="M95.9434 58.4676C96.1827 58.8742 96.3226 59.38 96.3421 59.9092C95.853 59.9734 95.337 60.0566 94.9484 60.492C94.6134 60.8631 94.4458 61.4435 94.2783 61.9835C94.1253 62.4926 93.9735 63.0017 93.8227 63.5107C93.5848 64.3077 93.3402 65.1212 92.9265 65.7564C92.751 65.9854 92.5948 66.2424 92.4608 66.5224C92.3452 66.8197 92.2933 67.1956 92.1057 67.3954C92.0112 67.4773 91.904 67.5248 91.7935 67.5335C91.683 67.5422 91.5727 67.5119 91.4725 67.4454C91.2664 67.3359 91.0822 67.1528 90.8761 67.0362C90.7438 66.9638 90.6061 66.9128 90.4657 66.884C89.8526 66.7555 89.1775 66.9434 88.6566 66.4748C88.5963 66.4179 88.5401 66.3526 88.4891 66.2797C88.2856 65.9964 88.1382 65.642 88.0619 65.2521C88.0236 65.094 88.0099 64.926 88.0217 64.7596C88.0457 64.6075 88.0929 64.4647 88.1601 64.3414C88.2272 64.2181 88.3127 64.1172 88.4103 64.046C88.4388 64.0222 88.4673 63.9984 88.4974 63.977C89 63.6035 89.6985 63.5155 89.9615 62.7876C90.2128 62.0977 89.9012 61.258 89.5193 60.7013C89.3384 60.4396 89.1239 60.1423 89.1491 59.7759C89.1725 59.4524 89.3752 59.2264 89.5444 59.0099C90.0232 58.395 90.3458 57.5731 90.4624 56.6715C90.5069 56.393 90.5034 56.1033 90.4523 55.827C90.4002 55.6289 90.3286 55.4423 90.2396 55.2728L89.6968 54.1309C89.5293 53.7278 89.3004 53.3832 89.0268 53.1223C88.8006 52.9296 88.541 52.863 88.3132 52.6727C88.2265 52.6053 88.1537 52.5069 88.1021 52.3872C88.0734 52.3203 88.0638 52.2403 88.0753 52.1636C88.1038 51.9733 88.2428 51.8805 88.3819 51.8258C88.7416 51.6775 89.1178 51.6267 89.4908 51.6759C89.609 51.7116 89.7311 51.7116 89.8493 51.6759C89.9078 51.6537 89.9588 51.6023 89.993 51.5311C90.0271 51.4599 90.0421 51.3737 90.0352 51.2882C90.4473 51.1359 90.8376 51.5927 91.1391 52.0209C91.4406 52.4491 91.8092 52.9177 92.2347 52.7964C92.3871 52.7536 92.5278 52.6298 92.6819 52.6061C92.836 52.5823 93.027 52.725 93.017 52.9462C93.0069 53.1675 92.8126 53.3102 92.8293 53.5243C92.8394 53.5984 92.8631 53.6673 92.898 53.7241C93.0913 54.1021 93.3208 54.44 93.5798 54.728C93.5798 54.3069 93.5798 53.8835 93.5798 53.4624C93.9148 53.5814 94.0371 54.1904 93.9986 54.6828C93.9601 55.1752 93.8311 55.6724 93.9115 56.1529C93.9216 56.2352 93.945 56.3131 93.9799 56.3804C94.0147 56.4477 94.0601 56.5025 94.1125 56.5407C94.1986 56.5738 94.2894 56.5738 94.3755 56.5407C95.1444 56.3861 96.0422 56.6763 96.4242 57.635L95.7541 57.29L96.5331 57.8943C96.6397 57.9639 96.7345 58.0654 96.8111 58.1916C96.8482 58.2558 96.8701 58.3349 96.8737 58.4177C96.8773 58.5006 96.8625 58.583 96.8312 58.6531C96.7024 58.53 96.5558 58.4495 96.4021 58.4174C96.2485 58.3853 96.0918 58.4024 95.9434 58.4676Z" fill="#585268"/>
<g opacity="0.1">
<path d="M94.4675 56.486C94.5536 56.5191 94.6444 56.5191 94.7305 56.486C94.8059 56.4717 94.8813 56.4622 94.9584 56.4551C94.7907 56.44 94.6225 56.4471 94.4558 56.4765L94.4675 56.486Z" fill="black"/>
<path d="M96.1025 57.2424L96.3907 57.4684L96.3371 57.3614L96.1025 57.2424Z" fill="black"/>
<path d="M93.9417 54.6733C93.9417 54.3973 93.9417 54.119 93.9417 53.8407C93.9127 53.7371 93.8675 53.6442 93.8094 53.5692C93.7514 53.4942 93.682 53.4389 93.6067 53.4077V54.2451C93.712 54.3976 93.8239 54.5406 93.9417 54.6733Z" fill="black"/>
<path d="M96.4375 58.3843C96.5853 58.4204 96.7259 58.5016 96.8496 58.6222C96.8791 58.567 96.8939 58.4988 96.8915 58.4295C96.7442 58.3682 96.5893 58.3528 96.4375 58.3843Z" fill="black"/>
<path d="M91.8427 67.4097C91.6366 67.3003 91.4523 67.1171 91.2463 67.0005C91.1139 66.9281 90.9763 66.8771 90.8359 66.8483C90.2228 66.7198 89.5477 66.9077 89.0268 66.4391C88.9664 66.3822 88.9103 66.3169 88.8592 66.244C88.6557 65.9607 88.5084 65.6063 88.4321 65.2164C88.3938 65.0583 88.3801 64.8903 88.3919 64.7239C88.4159 64.5718 88.4631 64.429 88.5303 64.3057C88.5974 64.1824 88.6828 64.0815 88.7805 64.0103C88.809 63.9865 88.8375 63.9627 88.8676 63.9413C89.3785 63.5678 90.0687 63.4798 90.3317 62.7519C90.583 62.062 90.2714 61.2223 89.8895 60.6656C89.7085 60.4039 89.4941 60.1066 89.5192 59.7402C89.5427 59.4167 89.7454 59.1907 89.9146 58.9743C90.3933 58.3594 90.716 57.5375 90.8325 56.6358C90.877 56.3573 90.8736 56.0676 90.8225 55.7913C90.7704 55.5932 90.6988 55.4066 90.6098 55.2371L90.067 54.0952C89.8995 53.6922 89.6706 53.3475 89.397 53.0866C89.1708 52.8939 88.9112 52.8273 88.6834 52.637C88.5967 52.5696 88.5239 52.4712 88.4723 52.3515C88.4436 52.2846 88.434 52.2046 88.4455 52.1279C88.474 51.9376 88.6214 51.8448 88.752 51.7901C88.9707 51.7031 89.1954 51.6504 89.4221 51.6331C89.0832 51.6047 88.7434 51.6578 88.417 51.7901C88.2863 51.8448 88.1389 51.9376 88.1104 52.1279C88.0989 52.2046 88.1085 52.2846 88.1373 52.3515C88.1889 52.4712 88.2616 52.5696 88.3483 52.637C88.5761 52.8273 88.8358 52.8939 89.0619 53.0866C89.3355 53.3475 89.5645 53.6922 89.732 54.0952L90.2747 55.2371C90.3637 55.4066 90.4353 55.5932 90.4875 55.7913C90.5386 56.0676 90.542 56.3573 90.4975 56.6358C90.3809 57.5375 90.0583 58.3594 89.5795 58.9743C89.412 59.1907 89.2077 59.4167 89.1842 59.7402C89.1591 60.1066 89.3735 60.4039 89.5544 60.6656C89.9364 61.2223 90.2479 62.062 89.9967 62.7519C89.7337 63.4774 89.0435 63.5654 88.5326 63.9413C88.5024 63.9627 88.474 63.9865 88.4455 64.0103C88.3478 64.0815 88.2624 64.1824 88.1952 64.3057C88.1281 64.429 88.0808 64.5718 88.0569 64.7239C88.045 64.8903 88.0587 65.0583 88.0971 65.2164C88.1734 65.6063 88.3207 65.9607 88.5242 66.244C88.5753 66.3169 88.6314 66.3822 88.6917 66.4391C89.2127 66.9149 89.8878 66.7198 90.5009 66.8483C90.6412 66.8771 90.7789 66.9281 90.9113 67.0005C91.1173 67.1171 91.3016 67.3003 91.5076 67.4097C91.6573 67.4969 91.8221 67.5168 91.98 67.4668C91.9333 67.4525 91.8874 67.4334 91.8427 67.4097Z" fill="black"/>
<path d="M92.5963 52.7417C92.6994 52.7042 92.8007 52.6574 92.8995 52.6013C92.8403 52.5602 92.7743 52.5429 92.7086 52.5514C92.5665 52.5993 92.4266 52.6596 92.2898 52.7322C92.3902 52.7675 92.4949 52.7708 92.5963 52.7417Z" fill="black"/>
<path d="M89.8525 51.6331C89.9713 51.6649 90.0934 51.6609 90.211 51.6212C90.2693 51.599 90.32 51.548 90.3541 51.4773C90.3882 51.4067 90.4034 51.321 90.397 51.2358C90.2871 51.1956 90.1718 51.1956 90.0619 51.2358C90.0688 51.3214 90.0538 51.4076 90.0197 51.4788C89.9856 51.5499 89.9346 51.6013 89.876 51.6236C89.8645 51.6287 89.8527 51.6327 89.8408 51.6355L89.8525 51.6331Z" fill="black"/>
</g>
<path d="M84.0399 55.5154C83.415 56.1791 82.4183 56.4669 81.502 56.5621C80.7856 56.6426 80.0659 56.6426 79.3495 56.5621L77.7363 55.7009C77.7363 55.7009 77.867 55.3322 78.0881 54.8445C78.5287 53.8739 79.3294 52.43 80.1653 52.4895C81.4216 52.5775 82.7416 52.6655 82.8673 52.6655C82.9929 52.6655 85.442 54.0286 84.0399 55.5154Z" fill="#FDC2CC"/>
<path d="M79.9592 7.89778C78.7665 7.86686 77.5352 7.84783 76.4414 8.49963C74.2419 9.79135 73.205 13.2431 71.875 16.0263C70.7719 18.3328 69.3638 20.313 67.729 21.8569C66.9584 22.5706 66.0639 23.3556 65.878 24.6402C65.6803 25.9985 66.3638 27.2569 66.7155 28.5439C67.461 31.2819 66.7155 34.315 66.275 37.1839C66.0689 38.5618 65.9362 39.9597 65.878 41.3659C65.8301 42.017 65.8601 42.6749 65.9668 43.3118C66.3018 44.9913 67.5682 46.2045 67.5782 47.9506C67.5782 49.14 66.9886 50.2628 67.1611 51.419C67.3839 52.8962 68.647 53.4291 69.6939 53.6836C69.9446 53.7814 70.2102 53.7698 70.4561 53.6503C70.6236 53.5361 70.761 53.3173 70.9319 53.196C71.5131 52.7868 72.1581 53.6503 72.808 53.6337C73.6238 53.6123 74.0828 52.2444 74.1029 51.0859C74.123 49.9274 73.9052 48.7071 74.1984 47.6366C74.5887 46.2093 75.706 45.5313 76.6491 44.782C77.6927 43.9517 78.6861 42.7528 78.9943 41.1138C79.1869 40.1004 79.0998 39.0275 79.0228 37.9856C78.9055 36.387 78.8134 34.7812 78.7497 33.1779C78.5822 29.0863 80.976 25.6774 83.8522 25.9961H83.9058C84.7434 26.0937 85.7317 26.2078 86.323 25.3419C86.5575 24.997 86.7066 24.5212 86.9931 24.2833C87.5526 23.8314 88.3214 24.476 88.8843 24.0312C89.3249 23.6815 89.4187 22.8418 89.35 22.1281C89.2813 21.4144 89.1054 20.7008 89.1992 20.0014C89.3332 19.0094 89.9681 18.3005 90.2043 17.3466C90.4757 16.2595 90.1825 15.0439 89.7604 14.059C88.4086 10.8928 85.6563 8.41399 83.0766 8.08095C82.0397 7.93822 80.9994 7.92157 79.9592 7.89778Z" fill="#865A61"/>
<path opacity="0.1" d="M78.0881 54.8374C79.0831 55.1276 80.2943 55.7723 81.502 56.5597C80.7856 56.6403 80.0659 56.6403 79.3495 56.5597L77.7363 55.6985C77.7363 55.6985 77.867 55.3251 78.0881 54.8374Z" fill="black"/>
<path opacity="0.1" d="M90.4674 66.8839C89.8543 66.7555 89.1792 66.9434 88.6582 66.4748C88.5979 66.4179 88.5418 66.3525 88.4907 66.2797H88.4656C87.8216 66.281 87.1837 66.1019 86.5885 65.7528C85.9932 65.4037 85.4523 64.8913 84.9966 64.2451C84.5409 63.5988 84.1794 62.8313 83.9327 61.9865C83.6861 61.1417 83.5591 60.2361 83.5591 59.3216C83.5583 58.9131 83.5841 58.5053 83.6362 58.1036C85.3532 59.4667 86.7452 60.8678 87.0132 61.5529C87.4094 62.4546 87.8758 63.2901 88.4036 64.0436C88.871 64.7572 89.3718 65.4424 89.8007 66.0157C90.0553 66.3511 90.2848 66.6484 90.4674 66.8839Z" fill="black"/>
<path d="M90.7404 67.6761C90.7404 67.6761 87.6833 63.9294 86.8457 61.7884C86.0082 59.6475 74.2404 50.5483 75.748 57.447C77.2556 64.3457 82.4485 64.9999 82.4485 64.9999C82.4485 64.9999 84.1236 67.6761 84.2912 68.9845C84.4587 70.2929 85.045 72.1959 85.045 72.1959L87.8508 73.9801L89.1491 73.5638C89.1491 73.5638 92.2062 71.1849 90.7404 67.6761Z" fill="#FDC2CC"/>
<path opacity="0.1" d="M84.8774 71.958C84.8774 71.958 89.8191 75.9426 90.3216 66.6056L91.578 67.2003L90.3216 73.5043L88.1858 75.7047C88.1858 75.7047 85.2125 73.7422 84.8774 71.958Z" fill="black"/>
<path d="M85.0449 72.1959C85.0449 72.1959 89.9866 76.1805 90.4891 66.8435L91.7455 67.4382L90.4891 73.7422L88.3533 75.9426C88.3533 75.9426 85.3799 73.9801 85.0449 72.1959Z" fill="#D39999"/>
<path d="M89.4087 24.8804C89.4657 24.0455 89.7052 23.2581 89.8309 22.4373C89.9547 21.6434 89.9717 20.8234 89.8811 20.0204C89.8303 19.4405 89.6783 18.8877 89.4389 18.4123C89.2714 18.115 88.7688 17.4608 88.4757 17.7558C88.3082 17.9247 88.2629 18.9024 88.1959 19.1831C87.9609 20.1259 87.6459 21.0246 87.2579 21.8593C88.0863 23.4826 88.5827 25.3994 88.6925 27.3982C88.8022 29.3969 88.521 31.3998 87.8798 33.1859C87.2387 34.972 86.2625 36.4719 85.059 37.5199C83.8556 38.5679 82.4716 39.1234 81.0599 39.125C80.8773 39.125 80.6964 39.1131 80.5171 39.0941C80.3496 39.508 80.1972 39.9267 80.043 40.3454C79.861 40.7705 79.7382 41.2413 79.6812 41.7323C79.6673 42.2016 79.7179 42.6702 79.8303 43.112C80.1422 44.5652 80.5729 45.9616 81.1135 47.2726C81.302 47.6796 81.4566 48.1162 81.5741 48.5739C81.6696 49.0139 81.6864 49.4849 81.8103 49.9084C82.0884 50.8599 82.8154 51.3357 83.4854 51.733C83.8858 51.9709 84.3046 52.2087 84.7368 52.1588C84.7773 52.1631 84.818 52.1554 84.8562 52.136C84.8945 52.1167 84.9295 52.0863 84.959 52.0466C84.9885 52.007 85.0118 51.959 85.0275 51.9058C85.0432 51.8526 85.0508 51.7954 85.05 51.7377C85.0733 51.4884 85.0551 51.2348 84.9969 50.9973C84.9387 50.7598 84.8422 50.5449 84.715 50.3699C85.2833 50.6229 85.8797 50.7237 86.4739 50.6672C86.5271 50.683 86.5823 50.6767 86.6331 50.6491C86.6838 50.6215 86.7278 50.5738 86.76 50.5116C86.7921 50.4494 86.811 50.3753 86.8143 50.2983C86.8177 50.2213 86.8053 50.1446 86.7788 50.0773C86.6245 49.18 86.3892 48.3148 86.0786 47.5034C85.7737 46.7041 85.3851 45.7739 85.6631 44.958C85.8223 44.4822 86.1573 44.2158 86.4622 43.9327C87.4924 42.9812 88.4053 41.4301 88.3249 39.6864C88.2814 38.7349 87.943 37.8286 87.9229 36.8699C87.871 34.5315 89.6432 32.8591 89.9113 30.5492C90.124 28.6604 89.2797 26.7907 89.4087 24.8804Z" fill="#865A61"/>
<g opacity="0.1">
<path d="M67.4879 46.9991C67.4778 45.253 66.2131 44.0398 65.8764 42.3603C65.8245 42.0955 65.7925 41.8235 65.7809 41.5491C65.7436 42.1402 65.7759 42.7359 65.8764 43.3119C66.1846 44.8462 67.2634 45.9928 67.456 47.5129C67.4776 47.3434 67.4882 47.1714 67.4879 46.9991Z" fill="black"/>
<path d="M72.7176 52.6822C72.0676 52.6988 71.4227 51.8353 70.8414 52.2445C70.6739 52.3658 70.5399 52.5847 70.3657 52.6988C70.1197 52.8183 69.8541 52.8299 69.6035 52.7321C68.5599 52.4776 67.3002 51.9471 67.074 50.4817C67.0313 50.7912 67.0313 51.1095 67.074 51.419C67.2968 52.8963 68.5599 53.4291 69.6068 53.6837C69.8575 53.7815 70.1231 53.7699 70.369 53.6504C70.5365 53.5362 70.6739 53.3173 70.8448 53.196C71.426 52.7869 72.071 53.6504 72.7209 53.6337C73.5367 53.6123 73.9957 52.2445 74.0158 51.086C74.0158 50.8481 74.0158 50.6102 74.0041 50.3723C73.9186 51.4713 73.4764 52.6608 72.7176 52.6822Z" fill="black"/>
<path d="M78.9072 40.1599C78.5956 41.7989 77.6023 42.9978 76.562 43.8281C75.6189 44.5798 74.5016 45.2554 74.1113 46.6827C73.9676 47.2991 73.9185 47.952 73.9672 48.5977C73.9817 48.2682 74.0303 47.9436 74.1113 47.6342C74.5016 46.2069 75.6189 45.5289 76.562 44.7796C77.6056 43.9494 78.599 42.7504 78.9072 41.1114C79.0135 40.4891 79.0491 39.8466 79.0127 39.2083C78.9997 39.5297 78.9643 39.8484 78.9072 40.1599Z" fill="black"/>
<path d="M88.0785 23.2343C87.6748 23.1915 87.2543 23.0583 86.9059 23.3342C86.6127 23.5721 86.4636 24.0479 86.2358 24.3928C85.6445 25.2587 84.6645 25.1445 83.8186 25.047H83.765C80.8888 24.7282 78.4984 28.1395 78.6625 32.2288C78.6625 32.2597 78.6625 32.293 78.6625 32.3239C78.7025 31.4319 78.8664 30.56 79.1448 29.7584C79.4232 28.9568 79.8105 28.2413 80.2845 27.6533C80.7585 27.0653 81.3098 26.6164 81.9066 26.3324C82.5034 26.0484 83.1338 25.9349 83.7616 25.9986H83.8152C84.6528 26.0961 85.6411 26.2103 86.2325 25.3444C86.467 24.9994 86.6161 24.5237 86.9025 24.2858C87.2375 24.0098 87.6647 24.1431 88.0751 24.1859C88.3973 25.323 88.5814 26.5296 88.6195 27.7542C88.6195 27.5995 88.6279 27.4449 88.6279 27.2784C88.628 25.893 88.4415 24.5203 88.0785 23.2343Z" fill="black"/>
<path d="M66.9383 30.6421C66.9885 29.6078 66.8841 28.57 66.6318 27.5971C66.3671 26.6242 65.9131 25.6703 65.7942 24.6783C65.6116 26.0223 66.2867 27.2665 66.6318 28.5487C66.8108 29.2193 66.9142 29.9257 66.9383 30.6421Z" fill="black"/>
<path d="M89.8408 20.5748C89.8256 20.8814 89.7942 21.1859 89.747 21.4859C89.6214 22.3066 89.3818 23.094 89.3249 23.929C89.3048 24.2264 89.3048 24.5259 89.3249 24.8234C89.3885 24.0098 89.618 23.2391 89.742 22.4445C89.839 21.8315 89.8723 21.2015 89.8408 20.5748Z" fill="black"/>
<path d="M89.8206 29.6025C89.5525 31.9124 87.7802 33.5847 87.8322 35.9232C87.8348 36.0498 87.8427 36.1761 87.8556 36.3014C88.0667 34.2532 89.576 32.6713 89.8206 30.5541C89.8621 30.1706 89.8677 29.7811 89.8373 29.3956C89.8323 29.4646 89.8323 29.5335 89.8206 29.6025Z" fill="black"/>
<path d="M90.1255 16.3903C89.9673 16.9001 89.7647 17.3796 89.5225 17.8177C89.5919 18.0092 89.648 18.21 89.69 18.4171C89.8666 18.0833 90.0114 17.7178 90.1205 17.33C90.2255 16.886 90.2519 16.4122 90.1975 15.9503C90.1829 16.0997 90.1588 16.247 90.1255 16.3903Z" fill="black"/>
<path d="M88.2142 39.4319C88.0651 40.8878 87.2627 42.1557 86.3715 42.986C86.0667 43.269 85.7316 43.545 85.5725 44.0112C85.4623 44.3621 85.4462 44.758 85.5273 45.1246C85.5391 45.0689 85.5543 45.0148 85.5725 44.9628C85.7316 44.487 86.0667 44.2206 86.3715 43.9375C87.4017 42.986 88.3147 41.4349 88.2343 39.6912C88.2309 39.6032 88.2226 39.5176 88.2142 39.4319Z" fill="black"/>
<path d="M84.864 51.1074C84.8019 51.1748 84.7261 51.2116 84.6479 51.2121C84.2157 51.2644 83.7969 51.0241 83.3966 50.7863C82.7265 50.3914 81.9962 49.9108 81.7215 48.9617C81.5975 48.5382 81.5807 48.0672 81.4853 47.6271C81.3677 47.1695 81.2131 46.7329 81.0246 46.3259C80.484 45.0149 80.0533 43.6185 79.7414 42.1653C79.6928 41.9457 79.6525 41.7226 79.6208 41.4968C79.6091 41.5753 79.5991 41.6562 79.5924 41.7347C79.5784 42.204 79.629 42.6727 79.7414 43.1144C80.0533 44.5677 80.484 45.9641 81.0246 47.2751C81.2131 47.682 81.3677 48.1187 81.4853 48.5763C81.5807 49.0164 81.5975 49.4874 81.7215 49.9108C81.9995 50.8624 82.7265 51.3382 83.3966 51.7354C83.7969 51.9733 84.2157 52.2112 84.6479 52.1612C84.6884 52.1656 84.7291 52.1578 84.7674 52.1385C84.8056 52.1192 84.8406 52.0887 84.8701 52.0491C84.8996 52.0095 84.9229 51.9615 84.9386 51.9083C84.9543 51.8551 84.962 51.7978 84.9612 51.7402C84.9832 51.5 84.966 51.2558 84.9109 51.0265C84.8989 51.0573 84.883 51.0847 84.864 51.1074Z" fill="black"/>
<path d="M86.6028 49.6468C86.5342 49.6932 86.4594 49.7184 86.3834 49.7205C85.7892 49.777 85.1928 49.6761 84.6245 49.4232C84.8321 49.7084 84.955 50.0957 84.9679 50.5055C85.4313 50.6606 85.9084 50.7168 86.3834 50.6721C86.4366 50.6878 86.4918 50.6815 86.5426 50.6539C86.5933 50.6263 86.6374 50.5786 86.6695 50.5164C86.7016 50.4542 86.7205 50.3802 86.7238 50.3032C86.7272 50.2262 86.7148 50.1494 86.6883 50.0821C86.6632 49.9346 86.633 49.7895 86.6028 49.6468Z" fill="black"/>
</g>
<path opacity="0.1" d="M63.2263 54.8898C63.2263 54.8898 63.0588 59.7664 63.5613 60.1233C64.0638 60.4801 63.2263 54.8898 63.2263 54.8898Z" fill="black"/>
<path opacity="0.1" d="M72.7327 67.7356C72.9002 67.7356 73.5702 68.2114 73.654 68.7466C73.7377 69.2819 72.7327 67.7356 72.7327 67.7356Z" fill="black"/>
<path opacity="0.1" d="M72.314 68.5087C72.4815 68.5087 73.1515 68.9844 73.2353 69.5197C73.319 70.0549 72.314 68.5087 72.314 68.5087Z" fill="black"/>
<path opacity="0.1" d="M73.8635 70.6497C74.031 70.6497 74.7011 71.1254 74.7848 71.6607C74.8686 72.1959 73.8635 70.6497 73.8635 70.6497Z" fill="black"/>
<path opacity="0.1" d="M71.7695 70.7401C71.7695 70.7401 69.4946 73.9729 69.3539 74.6652C69.2132 75.3574 64.9148 75.3788 64.9148 75.3788L64.6217 72.0484C64.6217 72.0484 64.6049 71.9604 64.5898 71.8272C65.7775 71.3943 69.6287 69.3746 71.9202 70.0906C71.934 70.2081 71.9275 70.3286 71.9013 70.4418C71.875 70.5549 71.8298 70.6573 71.7695 70.7401Z" fill="black"/>
<path d="M61.4106 74.8317C61.4106 74.8317 63.6033 72.077 64.2734 72.1365C64.9434 72.1959 73.1097 67.2598 73.6541 72.7906C74.1986 78.3215 63.2264 78.6188 63.2264 78.6188L61.5513 79.5109C61.5513 79.5109 60.1542 75.1885 61.4106 74.8317Z" fill="#FDC2CC"/>
<path d="M60.7688 75.229C60.7688 75.229 61.7739 73.2474 62.0805 75.6643C62.387 78.0812 62.8494 81.0572 62.8494 81.0572L60.6013 79.4705L60.7688 75.229Z" fill="#D39999"/>
<path opacity="0.1" d="M153.841 159.707C157.985 159.707 161.344 158.975 161.344 158.073C161.344 157.17 157.985 156.438 153.841 156.438C149.697 156.438 146.338 157.17 146.338 158.073C146.338 158.975 149.697 159.707 153.841 159.707Z" fill="#6C63FF"/>
<path opacity="0.1" d="M132.662 190.135C139.139 190.135 144.388 188.991 144.388 187.58C144.388 186.169 139.139 185.025 132.662 185.025C126.186 185.025 120.937 186.169 120.937 187.58C120.937 188.991 126.186 190.135 132.662 190.135Z" fill="#6C63FF"/>
<path opacity="0.1" d="M164.49 200C173.056 200 180 198.487 180 196.62C180 194.753 173.056 193.239 164.49 193.239C155.924 193.239 148.98 194.753 148.98 196.62C148.98 198.487 155.924 200 164.49 200Z" fill="#6C63FF"/>
<path opacity="0.1" d="M11.7259 163.97C18.202 163.97 23.4519 162.826 23.4519 161.415C23.4519 160.004 18.202 158.86 11.7259 158.86C5.24989 158.86 0 160.004 0 161.415C0 162.826 5.24989 163.97 11.7259 163.97Z" fill="#6C63FF"/>
<path d="M147.924 142.394C147.924 142.394 146.864 149.411 151.585 150.244L151.878 149.464C151.878 149.464 148.218 144.577 147.924 142.394Z" fill="#6C63FF"/>
<path d="M153.379 149.409L152.281 149.74L152.171 149.775C152.171 149.775 149.243 146.397 149.28 138.859C149.672 139.97 150.141 141.023 150.678 142.003C151.839 144.183 153.153 147.101 153.379 149.409Z" fill="#6C63FF"/>
<path d="M153.751 150.132C153.664 150.212 153.566 150.264 153.464 150.283C153.361 150.302 153.257 150.288 153.159 150.241C150.34 149.307 151.293 136.261 151.293 136.261C151.449 136.366 151.628 138.024 152.268 140.167C153.406 143.93 154.66 149.188 153.751 150.132Z" fill="#6C63FF"/>
<path d="M160.002 142.394C160.002 142.394 160.186 149.411 155.464 150.244L155.171 149.464C155.171 149.464 159.711 144.577 160.002 142.394Z" fill="#6C63FF"/>
<path d="M158.649 138.859C158.684 146.397 154.88 149.775 154.88 149.775L154.769 149.74L153.672 149.409C153.888 147.094 155.211 144.175 156.371 142.003C157.027 140.815 157.794 139.757 158.649 138.859Z" fill="#6C63FF"/>
<path d="M154.752 149.449C154.583 149.742 154.368 149.976 154.124 150.132C154.051 150.18 153.974 150.217 153.895 150.241C153.199 150.479 152.958 149.766 152.998 148.555C153.064 146.414 154.015 142.679 154.87 139.891C155.484 137.883 156.489 136.361 156.638 136.261C156.635 136.261 156.593 146.419 154.752 149.449Z" fill="#6C63FF"/>
<path d="M153.963 131.686C153.963 131.686 150.816 147.539 153.525 149.93C156.233 152.321 154.66 133.09 153.963 131.686Z" fill="#6C63FF"/>
<path opacity="0.1" d="M147.924 142.394C147.924 142.394 146.864 149.411 151.585 150.244L151.878 149.464C151.878 149.464 148.218 144.577 147.924 142.394Z" fill="black"/>
<path opacity="0.1" d="M153.379 149.409L152.281 149.74L152.171 149.775C152.171 149.775 149.243 146.397 149.28 138.859C149.672 139.97 150.141 141.023 150.678 142.003C151.839 144.183 153.153 147.101 153.379 149.409Z" fill="black"/>
<path opacity="0.1" d="M153.751 150.132C153.664 150.212 153.566 150.264 153.464 150.283C153.361 150.302 153.257 150.288 153.159 150.241C150.34 149.307 151.293 136.261 151.293 136.261C151.449 136.366 151.628 138.024 152.268 140.167C153.406 143.93 154.66 149.188 153.751 150.132Z" fill="black"/>
<path opacity="0.1" d="M160.002 142.394C160.002 142.394 160.186 149.411 155.464 150.244L155.171 149.464C155.171 149.464 159.711 144.577 160.002 142.394Z" fill="black"/>
<path opacity="0.1" d="M158.649 138.859C158.684 146.397 154.88 149.775 154.88 149.775L154.769 149.74L153.672 149.409C153.888 147.094 155.211 144.175 156.371 142.003C157.027 140.815 157.794 139.757 158.649 138.859Z" fill="black"/>
<path opacity="0.1" d="M154.752 149.449C154.583 149.742 154.368 149.976 154.124 150.132C154.051 150.18 153.974 150.217 153.895 150.241C153.199 150.479 152.958 149.766 152.998 148.555C153.064 146.414 154.015 142.679 154.87 139.891C155.484 137.883 156.489 136.361 156.638 136.261C156.635 136.261 156.593 146.419 154.752 149.449Z" fill="black"/>
<path opacity="0.1" d="M153.963 131.686C153.963 131.686 150.816 147.539 153.525 149.93C156.233 152.321 154.66 133.09 153.963 131.686Z" fill="black"/>
<path d="M147.924 142.394C147.924 142.394 147.303 149.411 152.024 150.244L152.317 149.464C152.317 149.464 148.218 144.577 147.924 142.394Z" fill="#6C63FF"/>
<path d="M153.823 149.409L152.725 149.74L152.615 149.775C152.615 149.775 149.248 146.397 149.285 138.859C149.285 138.859 150.147 140.172 151.127 142.003C152.28 144.183 153.598 147.101 153.823 149.409Z" fill="#6C63FF"/>
<path opacity="0.1" d="M153.823 149.409L152.725 149.74C151.685 148.443 151.271 145.056 151.122 142.003C152.28 144.183 153.598 147.101 153.823 149.409Z" fill="black"/>
<path d="M154.189 150.132C154.103 150.212 154.005 150.264 153.903 150.283C153.8 150.302 153.696 150.288 153.598 150.241C150.779 149.307 151.293 136.261 151.293 136.261C151.449 136.366 152.059 138.024 152.707 140.167C153.844 143.93 155.094 149.188 154.189 150.132Z" fill="#6C63FF"/>
<path d="M160.002 142.394C160.002 142.394 160.625 149.411 155.903 150.244L155.612 149.464C155.612 149.464 159.711 144.577 160.002 142.394Z" fill="#6C63FF"/>
<path d="M158.649 138.859C158.684 146.397 155.319 149.775 155.319 149.775L155.208 149.74L154.111 149.409C154.329 147.094 155.65 144.175 156.809 142.003C157.786 140.172 158.649 138.859 158.649 138.859Z" fill="#6C63FF"/>
<path opacity="0.1" d="M156.809 142.003C156.669 144.858 156.307 147.984 155.411 149.449C155.349 149.554 155.281 149.651 155.208 149.74L154.111 149.409C154.325 147.101 155.65 144.183 156.809 142.003Z" fill="black"/>
<path d="M155.191 149.449C155.022 149.743 154.807 149.977 154.563 150.132C154.489 150.18 154.411 150.216 154.332 150.241C153.638 150.479 153.395 149.766 153.436 148.555C153.501 146.414 154.452 142.679 155.307 139.891C155.922 137.883 156.479 136.361 156.637 136.261C156.635 136.261 157.034 146.419 155.191 149.449Z" fill="#6C63FF"/>
<path opacity="0.1" d="M154.19 150.132C154.03 150.132 153.874 150.061 153.744 149.93C152.417 148.757 152.391 144.354 152.707 140.177C153.845 143.93 155.094 149.188 154.19 150.132Z" fill="black"/>
<path opacity="0.1" d="M155.191 149.449C155.039 149.925 154.833 150.163 154.563 150.132C154.428 150.107 154.298 150.038 154.185 149.93C153.84 149.593 153.579 149.113 153.436 148.555C153.501 146.414 154.453 142.679 155.307 139.891C155.61 143.771 155.711 147.863 155.191 149.449Z" fill="black"/>
<path d="M153.963 131.686C153.963 131.686 151.256 147.539 153.963 149.93C156.67 152.321 154.66 133.09 153.963 131.686Z" fill="#F51643"/>
<path d="M159.161 149.152H147.889V151.802H149.608L149.652 152.114L150.34 157.259H156.893L157.582 152.114L157.624 151.802H159.161V149.152Z" fill="#4B4770"/>
<path opacity="0.1" d="M159.161 149.152H147.889V151.802H149.608L149.652 152.114L150.34 157.259H156.893L157.582 152.114L157.624 151.802H159.161V149.152Z" fill="black"/>
<path d="M158.21 150.71L158.022 152.114L157.332 157.259H150.779L150.09 152.114L149.901 150.71H158.21Z" fill="#4B4770"/>
<path opacity="0.1" d="M158.21 150.71L158.022 152.114H150.09L149.901 150.71H158.21Z" fill="black"/>
<path d="M159.6 149.152H148.328V151.802H159.6V149.152Z" fill="#4B4770"/>
<path d="M18.2841 133.492C18.1234 133.805 17.9948 134.148 17.9022 134.512C17.8788 134.601 17.8553 134.703 17.8319 134.8C17.7896 134.772 17.7452 134.75 17.6995 134.736C17.5043 134.665 17.3023 134.641 17.1015 134.662C17.1015 134.553 17.1115 134.424 17.1132 134.313C17.1384 133.059 17.0345 131.313 16.1919 132.053C15.3845 132.766 15.9607 133.956 16.4817 134.717C16.5269 134.784 16.5722 134.846 16.6157 134.905C16.14 135.381 16.0495 136.506 15.9708 137.674C15.8921 138.842 15.1935 140.119 14.7295 140.847C14.6826 140.921 14.6407 140.988 14.5988 141.05C14.4125 140.838 14.1968 140.685 13.9659 140.6C13.7349 140.515 13.4939 140.5 13.2587 140.557C13.2403 140.455 13.2202 140.348 13.1968 140.234C12.8132 138.3 12.0359 134.969 11.0409 134.256C11.0827 134.182 11.1263 134.106 11.1715 134.018C11.5937 133.233 12.0694 132.067 11.3675 131.77C10.6656 131.472 10.602 132.781 10.6405 133.761C10.6405 133.882 10.6539 133.999 10.6606 134.108C10.5208 134.117 10.3838 134.166 10.258 134.253C10.1321 134.34 10.02 134.462 9.92857 134.612L9.81968 134.429C9.25014 133.478 8.20653 131.965 7.88993 133.109C7.59678 134.172 8.51475 135.557 9.16136 136.358L9.20156 136.408C8.7677 138.911 10.6623 140.95 11.6824 141.839L11.8148 141.956C10.4077 144.309 9.53826 148.724 9.53826 148.724L13.4799 149.723C13.4799 149.723 16.0914 146.521 15.7564 143.516H15.7832C18.3947 142.772 18.9877 138.818 18.5823 136.473L18.6275 136.444C19.103 136.168 19.5197 135.721 19.837 135.148C20.5657 133.704 19.0346 132.077 18.2841 133.492Z" fill="#6C63FF"/>
<path opacity="0.1" d="M18.2841 133.492C18.1234 133.805 17.9948 134.148 17.9022 134.512C17.8788 134.601 17.8553 134.703 17.8319 134.8C17.7896 134.772 17.7452 134.75 17.6995 134.736C17.5043 134.665 17.3023 134.641 17.1015 134.662C17.1015 134.553 17.1115 134.424 17.1132 134.313C17.1384 133.059 17.0345 131.313 16.1919 132.053C15.3845 132.766 15.9607 133.956 16.4817 134.717C16.5269 134.784 16.5722 134.846 16.6157 134.905C16.14 135.381 16.0495 136.506 15.9708 137.674C15.8921 138.842 15.1935 140.119 14.7295 140.847C14.6826 140.921 14.6407 140.988 14.5988 141.05C14.4125 140.838 14.1968 140.685 13.9659 140.6C13.7349 140.515 13.4939 140.5 13.2587 140.557C13.2403 140.455 13.2202 140.348 13.1968 140.234C12.8132 138.3 12.0359 134.969 11.0409 134.256C11.0827 134.182 11.1263 134.106 11.1715 134.018C11.5937 133.233 12.0694 132.067 11.3675 131.77C10.6656 131.472 10.602 132.781 10.6405 133.761C10.6405 133.882 10.6539 133.999 10.6606 134.108C10.5208 134.117 10.3838 134.166 10.258 134.253C10.1321 134.34 10.02 134.462 9.92857 134.612L9.81968 134.429C9.25014 133.478 8.20653 131.965 7.88993 133.109C7.59678 134.172 8.51475 135.557 9.16136 136.358L9.20156 136.408C8.7677 138.911 10.6623 140.95 11.6824 141.839L11.8148 141.956C10.4077 144.309 9.53826 148.724 9.53826 148.724L13.4799 149.723C13.4799 149.723 16.0914 146.521 15.7564 143.516H15.7832C18.3947 142.772 18.9877 138.818 18.5823 136.473L18.6275 136.444C19.103 136.168 19.5197 135.721 19.837 135.148C20.5657 133.704 19.0346 132.077 18.2841 133.492Z" fill="black"/>
<path d="M10.4411 135.105L9.98046 137.008C9.98046 137.008 9.72416 136.751 9.40086 136.347C8.75426 135.545 7.83628 134.16 8.12943 133.097C8.44603 131.953 9.48964 133.463 10.0592 134.417C10.2887 134.81 10.4411 135.105 10.4411 135.105Z" fill="#6C63FF"/>
<path d="M11.4128 134.018C11.2726 134.279 11.1227 134.529 10.9638 134.767C10.9246 134.434 10.8972 134.098 10.8818 133.761C10.8432 132.781 10.9169 131.479 11.6088 131.77C12.3006 132.06 11.8349 133.228 11.4128 134.018Z" fill="#6C63FF"/>
<path d="M17.3545 134.313C17.3411 134.943 17.2975 135.447 17.2975 135.447C17.0944 135.223 16.9024 134.979 16.723 134.717C16.202 133.951 15.6257 132.766 16.4332 132.053C17.2758 131.313 17.3796 133.066 17.3545 134.313Z" fill="#6C63FF"/>
<path d="M20.0765 135.14C19.7593 135.714 19.3425 136.161 18.8671 136.437C18.7354 136.519 18.5999 136.589 18.4617 136.646L17.9189 135.564C17.9764 135.206 18.0514 134.855 18.1434 134.512C18.236 134.148 18.3646 133.805 18.5253 133.492C19.2758 132.076 20.8069 133.704 20.0765 135.14Z" fill="#6C63FF"/>
<path opacity="0.1" d="M10.0592 134.429C10.2887 134.81 10.4411 135.105 10.4411 135.105L9.98048 137.008C9.98048 137.008 9.72418 136.751 9.40088 136.347C9.47271 135.733 9.6512 135.155 9.92017 134.665C9.9654 134.589 10.014 134.505 10.0592 134.429Z" fill="black"/>
<path opacity="0.1" d="M11.4126 134.018C11.2724 134.279 11.1226 134.529 10.9637 134.767C10.9244 134.434 10.897 134.098 10.8816 133.761C11.0732 133.765 11.2589 133.855 11.4126 134.018Z" fill="black"/>
<path d="M13.6792 141.613L12.5318 142.327C12.5318 142.327 12.2822 142.156 11.922 141.837C10.7176 140.785 8.29701 138.138 9.91184 135.017C11.5267 131.896 12.8886 137.493 13.4296 140.231C13.5921 141.052 13.6792 141.613 13.6792 141.613Z" fill="#6C63FF"/>
<path opacity="0.1" d="M16.7229 134.717C16.8898 134.474 17.1155 134.329 17.3544 134.313C17.341 134.943 17.2975 135.447 17.2975 135.447C17.0944 135.223 16.9024 134.979 16.7229 134.717Z" fill="black"/>
<path opacity="0.1" d="M18.8671 136.437C18.7354 136.519 18.5999 136.589 18.4617 136.646L17.9189 135.564C17.9764 135.206 18.0514 134.855 18.1434 134.512C18.4935 134.803 18.7515 135.526 18.8671 136.437Z" fill="black"/>
<path d="M16.0227 143.509L15.83 143.557C11.9889 144.385 14.5636 141.442 14.5636 141.442C14.5636 141.442 14.7311 141.204 14.9707 140.847C15.4347 140.119 16.1316 138.849 16.212 137.674C16.3326 135.906 16.4716 134.248 17.9407 134.736C19.383 135.207 19.6594 142.474 16.0227 143.509Z" fill="#6C63FF"/>
<path d="M15.9506 157.09H8.61182V159.831H15.9506V157.09Z" fill="#D4DFEC"/>
<path d="M17.0345 148.181H7.44604V157.744H17.0345V148.181Z" fill="#D4DFEC"/>
<path opacity="0.1" d="M15.9506 157.09H8.61182V159.831H15.9506V157.09Z" fill="black"/>
<path opacity="0.1" d="M17.0345 148.181H7.44604V157.744H17.0345V148.181Z" fill="black"/>
<path d="M16.433 157.09H9.09424V159.831H16.433V157.09Z" fill="#D4DFEC"/>
<path opacity="0.1" d="M13.4295 140.234C13.597 141.052 13.6791 141.613 13.6791 141.613L12.5316 142.327C12.5316 142.327 12.282 142.156 11.9219 141.837C12.3708 141.033 12.8767 140.422 13.4295 140.234Z" fill="black"/>
<path opacity="0.1" d="M16.0227 143.509L15.83 143.557C11.9889 144.385 14.5636 141.442 14.5636 141.442C14.5636 141.442 14.7311 141.204 14.9707 140.847C15.6876 141.661 15.9841 142.582 16.0227 143.509Z" fill="black"/>
<path d="M9.77783 148.724C9.77783 148.724 11.9287 137.781 14.9456 141.159C17.9625 144.537 13.7194 149.723 13.7194 149.723L9.77783 148.724Z" fill="#6C63FF"/>
<path opacity="0.1" d="M10.8633 137.077C10.9965 137.077 11.1045 136.923 11.1045 136.734C11.1045 136.545 10.9965 136.392 10.8633 136.392C10.7301 136.392 10.6221 136.545 10.6221 136.734C10.6221 136.923 10.7301 137.077 10.8633 137.077Z" fill="black"/>
<path opacity="0.1" d="M10.8433 138.675C10.9765 138.675 11.0845 138.522 11.0845 138.333C11.0845 138.144 10.9765 137.99 10.8433 137.99C10.71 137.99 10.6021 138.144 10.6021 138.333C10.6021 138.522 10.71 138.675 10.8433 138.675Z" fill="black"/>
<path opacity="0.1" d="M17.8401 137.391C17.9733 137.391 18.0813 137.237 18.0813 137.048C18.0813 136.859 17.9733 136.706 17.8401 136.706C17.7069 136.706 17.5989 136.859 17.5989 137.048C17.5989 137.237 17.7069 137.391 17.8401 137.391Z" fill="black"/>
<path opacity="0.1" d="M12.21 145.584C12.3432 145.584 12.4512 145.43 12.4512 145.241C12.4512 145.052 12.3432 144.899 12.21 144.899C12.0767 144.899 11.9688 145.052 11.9688 145.241C11.9688 145.43 12.0767 145.584 12.21 145.584Z" fill="black"/>
<path opacity="0.1" d="M17.3377 140.046C17.4709 140.046 17.5789 139.892 17.5789 139.703C17.5789 139.514 17.4709 139.361 17.3377 139.361C17.2044 139.361 17.0964 139.514 17.0964 139.703C17.0964 139.892 17.2044 140.046 17.3377 140.046Z" fill="black"/>
<path opacity="0.1" d="M14.845 143.585C14.9782 143.585 15.0862 143.432 15.0862 143.243C15.0862 143.054 14.9782 142.9 14.845 142.9C14.7118 142.9 14.6038 143.054 14.6038 143.243C14.6038 143.432 14.7118 143.585 14.845 143.585Z" fill="black"/>
<path opacity="0.1" d="M11.6875 137.762C11.8207 137.762 11.9287 137.609 11.9287 137.419C11.9287 137.23 11.8207 137.077 11.6875 137.077C11.5543 137.077 11.4463 137.23 11.4463 137.419C11.4463 137.609 11.5543 137.762 11.6875 137.762Z" fill="black"/>
<path opacity="0.1" d="M17.1768 138.419C17.31 138.419 17.418 138.265 17.418 138.076C17.418 137.887 17.31 137.733 17.1768 137.733C17.0435 137.733 16.9355 137.887 16.9355 138.076C16.9355 138.265 17.0435 138.419 17.1768 138.419Z" fill="black"/>
<path opacity="0.1" d="M16.3528 141.073C16.486 141.073 16.594 140.92 16.594 140.731C16.594 140.542 16.486 140.388 16.3528 140.388C16.2196 140.388 16.1116 140.542 16.1116 140.731C16.1116 140.92 16.2196 141.073 16.3528 141.073Z" fill="black"/>
<path opacity="0.1" d="M13.8198 145.327C13.9531 145.327 14.0611 145.173 14.0611 144.984C14.0611 144.795 13.9531 144.642 13.8198 144.642C13.6866 144.642 13.5786 144.795 13.5786 144.984C13.5786 145.173 13.6866 145.327 13.8198 145.327Z" fill="black"/>
<path opacity="0.1" d="M13.2971 143.643C13.4303 143.643 13.5383 143.489 13.5383 143.3C13.5383 143.111 13.4303 142.957 13.2971 142.957C13.1639 142.957 13.0559 143.111 13.0559 143.3C13.0559 143.489 13.1639 143.643 13.2971 143.643Z" fill="black"/>
<path opacity="0.1" d="M12.0493 139.846C12.1825 139.846 12.2905 139.693 12.2905 139.503C12.2905 139.314 12.1825 139.161 12.0493 139.161C11.9161 139.161 11.8081 139.314 11.8081 139.503C11.8081 139.693 11.9161 139.846 12.0493 139.846Z" fill="black"/>
<path opacity="0.1" d="M16.433 157.09H9.09424V158.092H16.433V157.09Z" fill="black"/>
<path d="M17.5169 148.181H7.92847V157.744H17.5169V148.181Z" fill="#4B4770"/>
<path opacity="0.1" d="M14.1416 146.868C14.2748 146.868 14.3828 146.715 14.3828 146.526C14.3828 146.336 14.2748 146.183 14.1416 146.183C14.0084 146.183 13.9004 146.336 13.9004 146.526C13.9004 146.715 14.0084 146.868 14.1416 146.868Z" fill="black"/>
<path opacity="0.1" d="M12.6941 147.296C12.8273 147.296 12.9353 147.143 12.9353 146.954C12.9353 146.765 12.8273 146.611 12.6941 146.611C12.5609 146.611 12.4529 146.765 12.4529 146.954C12.4529 147.143 12.5609 147.296 12.6941 147.296Z" fill="black"/>
</g>
<defs>
<linearGradient id="paint0_linear_36_215" x1="75.5386" y1="193.518" x2="75.5386" y2="6.30157" gradientUnits="userSpaceOnUse">
<stop stop-color="#808080" stop-opacity="0.25"/>
<stop offset="0.54" stop-color="#808080" stop-opacity="0.12"/>
<stop offset="1" stop-color="#808080" stop-opacity="0.1"/>
</linearGradient>
<clipPath id="clip0_36_215">
<rect width="180" height="200" fill="white"/>
</clipPath>
</defs>
</svg>
