<svg width="550" height="550" viewBox="0 0 550 550" fill="none" xmlns="http://www.w3.org/2000/svg">
<g clip-path="url(#clip0_1_3)">
<path d="M306.995 541.292C416.295 541.292 504.9 420.12 504.9 270.646C504.9 121.172 416.295 0 306.995 0C197.695 0 109.09 121.172 109.09 270.646C109.09 420.12 197.695 541.292 306.995 541.292Z" fill="#F2F2F2"/>
<path d="M367.481 169.064C395.905 169.064 418.947 137.553 418.947 98.6816C418.947 59.8104 395.905 28.2991 367.481 28.2991C339.057 28.2991 316.015 59.8104 316.015 98.6816C316.015 137.553 339.057 169.064 367.481 169.064Z" fill="#F51643"/>
<path d="M151.726 52.5935L153.132 92.7017C158.964 103.338 165.255 115.51 171.464 128.775L172.35 67.5863L172.839 68.0138C165.657 60.9975 158.357 55.6293 151.236 52.2217L151.726 52.5935Z" fill="#6C63FF"/>
<path d="M152.107 90.8384L150.745 51.9867C142.748 48.2571 134.989 47.0199 127.897 48.7496C127.528 48.8396 127.165 48.9431 126.803 49.0482C128.606 51.6921 139.107 67.3064 152.107 90.8384Z" fill="#6C63FF"/>
<path d="M216.675 138.689L217.147 139.305C215.209 134.32 213.154 129.473 210.984 124.765L197.759 195.926L197.535 195.656C198.491 198.778 199.401 201.878 200.263 204.958L216.675 138.689Z" fill="#6C63FF"/>
<path d="M196.529 98.2329L197.016 98.7659C190.024 87.4369 182.076 77.2803 173.337 68.5082L172.433 130.863C178.211 143.333 183.384 155.615 187.952 167.71L196.529 98.2329Z" fill="#6C63FF"/>
<path d="M100.598 117.7C101.341 128.21 102.859 138.591 105.128 148.684L183.988 159.807C179.871 149.425 175.622 139.685 171.496 130.807L100.799 118.548L100.598 117.7Z" fill="#6C63FF"/>
<path d="M107.997 160.322L107.785 159.476L187.599 169.178C186.634 166.599 185.66 164.054 184.674 161.543L105.522 150.378L105.314 149.531C106.112 153.088 107.006 156.685 107.997 160.322Z" fill="#6C63FF"/>
<path d="M210.085 123.282L210.565 123.86C206.608 115.349 202.235 107.213 197.477 99.507L188.785 169.924C191.797 178.013 194.526 185.988 196.971 193.849L210.085 123.282Z" fill="#6C63FF"/>
<path d="M208.397 240.91C211.569 259.682 212.771 277.43 211.977 293.961C216.441 280.955 233.415 227.077 227.07 176.865L208.397 240.91Z" fill="#6C63FF"/>
<path d="M122.638 198.273C126.862 206.053 131.461 213.437 136.406 220.375L136.214 219.435L207.211 239.409C205.364 228.927 203.059 218.606 200.308 208.501L122.638 198.273Z" fill="#6C63FF"/>
<path d="M151.494 91.4935C137.424 66.0385 126.323 49.9498 126.163 49.7195L126.346 49.1833C115.669 52.4982 108.13 62.4326 103.982 76.812L151.494 91.4935Z" fill="#6C63FF"/>
<path d="M200.92 207.346C201.182 208.304 201.449 209.263 201.702 210.217C204.14 219.352 206.213 228.661 207.911 238.104L226.407 174.666L226.859 175.286C225.688 166.459 223.704 157.87 220.954 149.724C219.863 146.531 218.721 143.385 217.528 140.287L200.92 207.346Z" fill="#6C63FF"/>
<path d="M170.67 129.039C164.525 115.93 158.305 103.904 152.54 93.3929L103.938 78.374L103.773 77.5352C100.739 88.4623 99.6295 101.886 100.548 116.879L170.67 129.039Z" fill="#6C63FF"/>
<path d="M207.498 241.075L137.021 221.247C166.665 262.863 208.139 294.779 210.787 296.797C212.022 278.461 210.621 259.628 207.498 241.075Z" fill="#6C63FF"/>
<path d="M199.809 206.793L199.824 206.729C196.436 194.512 192.568 182.552 188.239 170.904L108.229 161.178C109.587 166.097 111.122 171.069 112.834 176.094C115.328 183.252 118.294 190.085 121.695 196.506L199.809 206.793Z" fill="#6C63FF"/>
<path d="M301.585 187.689L283.963 219.807C283.494 233.086 282.662 247.948 281.257 263.58L310.478 217.226L310.655 217.982C308.396 206.314 305.277 195.811 301.382 186.976L301.585 187.689Z" fill="#6C63FF"/>
<path d="M284.042 217.478L301.113 186.366C296.694 176.519 291.295 168.798 285.026 163.944C284.7 163.692 284.372 163.455 284.044 163.22C284.199 166.829 285.005 188.014 284.042 217.478Z" fill="#6C63FF"/>
<path d="M311.455 310.651L311.531 311.537C312.363 306.007 313.041 300.482 313.565 294.963L270.191 338.235L270.145 337.832C269.425 341.07 268.679 344.251 267.907 347.375L311.455 310.651Z" fill="#6C63FF"/>
<path d="M314.807 261.919L314.933 262.755C314.832 247.931 313.447 233.176 310.808 218.797L281.03 266.034C279.664 280.678 277.92 294.65 275.797 307.95L314.807 261.919Z" fill="#6C63FF"/>
<path d="M231.843 193.238C227.513 201.981 223.841 211.3 220.881 221.052L276.43 298.405C278.102 286.818 279.371 275.609 280.334 265.173L231.602 194.066L231.843 193.238Z" fill="#6C63FF"/>
<path d="M217.662 232.519L217.893 231.682L274.84 308.772C275.301 305.944 275.737 303.134 276.149 300.34L220.394 222.701L220.629 221.867C219.584 225.303 218.595 228.853 217.662 232.519Z" fill="#6C63FF"/>
<path d="M313.565 293.036L313.665 293.9C314.586 283.894 315.013 273.813 314.943 263.728L275.406 310.381C273.954 319.238 272.336 327.761 270.552 335.948L313.565 293.036Z" fill="#6C63FF"/>
<path d="M257.404 382.16C251.092 399.385 243.74 414.103 235.419 426.142C244.923 420.019 283.124 393.328 301.656 349.12L257.404 382.16Z" fill="#6C63FF"/>
<path d="M211.239 274.519C210.864 284.194 210.962 293.893 211.535 303.551L211.825 302.658L257.191 379.969C260.657 370.285 263.695 360.325 266.289 350.144L211.239 274.519Z" fill="#6C63FF"/>
<path d="M283.265 217.448C284.3 185.57 283.253 163.495 283.238 163.179L283.629 162.925C273.859 156.165 263.42 157.241 253.519 164.698L283.265 217.448Z" fill="#6C63FF"/>
<path d="M267.299 349.788C267.055 350.754 266.813 351.726 266.563 352.681C264.18 361.843 261.435 370.821 258.339 379.576L302.171 346.849L302.23 347.72C305.445 339.9 307.922 331.554 309.603 322.882C310.253 319.471 310.84 316.052 311.366 312.626L267.299 349.788Z" fill="#6C63FF"/>
<path d="M280.523 263.09C281.904 247.634 282.722 232.947 283.184 219.823L252.756 165.862L253.02 165.073C245.587 170.842 238.472 180.213 232.187 192.562L280.523 263.09Z" fill="#6C63FF"/>
<path d="M256.635 381.503L211.602 304.758C215.024 362.668 232.082 423.425 233.18 427.288C242.682 414.243 250.387 398.516 256.635 381.503Z" fill="#6C63FF"/>
<path d="M266.701 348.392L266.743 348.357C269.831 335.991 272.431 323.407 274.529 310.659L217.442 233.38C216.194 238.353 215.057 243.522 214.033 248.885C212.615 256.573 211.712 264.423 211.337 272.335L266.701 348.392Z" fill="#6C63FF"/>
<path d="M125.873 230.57L136.277 268.119C144.227 275.77 152.961 284.687 161.864 294.678L148.877 236.11L149.439 236.31C141.023 232.673 132.866 230.654 125.324 230.423L125.873 230.57Z" fill="#6C63FF"/>
<path d="M134.88 266.781L124.803 230.408C116.355 230.241 108.697 232.344 102.343 236.987C102.012 237.228 101.691 237.48 101.37 237.733C103.682 239.486 117.198 249.897 134.88 266.781Z" fill="#6C63FF"/>
<path d="M207.101 284.995L207.689 285.381C204.72 281.46 201.67 277.719 198.542 274.159L202.049 347.425L201.775 347.263C203.39 349.827 204.955 352.392 206.472 354.956L207.101 284.995Z" fill="#6C63FF"/>
<path d="M178.798 255.036L179.382 255.337C170.172 247.518 160.317 241.219 150.024 236.57L163.258 296.254C171.571 305.67 179.267 315.165 186.345 324.736L178.798 255.036Z" fill="#6C63FF"/>
<path d="M91.9653 314.1C95.0474 323.782 98.8369 333.012 103.276 341.652L180.789 318.896C174.527 310.763 168.284 303.296 162.354 296.597L92.3477 314.822L91.9653 314.1Z" fill="#6C63FF"/>
<path d="M108.635 351.508L108.242 350.793L186.34 326.282C184.84 324.236 183.338 322.228 181.833 320.257L104.034 343.097L103.645 342.379C105.207 345.425 106.871 348.468 108.635 351.508Z" fill="#6C63FF"/>
<path d="M197.352 273.128L197.939 273.475C192.252 267.053 186.255 261.164 179.988 255.847L187.637 326.49C192.33 332.909 196.728 339.34 200.83 345.783L197.352 273.128Z" fill="#6C63FF"/>
<path d="M222.333 385.709C229.593 402.221 234.747 418.593 237.729 434.649C239.034 420.394 242.999 361.979 225.616 316.907L222.333 385.709Z" fill="#6C63FF"/>
<path d="M131.137 381.411C136.912 387.025 142.955 392.103 149.227 396.611L148.831 395.798L220.866 384.783C216.74 375.595 212.215 366.754 207.315 358.307L131.137 381.411Z" fill="#6C63FF"/>
<path d="M134.446 267.663C115.311 249.402 101.117 238.794 100.913 238.642L100.966 238.055C91.5606 245.721 86.6366 258.355 85.9419 273.784L134.446 267.663Z" fill="#6C63FF"/>
<path d="M207.636 356.95C208.102 357.749 208.573 358.549 209.029 359.349C213.412 367.006 217.488 374.984 221.237 383.247L224.489 315.097L225.058 315.495C221.949 307.595 218.121 300.265 213.665 293.681C211.906 291.105 210.109 288.596 208.274 286.155L207.636 356.95Z" fill="#6C63FF"/>
<path d="M161.168 295.264C152.361 285.394 143.728 276.587 135.869 269.027L86.2526 275.288L85.9063 274.56C85.4905 286.235 87.4695 299.47 91.7322 313.341L161.168 295.264Z" fill="#6C63FF"/>
<path d="M221.516 386.246L150.008 397.18C187.607 424.228 234.264 437.05 237.237 437.849C234.268 419.89 228.679 402.57 221.516 386.246Z" fill="#6C63FF"/>
<path d="M206.454 356.893L206.455 356.826C200.471 346.639 194.09 336.9 187.339 327.652L109.049 352.223C111.452 356.327 114.036 360.407 116.8 364.462C120.79 370.216 125.155 375.46 129.841 380.129L206.454 356.893Z" fill="#6C63FF"/>
<path d="M550 460.027C550 492.486 427.901 550 277.284 550C126.667 550 4.56726 492.486 4.56726 460.027C4.56726 427.567 126.667 432.454 277.284 432.454C427.901 432.454 550 427.567 550 460.027Z" fill="#3F3D56"/>
<path opacity="0.1" d="M550 460.027C550 492.486 427.901 550 277.284 550C126.667 550 4.56726 492.486 4.56726 460.027C4.56726 427.567 126.667 432.454 277.284 432.454C427.901 432.454 550 427.567 550 460.027Z" fill="black"/>
<path d="M277.284 518.8C427.901 518.8 550 492.486 550 460.027C550 427.567 427.901 401.254 277.284 401.254C126.667 401.254 4.56726 427.567 4.56726 460.027C4.56726 492.486 126.667 518.8 277.284 518.8Z" fill="#3F3D56"/>
<path opacity="0.1" d="M324.565 398.596C324.565 433.96 288.52 423.021 244.388 423.021C200.255 423.021 164.746 433.96 164.746 398.596C164.746 363.233 200.786 355.541 244.918 355.541C289.051 355.541 324.565 363.233 324.565 398.596Z" fill="black"/>
<path d="M324.565 389.889C324.565 425.252 288.52 414.314 244.388 414.314C200.255 414.314 164.746 425.252 164.746 389.889C164.746 354.525 200.786 346.834 244.918 346.834C289.051 346.834 324.565 354.525 324.565 389.889Z" fill="#3F3D56"/>
<path d="M182.592 292.583C183.562 291.638 184.634 290.903 185.768 290.404C192.96 286.745 200.495 284.502 208.149 283.742C214.804 283.096 222.016 283.863 227.214 289.583C228.023 290.394 228.684 291.448 229.148 292.664C229.802 294.594 229.604 296.837 229.392 298.944C229.345 299.761 229.194 300.561 228.947 301.308C228.247 303.129 226.525 303.767 225.029 303.549C223.534 303.331 222.13 302.465 220.655 302.064C219.742 301.846 218.818 301.718 217.892 301.679L208.639 300.994C202.885 300.568 197.055 300.149 191.411 301.737C189.674 302.164 187.995 302.955 186.434 304.083C185.144 305.073 184.276 306.493 183.08 304.665C180.979 301.453 179.815 295.55 182.592 292.583Z" fill="#2F2E41"/>
<path d="M196.93 298.179C196.93 298.179 209.376 290.549 214.097 299.352C218.818 308.156 211.522 304.635 211.522 304.635L203.368 308.156L194.355 305.808L196.93 298.179Z" fill="#F2F2F2"/>
<path d="M197.574 292.603C197.574 292.603 199.291 303.754 198.003 306.689C196.716 309.623 205.299 313.732 205.299 313.732L213.453 309.036C213.453 309.036 211.307 290.842 213.453 287.321L197.574 292.603Z" fill="#FFB9B9"/>
<path opacity="0.1" d="M197.574 292.603C197.574 292.603 199.291 303.754 198.003 306.689C196.716 309.623 205.299 313.732 205.299 313.732L213.453 309.036C213.453 309.036 211.307 290.842 213.453 287.321L197.574 292.603Z" fill="black"/>
<path d="M189.532 426.689C190.686 429.961 191.635 433.361 192.368 436.853C192.38 436.968 192.41 437.078 192.455 437.177C192.501 437.275 192.561 437.36 192.632 437.424C192.703 437.489 192.783 437.532 192.867 437.551C192.951 437.57 193.037 437.565 193.119 437.536L200.753 437.524C201.695 437.523 202.959 437.109 202.949 435.821C202.942 434.915 202.266 434.351 201.762 433.764C200.365 432.133 200.001 429.444 199.422 427.06C198.297 422.467 196.129 418.485 193.235 415.695C192.843 415.276 192.393 414.971 191.912 414.801C191.428 414.705 190.935 414.741 190.461 414.908C189.121 415.278 184.117 416.543 185.063 419.208C185.47 420.356 186.978 421.551 187.61 422.623C188.348 423.888 188.991 425.25 189.532 426.689Z" fill="#575A89"/>
<path d="M216.077 414.581C215.808 415.355 215.509 416.108 215.18 416.837C214.074 419.332 212.769 421.658 211.739 424.213C211.045 425.773 210.616 427.528 210.485 429.345C210.426 430.254 210.528 431.169 210.781 432.013C211.035 432.858 211.433 433.606 211.942 434.196C213.05 435.346 214.569 435.399 215.946 435.131C217.324 434.864 218.693 434.324 220.08 434.466C219.612 430.847 221.844 427.661 222.403 424.066C222.559 423.056 222.583 422.009 222.793 421.017C223.019 420.111 223.308 419.236 223.657 418.405C224.768 415.444 225.554 412.276 225.988 409.002C226.041 408.605 219.203 408.54 218.561 408.729C216.559 409.321 216.852 412.311 216.077 414.581Z" fill="#575A89"/>
<path d="M163.371 357.719C161.419 361.897 161.869 367.434 163.24 372.023C164.611 376.613 166.793 380.67 168.287 385.188C169.239 388.068 169.907 391.122 170.979 393.922C172.307 397.389 174.245 400.445 175.136 404.165C175.704 406.536 175.834 409.134 176.754 411.289C177.311 412.44 177.945 413.517 178.65 414.505C180.631 417.609 182.119 421.244 183.019 425.177C183.859 421.751 186.377 419.505 188.963 418.764C191.549 418.024 194.229 418.527 196.845 419.032C195.386 415.94 193.912 412.809 193.042 409.327C192.201 405.959 191.953 402.376 191.386 398.902C190.224 391.779 187.741 385.209 185.283 378.73L197.916 377.36C199.978 377.076 202.051 376.971 204.123 377.045C207.384 377.255 210.578 378.348 213.822 378.853C217.065 379.359 220.496 379.226 223.387 377.152C217.86 387.997 214.981 400.954 215.163 414.171C216.398 412.862 217.832 411.947 219.359 411.494C220.886 411.041 222.468 411.06 223.989 411.551C225.51 412.042 226.932 412.992 228.15 414.331C229.368 415.67 230.351 417.365 231.028 419.291C235.979 410.039 235.39 397.159 239.313 387.026C240.12 384.943 241.109 383.002 241.979 380.968C243.624 376.881 245.033 372.625 246.192 368.237C247.289 364.399 248.394 360.128 247.342 356.266C246.905 354.801 246.269 353.463 245.466 352.322C243.203 348.909 240.052 346.385 236.684 346.28C231.514 346.118 227.242 351.36 222.707 354.759C217.292 358.694 211.167 360.431 205.055 359.765C198.824 359.161 192.874 356.372 186.939 353.916C183.969 352.631 180.951 351.566 177.897 350.727C175.352 350.074 172.928 350.797 170.419 351.687C167.688 352.657 164.943 354.355 163.371 357.719Z" fill="#2F2E41"/>
<path d="M217.315 281.452C217.313 286.12 215.955 290.597 213.541 293.898C211.127 297.199 207.854 299.055 204.441 299.059C203.673 299.061 202.908 298.966 202.153 298.777C199.744 298.182 197.508 296.66 195.709 294.389C193.91 292.118 192.621 289.192 191.995 285.955C191.369 282.718 191.43 279.304 192.173 276.113C192.915 272.922 194.307 270.087 196.186 267.94C198.065 265.793 200.353 264.424 202.781 263.992C205.209 263.56 207.676 264.084 209.894 265.502C212.112 266.921 213.989 269.174 215.303 271.999C216.617 274.824 217.316 278.103 217.315 281.452Z" fill="#FFB9B9"/>
<path d="M196.93 298.179C196.93 298.179 199.291 299.646 200.149 300.82C201.007 301.994 203.582 308.45 207.874 304.341C212.166 300.233 212.595 297.885 213.882 297.885C215.17 297.885 216.886 301.407 216.886 301.407L228.688 349.826C225.508 354.736 221.821 358.987 217.745 362.445C210.878 368.314 202.724 371.248 198.862 368.901C194.999 366.553 187.703 364.792 186.416 360.097C185.128 355.402 182.982 341.316 182.982 341.316L188.991 305.515L196.93 298.179Z" fill="#F2F2F2"/>
<path d="M195.273 347.149C196.209 344.385 196.345 341.257 196.424 338.213C196.55 335.198 196.492 332.175 196.249 329.173C195.869 325.247 194.934 321.465 194.344 317.588C193.826 314.188 193.575 310.722 193.593 307.248C193.602 305.664 193.686 303.995 194.317 302.666C194.758 301.739 195.447 301.021 195.722 299.982C196.262 297.943 194.928 295.809 193.467 294.969C191.686 294.057 189.739 293.95 187.911 294.664C186.098 295.381 184.346 296.361 182.685 297.588C181.43 298.32 180.275 299.341 179.271 300.606C177.939 302.492 177.353 305.117 176.88 307.658C176.501 309.691 176.165 311.812 176.453 313.873C176.921 317.22 178.916 319.737 179.979 322.818C181.214 326.397 181.131 330.566 180.64 334.466C180.149 338.365 179.277 342.178 179.008 346.117C178.739 350.057 179.152 354.292 180.957 357.384C181.692 358.645 183.687 361.631 185.034 361.293C186.091 361.028 187.625 357.844 188.477 356.834C190.939 353.918 193.86 351.325 195.273 347.149Z" fill="#2F2E41"/>
<path d="M217.758 296.265C217.796 299.538 216.741 302.649 215.5 305.449C214.259 308.249 212.802 310.896 211.887 313.922C210.751 317.709 210.519 321.891 211.224 325.869C211.487 327.224 211.803 328.559 212.171 329.867L214.523 338.688C214.839 340.074 215.298 341.393 215.886 342.603C216.418 343.529 217.041 344.35 217.739 345.04C219.525 347.013 221.581 348.479 223.785 349.354C226.006 350.222 228.375 350.038 230.509 348.83C230.735 336.872 232.14 325.011 234.685 313.567C235.155 311.455 235.669 309.231 235.306 307.079C234.9 304.669 233.484 302.859 232.139 301.206C228.023 296.152 223.497 290.843 217.988 290.162C214.8 289.767 217.731 293.898 217.758 296.265Z" fill="#2F2E41"/>
<path d="M189.595 364.501C189.921 365.375 190.124 366.326 190.447 367.203C190.923 368.378 191.512 369.461 192.198 370.423C195.068 374.774 198.575 379.109 202.855 379.371C203.281 379.426 203.709 379.352 204.112 379.155C204.474 378.902 204.785 378.531 205.018 378.075C205.251 377.62 205.399 377.093 205.448 376.541C205.752 374.268 205.018 372 204.284 369.92C202.692 365.41 200.9 360.786 197.919 357.878C196.431 356.483 194.731 355.568 192.946 355.201C191.162 354.834 189.34 355.024 187.617 355.758C186.065 356.412 183.49 357.555 185.546 359.492C187.105 360.962 188.69 362.081 189.595 364.501Z" fill="#FFB9B9"/>
<path d="M208.097 307.089C207.651 305.439 206.966 303.929 206.083 302.648C205.193 301.619 204.14 300.889 203.007 300.516C201.539 299.943 200.02 299.645 198.494 299.632C196.676 299.616 194.569 300.283 193.797 302.533C193.184 304.32 193.659 306.437 194.276 308.221C194.54 309.145 194.979 309.957 195.548 310.571C196.332 311.296 197.346 311.273 198.275 311.515C199.716 312.015 201.08 312.861 202.305 314.013L205.489 316.644L210.957 321.164C210.812 321.045 210.864 315.917 210.696 315.077C210.155 312.369 208.937 309.653 208.097 307.089Z" fill="#FFB9B9"/>
<path d="M192.169 435.524C190.89 437.901 191.146 441.3 190.013 443.813C189.031 445.991 187.179 447.133 185.95 449.063C185.558 449.704 185.209 450.392 184.906 451.118C183.766 453.729 182.839 457.075 183.962 459.7C184.865 461.812 186.763 462.637 188.504 463.2C190.705 463.911 192.991 464.48 195.217 463.937C197.443 463.393 199.618 461.529 200.412 458.634C200.568 457.906 200.753 457.19 200.967 456.491C202.174 453.242 205.958 453.207 207.192 449.979C208.056 447.72 207.262 444.989 206.468 442.683L204.043 435.637C203.239 433.299 199.976 434.644 198.276 434.084C196.058 433.353 193.765 432.548 192.169 435.524Z" fill="#2F2E41"/>
<path d="M210.925 429.471C209.932 430.541 209.173 431.963 208.731 433.582C207.531 437.368 207.119 441.519 206.719 445.609C206.491 447.236 206.467 448.905 206.65 450.543C207.167 453.883 209.38 456.343 211.763 457.364C214.145 458.386 216.7 458.228 219.194 458.061C219.999 458.089 220.798 457.867 221.53 457.412C222.784 456.467 223.273 454.246 223.058 452.311C222.844 450.376 222.07 448.654 221.314 446.993C220.557 445.331 219.783 443.61 219.567 441.676C219.202 438.422 220.231 433.644 218.769 430.7C217.304 427.75 212.881 427.597 210.925 429.471Z" fill="#2F2E41"/>
<path d="M216.992 272.276C216.763 271.223 216.258 270.322 215.574 269.746C215.61 268.618 215.508 267.49 215.275 266.407C214.495 263.255 212.648 263.435 210.905 262.042C210.149 261.437 210.196 260.902 209.802 259.909C209.287 258.607 208.514 257.529 207.573 256.798C206.455 255.824 205.274 254.821 203.952 254.697C201.172 254.438 199.041 258.014 196.384 259.161C195.213 259.667 193.955 259.688 192.777 260.166C191.6 260.644 190.426 261.786 190.25 263.448C190.169 264.215 190.312 265.002 190.23 265.77C190.067 267.294 189.089 268.362 188.434 269.616C186.986 272.39 187.151 276.308 188.309 279.325C188.553 279.95 188.833 280.547 189.144 281.112C189.241 282.538 189.54 283.925 190.026 285.194C191.184 288.212 193.177 290.467 195.258 292.34C195.088 291.339 194.984 290.319 194.949 289.293C194.92 288.951 194.953 288.604 195.044 288.283C195.276 287.621 195.889 287.444 196.356 287.081C197.323 286.33 197.702 284.666 197.73 283.145C197.758 281.624 197.523 280.1 197.639 278.587C197.644 278.239 197.701 277.896 197.809 277.581C197.916 277.265 198.071 276.984 198.263 276.755C198.62 276.476 199.027 276.343 199.438 276.372C201.42 276.261 203.491 276.211 205.239 274.929C205.803 274.417 206.409 273.998 207.045 273.68C208.53 273.151 210.049 274.575 210.905 276.318C211.761 278.061 212.188 280.135 212.978 281.935C213.768 283.736 215.133 285.341 216.661 285.128C216.747 285.128 216.832 285.104 216.91 285.056C216.989 285.008 217.059 284.938 217.117 284.851C217.183 284.689 217.212 284.504 217.201 284.319L217.286 276.334C217.357 274.968 217.257 273.596 216.992 272.276Z" fill="#2F2E41"/>
<path d="M176.246 314.043C175.018 316.522 173.602 318.905 172.926 321.753C172.53 323.427 172.406 325.196 172.119 326.912C171.162 332.625 168.397 337.7 168.119 343.549C168.022 344.849 168.161 346.161 168.525 347.369C169.319 349.729 171.217 350.972 173.027 351.754C174.838 352.536 176.782 353.1 178.228 354.784C178.955 355.738 179.615 356.784 180.198 357.908C182.556 361.919 185.728 364.887 189.316 366.439C189.032 363.769 188.899 360.55 190.46 358.899C191.305 358.006 192.434 357.847 193.499 357.721L198.527 357.127C195.174 352.679 191.478 348.741 187.504 345.383C186.114 344.209 184.6 342.97 183.965 340.91C183.637 339.583 183.501 338.181 183.564 336.783C183.53 331.669 183.213 326.565 182.617 321.516C182.203 318.01 181.655 314.536 181.028 311.09C180.852 310.122 179.812 305.782 178.532 306.798C178.23 307.037 177.948 309.79 177.772 310.361C177.353 311.654 176.842 312.887 176.246 314.043Z" fill="#2F2E41"/>
<path d="M234.162 304.678L236.216 310.518C237.205 312.919 237.655 315.666 237.51 318.415L237.632 335.935C237.727 338.275 237.585 340.623 237.211 342.911C237.083 343.665 236.842 344.374 236.503 344.994C236.155 345.528 235.744 345.98 235.288 346.332C231.402 349.653 226.362 351.54 222.256 348.757C221.316 348.072 220.422 347.274 219.585 346.372C217.948 344.715 216.288 343.025 215.063 340.8C213.782 338.471 213.048 335.682 212.186 333.017C210.639 328.235 208.64 323.752 206.24 319.681C205.843 319.143 205.584 318.442 205.504 317.685C205.479 316.15 206.811 315.394 207.85 314.809C209.624 313.811 211.298 311.885 211.595 309.293C215.368 316.06 219.533 323.211 225.488 325.684C225.581 325.766 225.689 325.811 225.8 325.816C225.91 325.82 226.02 325.784 226.117 325.71C226.214 325.637 226.294 325.529 226.35 325.398C226.406 325.267 226.434 325.117 226.433 324.966C226.771 323.032 226.89 321.04 227.138 319.08C227.591 315.512 228.465 312.067 229.724 308.881C230.429 307.094 232.713 300.555 234.162 304.678Z" fill="#2F2E41"/>
<path opacity="0.1" d="M183.205 321.567C183.262 325.713 182.618 329.821 181.323 333.57C180.986 334.399 180.738 335.29 180.586 336.215C180.361 338.188 181.182 340.098 182.121 341.628C183.972 344.637 186.373 346.922 189.08 348.249" fill="black"/>
<path opacity="0.1" d="M227.796 318.073C227.493 319.185 227.768 320.416 228.001 321.559C228.677 324.876 228.993 328.311 228.938 331.753C228.947 331.814 228.946 331.876 228.934 331.935C228.921 331.995 228.899 332.049 228.867 332.093C228.836 332.137 228.796 332.17 228.753 332.188C228.71 332.207 228.665 332.21 228.62 332.198C227.63 332.281 226.496 332.29 225.824 331.291" fill="black"/>
<path opacity="0.1" d="M396.133 483.971C433.054 483.971 462.985 475.2 462.985 464.38C462.985 453.56 433.054 444.789 396.133 444.789C359.211 444.789 329.28 453.56 329.28 464.38C329.28 475.2 359.211 483.971 396.133 483.971Z" fill="black"/>
<path d="M429.559 289.512L424.784 296.042L429.559 302.573L434.334 289.512H429.559Z" fill="#A0616A"/>
<path d="M430.634 232.887C431.974 233.637 432.612 235.687 433.117 237.543L439.311 260.306L440.517 264.736C441.108 266.909 441.7 269.084 442.2 271.299C442.516 272.7 442.795 274.116 443.038 275.546C443.289 276.769 443.385 278.043 443.323 279.311C443.156 280.706 442.783 282.04 442.228 283.233C440.073 288.366 437.004 292.671 433.306 295.747C433.093 293.865 432.538 292.086 431.692 290.573C430.846 289.06 429.736 287.862 428.464 287.087L431.667 284.678C432.345 284.243 432.954 283.632 433.462 282.88C433.772 282.293 433.993 281.627 434.111 280.921C434.228 280.215 434.241 279.483 434.148 278.771C433.955 277.348 433.636 275.964 433.197 274.648C432.122 270.98 431.19 267.237 430.403 263.435C429.938 261.186 429.51 258.874 428.588 256.906C427.752 255.121 426.541 253.693 425.781 251.845C424.622 249.028 424.652 245.56 425.164 242.405C425.595 239.741 426.32 237.178 426.929 234.585C427.407 232.547 429.199 232.084 430.634 232.887Z" fill="#D0CDE1"/>
<path d="M401.101 172.07C398.638 173.208 396.406 175.868 395.902 179.356C395.668 180.973 395.812 182.653 395.615 184.279C395.159 188.05 392.994 190.93 390.998 193.605C389.001 196.28 386.94 199.388 386.794 203.205C386.635 207.385 388.851 211.3 388.468 215.453C388.022 220.277 384.296 223.403 383.375 228.1C382.76 231.236 383.514 234.614 384.754 237.383C387.116 242.659 391.155 246.242 395.456 248.162C399.757 250.082 404.338 250.486 408.862 250.551C414.37 250.63 420.351 249.983 424.49 245.011C426.855 242.146 428.339 238.164 428.647 233.865C429.04 228.105 427.282 222.154 428.495 216.613C429.258 213.125 431.171 209.94 430.886 206.321C430.607 202.782 428.346 200.274 426.796 197.415C425.348 194.746 424.47 191.593 423.609 188.486L420.663 177.852C420.084 175.762 419.448 173.564 418.158 172.192C415.742 169.623 411.857 170.128 409.032 170.658C406.412 171.149 403.621 170.906 401.101 172.07Z" fill="#2F2E41"/>
<path d="M403.38 207.113C403.38 207.113 403.668 218.942 402.803 220.125C401.938 221.308 406.263 229.194 406.263 229.194L414.048 228.799L418.084 224.462L414.624 218.153C414.624 218.153 413.183 207.902 414.336 205.536C415.489 203.17 403.38 207.113 403.38 207.113Z" fill="#A0616A"/>
<path opacity="0.1" d="M403.38 207.113C403.38 207.113 403.668 218.942 402.803 220.125C401.938 221.308 406.263 229.194 406.263 229.194L414.048 228.799L418.084 224.462L414.624 218.153C414.624 218.153 413.183 207.902 414.336 205.536C415.489 203.17 403.38 207.113 403.38 207.113Z" fill="black"/>
<path d="M385.359 298.393L390.261 313.376L394.009 307.067L386.513 293.661L385.359 298.393Z" fill="#A0616A"/>
<path d="M372.241 448.423L370.223 463.801L366.763 470.504L368.781 472.081L372.241 471.292L376.278 469.32L378.007 460.252L381.179 448.423H372.241Z" fill="#A0616A"/>
<path d="M409.146 438.959L407.993 461.041L410.876 464.195L415.489 458.674V442.508L409.146 438.959Z" fill="#A0616A"/>
<path d="M408.137 211.647C413.87 211.647 418.517 205.292 418.517 197.453C418.517 189.613 413.87 183.258 408.137 183.258C402.405 183.258 397.757 189.613 397.757 197.453C397.757 205.292 402.405 211.647 408.137 211.647Z" fill="#A0616A"/>
<path d="M416.146 216.545C415.835 216.34 415.496 216.229 415.151 216.22C414.806 216.211 414.463 216.304 414.147 216.492C413.517 216.873 412.906 217.309 412.316 217.796C410.801 218.874 409.084 219.301 407.389 219.022C407.189 219.001 406.995 218.933 406.813 218.819C406.62 218.655 406.443 218.46 406.285 218.237C405.67 217.554 404.886 217.224 404.097 217.317C403.308 217.41 402.576 217.919 402.056 218.735C401.751 219.255 401.542 219.875 401.209 220.362C400.348 221.622 398.926 221.673 397.664 221.669C395.049 221.57 392.435 221.898 389.876 222.646C387.306 223.404 384.939 225.119 383.037 227.602C382.518 228.269 382.104 229.076 381.822 229.971C381.474 231.197 381.52 232.576 381.207 233.82C380.859 235.206 380.087 236.343 379.775 237.745C379.54 238.801 379.573 239.976 379.179 240.94C380.864 242.934 382.292 245.594 383.977 247.588C385.092 248.909 386.261 250.337 386.68 252.272C386.868 253.465 386.952 254.684 386.929 255.904C387.138 261.736 389.451 267.027 392.037 271.673C392.747 273.051 393.595 274.285 394.558 275.336C395.865 276.553 397.35 277.369 398.91 277.726C401.855 278.55 404.887 278.545 407.894 278.504C411.001 278.462 414.162 278.372 417.116 277.052C418.619 276.478 419.971 275.33 421.014 273.742C422.228 271.701 422.702 268.75 424.36 267.413C424.761 267.162 425.141 266.851 425.493 266.487C425.831 265.986 426.07 265.376 426.188 264.715C426.767 262.238 427.087 259.662 427.137 257.062C427.094 255.502 427.171 253.941 427.367 252.403C427.654 251.048 428.072 249.751 428.609 248.547L432.044 240.029C432.323 239.336 432.25 238.318 432.276 237.528C432.25 236.389 431.994 235.282 431.537 234.33C429.309 228.946 425.81 224.757 421.613 222.449C421.282 222.296 420.967 222.085 420.675 221.821C420.332 221.427 420.041 220.953 419.817 220.421C418.906 218.543 417.792 216.427 416.146 216.545Z" fill="#D0CDE1"/>
<path d="M373.342 262.936C372.665 265.188 372.167 267.534 371.859 269.932C371.527 273.245 371.918 276.618 372.982 279.629C374.832 284.839 378.476 288.373 381.048 292.975C383.438 297.251 384.861 302.377 386.93 306.955C386.569 305.789 387.007 304.44 387.598 303.466C388.188 302.491 388.943 301.683 389.376 300.565C389.671 299.699 389.856 298.77 389.924 297.82C390.233 294.981 390.4 291.897 389.341 289.418C388.545 287.553 387.169 286.314 386.079 284.749C384.99 283.158 384.189 281.238 383.742 279.146C383.294 277.053 383.212 274.846 383.503 272.702C383.713 271.227 384.098 269.81 384.387 268.359C384.745 266.41 385.015 264.433 385.198 262.438L386.496 250.243C386.841 246.999 387.133 243.41 385.79 240.695C385.528 240.126 385.166 239.658 384.736 239.331C384.381 239.109 384.003 238.963 383.615 238.899C382.202 238.584 380.288 237.737 379.598 239.808C378.765 242.307 378.185 245.031 377.488 247.608L373.342 262.936Z" fill="#D0CDE1"/>
<path d="M422.826 269.609C422.826 269.609 405.686 274.143 401.65 274.143H394.442C394.442 274.143 391.847 280.452 391.847 286.761C391.847 293.07 374.836 381.392 374.836 381.392C374.836 381.392 358.69 453.943 376.566 454.337C394.442 454.732 405.686 455.915 405.975 447.634C406.263 439.354 407.993 332.5 407.993 332.5L410.684 387.444C411.408 401.046 410.635 414.719 408.393 428.008C407.102 435.458 407.302 443.626 413.759 445.269C426.157 448.423 441.727 445.663 441.727 439.748C441.727 433.834 433.654 302.533 433.654 302.533C433.654 302.533 429.617 283.212 427.311 281.635C425.004 280.058 422.826 269.609 422.826 269.609Z" fill="#2F2E41"/>
<path d="M369.069 469.715L375.412 466.561L379.737 451.577L384.35 450.789C384.35 450.789 381.756 458.28 380.314 459.463C378.872 460.646 376.566 470.504 376.566 470.504C376.566 470.504 377.719 474.447 372.241 476.024C366.763 477.601 362.726 478.784 362.726 478.784C362.726 478.784 362.15 477.207 364.744 473.264C367.339 469.321 370.369 462.683 370.369 462.683L369.069 469.715Z" fill="#2F2E41"/>
<path d="M407.993 451.577L406.84 463.406C406.84 463.406 410.011 469.715 410.876 469.715C411.741 469.715 416.354 464.195 416.354 464.195C416.354 464.195 416.066 458.28 416.354 456.703C416.643 455.126 417.219 447.634 416.354 447.24C415.489 446.846 415.489 456.028 415.489 456.028L411.741 461.435L408.127 458.471L407.993 451.577Z" fill="#2F2E41"/>
<path d="M409.002 197.453C415.212 197.453 420.247 193.745 420.247 189.172C420.247 184.599 415.212 180.892 409.002 180.892C402.792 180.892 397.757 184.599 397.757 189.172C397.757 193.745 402.792 197.453 409.002 197.453Z" fill="#2F2E41"/>
<path d="M0 351.666C0 398.115 21.3081 435.702 47.6409 435.702L0 351.666Z" fill="#3F3D56"/>
<path d="M47.6409 435.702C47.6409 388.73 71.4195 350.721 100.805 350.721L47.6409 435.702Z" fill="#6C63FF"/>
<path d="M17.2612 355.876C17.2612 399.999 30.849 435.702 47.641 435.702L17.2612 355.876Z" fill="#6C63FF"/>
<path d="M47.6409 435.702C47.6409 375.683 75.1253 327.116 109.091 327.116L47.6409 435.702Z" fill="#3F3D56"/>
<path d="M37.6185 436.294C37.6185 436.294 44.3748 436.01 46.411 434.027C48.4471 432.044 56.8038 429.676 57.3089 432.856C57.8141 436.036 67.4623 448.673 59.8345 448.757C52.2068 448.841 42.111 447.132 40.0787 445.439C38.0465 443.746 37.6185 436.294 37.6185 436.294Z" fill="#A8A8A8"/>
<path opacity="0.2" d="M59.9707 447.65C52.3429 447.734 42.2471 446.025 40.2148 444.332C38.6671 443.043 38.0504 438.417 37.8441 436.282C37.7012 436.291 37.6185 436.294 37.6185 436.294C37.6185 436.294 38.0465 443.746 40.0787 445.439C42.111 447.132 52.2068 448.841 59.8346 448.757C62.0364 448.732 62.7969 447.661 62.7552 446.074C62.4493 447.033 61.6095 447.632 59.9707 447.65Z" fill="black"/>
</g>
<defs>
<clipPath id="clip0_1_3">
<rect width="550" height="550" fill="white"/>
</clipPath>
</defs>
</svg>
