<svg width="338" height="406" viewBox="0 0 338 406" fill="none" xmlns="http://www.w3.org/2000/svg">
<path d="M209.485 242.943C204.166 236.173 200.935 225.477 201.782 215.065C202.63 204.653 207.878 195.081 214.685 192.87C221.493 190.659 229.253 196.779 231.321 206.796C232.458 187.484 233.77 167.362 240.586 150.916C246.758 136.024 257.448 125.369 269.034 123.462C280.62 121.556 292.818 128.756 300.043 142.531C307.269 156.305 309.038 176.33 303.977 192.145C300.25 203.795 293.381 212.464 286.185 219.518C262.932 242.118 235.042 251.309 207.648 245.399L209.485 242.943Z" fill="#F2F2F2"/>
<path d="M288.587 129.155C279.027 140.884 270.257 154.002 262.404 168.319C250.113 190.649 240.167 215.684 232.913 242.553C232.382 244.514 234.495 245.367 235.02 243.428C246.89 199.76 265.838 161.272 290.132 131.483C291.223 130.144 289.668 127.828 288.587 129.155Z" fill="white"/>
<path d="M99.215 351.165C98.1315 351.406 97.045 351.622 95.9557 351.811C69.5825 356.331 42.9837 346.958 20.6786 325.284C13.4837 318.233 6.61391 309.563 2.88664 297.909C-2.17582 282.096 -0.403194 262.073 6.82215 248.297C9.45262 243.324 12.6944 239.161 16.3704 236.036C16.9166 235.559 17.4713 235.115 18.0347 234.691C24.1505 230.057 31.02 228.16 37.8293 229.226C49.4145 231.133 60.1072 241.794 66.2791 256.68C73.0926 273.126 74.4058 293.248 75.5414 312.56C75.6324 312.116 75.7365 311.678 75.8491 311.254C76.089 310.344 76.379 309.466 76.716 308.629V340.712C76.718 343.308 77.4037 345.797 78.6225 347.633C79.8413 349.469 81.4937 350.502 83.2173 350.505H98.7209L99.215 351.165Z" fill="#F2F2F2"/>
<path d="M18.2773 234.922C27.8369 246.651 36.6068 259.768 44.4602 274.086C52.3149 288.388 59.23 303.804 65.1086 320.118C68.3944 329.269 71.3462 338.684 73.9507 348.32C74.4817 350.28 72.3686 351.134 71.8435 349.195C67.2303 332.207 61.523 315.941 54.8032 300.63C48.1161 285.374 40.4624 271.131 31.9495 258.102C27.1346 250.736 22.0544 243.775 16.7321 237.249C15.6412 235.911 17.1953 233.595 18.2772 234.922H18.2773Z" fill="white"/>
<path d="M226.03 277.383H113.557V258.776C113.557 257.131 113.123 255.553 112.351 254.39C111.579 253.227 110.531 252.573 109.439 252.573C108.347 252.573 107.3 253.227 106.528 254.39C105.756 255.553 105.322 257.131 105.322 258.776V283.585C105.325 285.229 105.76 286.803 106.531 287.965C107.303 289.128 108.348 289.783 109.439 289.787H226.03C227.122 289.787 228.17 289.134 228.942 287.971C229.714 286.808 230.148 285.23 230.148 283.585C230.148 281.94 229.714 280.362 228.942 279.199C228.17 278.036 227.122 277.383 226.03 277.383Z" fill="#F2F2F2"/>
<path d="M299.495 350.505H55.4777C53.5244 350.509 51.6519 351.68 50.2707 353.761C48.8895 355.841 48.1123 358.662 48.1095 361.604V394.901C48.1123 397.843 48.8895 400.664 50.2707 402.744C51.6519 404.825 53.5244 405.996 55.4777 406H299.495C301.448 405.996 303.321 404.825 304.702 402.744C306.083 400.664 306.861 397.843 306.863 394.901V361.604C306.861 358.662 306.083 355.841 304.702 353.761C303.321 351.68 301.448 350.509 299.495 350.505ZM305.996 394.901C305.994 397.497 305.309 399.986 304.09 401.822C302.871 403.658 301.219 404.691 299.495 404.694H55.4777C53.7541 404.691 52.1016 403.658 50.8829 401.822C49.6641 399.986 48.9784 397.497 48.9763 394.901V361.604C48.9784 359.008 49.6641 356.519 50.8829 354.683C52.1016 352.847 53.7541 351.814 55.4777 351.811H299.495C301.219 351.814 302.871 352.847 304.09 354.683C305.309 356.519 305.994 359.008 305.996 361.604V394.901Z" fill="#3F3D56"/>
<path d="M287.577 385.761H61.9796V367.154C61.9796 365.509 61.5458 363.931 60.7736 362.768C60.0014 361.605 58.9541 360.951 57.862 360.951C56.77 360.951 55.7227 361.605 54.9505 362.768C54.1783 363.931 53.7445 365.509 53.7445 367.154V391.963C53.7477 393.607 54.1825 395.181 54.954 396.344C55.7255 397.506 56.771 398.161 57.862 398.165H287.577C288.669 398.165 289.716 397.512 290.488 396.349C291.26 395.186 291.694 393.608 291.694 391.963C291.694 390.318 291.26 388.741 290.488 387.577C289.716 386.414 288.669 385.761 287.577 385.761Z" fill="#F2F2F2"/>
<path d="M247.268 328.307H90.152V309.7C90.152 308.055 89.7182 306.478 88.9461 305.314C88.1739 304.151 87.1266 303.498 86.0345 303.498C84.9425 303.498 83.8952 304.151 83.123 305.314C82.3508 306.478 81.917 308.055 81.917 309.7V334.51C81.9202 336.153 82.355 337.728 83.1265 338.89C83.898 340.052 84.9435 340.707 86.0345 340.712H247.268C248.36 340.712 249.407 340.059 250.18 338.895C250.952 337.732 251.386 336.155 251.386 334.51C251.386 332.865 250.952 331.287 250.18 330.124C249.407 328.961 248.36 328.307 247.268 328.307Z" fill="#F2F2F2"/>
<path d="M262.619 371.443C227.946 358.385 154.264 376.666 152.963 376.666C151.693 376.666 71.0852 394.718 73.7421 351.811C73.7681 351.38 73.8028 350.949 73.8461 350.505H290.224C290.276 350.89 290.328 351.328 290.376 351.811C291.212 360.318 290.801 382.059 262.619 371.443Z" fill="#6C63FF"/>
<path d="M272.19 296.316H83.2168C81.2635 296.32 79.391 297.491 78.0098 299.572C76.6286 301.652 75.8514 304.473 75.8486 307.415V340.712C75.8531 343.654 76.6309 346.473 78.0117 348.553C79.3925 350.633 81.264 351.804 83.2168 351.811H272.19C274.141 351.8 276.011 350.627 277.392 348.548C278.772 346.469 279.55 343.652 279.558 340.712V307.415C279.555 304.473 278.778 301.652 277.397 299.572C276.015 297.491 274.143 296.32 272.19 296.316ZM278.691 340.712C278.687 343.308 278.001 345.796 276.783 347.631C275.564 349.466 273.913 350.5 272.19 350.505H83.2168C81.4936 350.5 79.842 349.467 78.6235 347.631C77.405 345.796 76.7189 343.308 76.7155 340.712V307.415C76.7176 304.819 77.4032 302.33 78.622 300.494C79.8408 298.658 81.4932 297.625 83.2168 297.622H272.19C273.913 297.625 275.566 298.658 276.784 300.494C278.003 302.33 278.689 304.819 278.691 307.415V340.712Z" fill="#3F3D56"/>
<path d="M248.148 314.663C217.841 303.25 153.439 319.228 152.302 319.228C151.192 319.228 80.7364 335.006 83.0586 297.503C83.0814 297.126 83.1117 296.75 83.1496 296.362H272.276C272.322 296.698 272.367 297.081 272.409 297.503C273.14 304.939 272.78 323.942 248.148 314.663Z" fill="#6C63FF"/>
<path d="M248.785 296.969H106.189C104.235 296.966 102.362 295.795 100.981 293.715C99.5997 291.634 98.8227 288.813 98.8206 285.87V252.573C98.8227 249.631 99.5997 246.809 100.981 244.729C102.362 242.648 104.235 241.478 106.189 241.474H248.785C250.739 241.478 252.611 242.648 253.993 244.729C255.374 246.809 256.151 249.631 256.153 252.573V285.87C256.151 288.813 255.374 291.634 253.993 293.715C252.611 295.795 250.739 296.966 248.785 296.969ZM106.189 242.78C104.465 242.783 102.813 243.816 101.594 245.652C100.375 247.488 99.6894 249.977 99.6874 252.573V285.87C99.6894 288.467 100.375 290.956 101.594 292.792C102.813 294.628 104.465 295.66 106.189 295.663H248.785C250.509 295.66 252.161 294.628 253.38 292.792C254.599 290.956 255.285 288.467 255.286 285.87V252.573C255.285 249.977 254.599 247.488 253.38 245.652C252.161 243.816 250.509 242.783 248.785 242.78H106.189Z" fill="#3F3D56"/>
<path d="M231.743 255.578C208.503 246.827 159.119 259.079 158.247 259.079C157.396 259.079 103.369 271.178 105.15 242.42C105.168 242.131 105.191 241.842 105.22 241.545H250.244C250.279 241.803 250.314 242.096 250.346 242.42C250.907 248.122 250.631 262.693 231.743 255.578Z" fill="#6C63FF"/>
<path d="M177.669 244.784C185.807 244.784 192.405 243.907 192.405 242.826C192.405 241.744 185.807 240.867 177.669 240.867C169.53 240.867 162.932 241.744 162.932 242.826C162.932 243.907 169.53 244.784 177.669 244.784Z" fill="#3F3D56"/>
<path d="M176.837 170.125C176.825 170.486 176.832 170.848 176.858 171.207L160.394 192.022L155.484 189.344L151.832 199.978L162.567 207.675L180.567 177.248C181.476 177.497 182.413 177.322 183.255 176.748C184.096 176.175 184.802 175.228 185.278 174.036C185.754 172.843 185.977 171.461 185.919 170.072C185.86 168.683 185.523 167.354 184.951 166.262C184.378 165.169 183.599 164.365 182.716 163.956C181.833 163.547 180.888 163.553 180.008 163.972C179.127 164.391 178.352 165.205 177.785 166.304C177.219 167.403 176.888 168.736 176.837 170.125V170.125Z" fill="#FFB8B8"/>
<path d="M154.755 205.078L138.855 196.433C138.132 196.041 137.467 195.438 136.898 194.658C136.33 193.879 135.869 192.938 135.542 191.89C135.215 190.842 135.028 189.707 134.992 188.55C134.956 187.394 135.072 186.238 135.333 185.148C135.594 184.059 135.995 183.058 136.513 182.202C137.031 181.346 137.656 180.653 138.352 180.161C139.048 179.669 139.802 179.389 140.57 179.336C141.338 179.283 142.105 179.459 142.828 179.853L158.728 188.498C158.969 188.628 159.19 188.83 159.379 189.089C159.569 189.349 159.722 189.663 159.831 190.012C159.94 190.361 160.002 190.739 160.014 191.125C160.026 191.51 159.987 191.895 159.9 192.258L157.251 203.312C157.075 204.044 156.713 204.641 156.245 204.973C155.777 205.304 155.241 205.342 154.755 205.078Z" fill="#2F2E41"/>
<path d="M176.403 153.988C176.288 153.988 176.178 153.92 176.097 153.797C176.016 153.675 175.97 153.509 175.97 153.335V129.179C175.97 129.006 176.016 128.84 176.097 128.717C176.178 128.595 176.288 128.526 176.403 128.526C176.518 128.526 176.629 128.595 176.71 128.717C176.791 128.84 176.837 129.006 176.837 129.179V153.335C176.837 153.509 176.791 153.675 176.71 153.797C176.629 153.92 176.518 153.988 176.403 153.988Z" fill="#3F3D56"/>
<path d="M183.772 123.956C187.805 129.601 182.776 141.584 177.27 141.584C174.626 141.584 172.091 140.002 170.221 137.185C168.352 134.369 167.302 130.55 167.302 126.567C167.302 118.274 178.076 81.6904 175.97 89.3532C175.298 91.7992 179.153 117.491 183.772 123.956Z" fill="#FF6584"/>
<path d="M180.304 218.95H172.936C172.419 218.949 171.923 218.639 171.557 218.088C171.192 217.537 170.986 216.791 170.986 216.012V149.418C170.986 148.639 171.192 147.892 171.557 147.342C171.923 146.791 172.419 146.481 172.936 146.48H180.304C180.821 146.481 181.317 146.791 181.683 147.342C182.048 147.892 182.254 148.639 182.255 149.418V216.012C182.254 216.791 182.048 217.537 181.683 218.088C181.317 218.639 180.821 218.949 180.304 218.95Z" fill="#CCCCCC"/>
<path d="M143.11 289.294H148.424L150.951 258.421L143.109 258.422L143.11 289.294Z" fill="#FFB8B8"/>
<path d="M158.672 296.726L141.972 296.727L141.971 287.008L152.219 287.007C153.93 287.007 155.572 288.031 156.782 289.853C157.992 291.676 158.672 294.148 158.672 296.726Z" fill="#2F2E41"/>
<path d="M129.978 278.955L134.325 283.559L148.182 260.494L141.766 253.699L129.978 278.955Z" fill="#FFB8B8"/>
<path d="M139.87 298.517L126.209 284.049L129.92 276.098L138.303 284.976C139.703 286.459 140.654 288.718 140.948 291.258C141.242 293.797 140.854 296.409 139.87 298.517L139.87 298.517Z" fill="#2F2E41"/>
<path d="M154.737 233.68C154.737 233.68 167.998 231.323 165.618 244.285C163.238 257.247 136.717 268.441 136.717 268.441L154.737 233.68Z" fill="#FFB8B8"/>
<path d="M145.61 167.542C151.489 167.542 156.256 160.362 156.256 151.506C156.256 142.65 151.489 135.471 145.61 135.471C139.731 135.471 134.965 142.65 134.965 151.506C134.965 160.362 139.731 167.542 145.61 167.542Z" fill="#FFB8B8"/>
<path d="M111.662 265.787C105.604 255.162 103.484 238.856 113.144 225.294C115.53 222.027 118.232 219.325 121.156 217.28L128.942 184.483C129.75 181.058 131.233 178.086 133.192 175.964C135.151 173.841 137.493 172.669 139.906 172.603C142.248 172.451 144.565 173.395 146.537 175.305C148.509 177.216 150.04 179.999 150.92 183.273C151.871 186.604 151.98 190.343 151.226 193.787C148.908 204.658 145.865 215.148 142.142 225.095L142.544 229.946L162.223 232.581L162.04 233.03C161.944 233.265 152.313 255.369 139.992 270.041C135.779 275.057 131.423 277.137 127.311 277.136C121.076 277.135 115.406 272.354 111.662 265.787Z" fill="#2F2E41"/>
<path d="M177.37 195.519C177.258 195.838 177.162 196.17 177.085 196.512L156.308 204.811L152.619 199.244L146.313 206.531L153.858 220.372L178.737 204.355C179.489 205.162 180.387 205.604 181.311 205.623C182.235 205.643 183.14 205.238 183.908 204.463C184.675 203.688 185.267 202.58 185.606 201.286C185.945 199.991 186.014 198.572 185.805 197.217C185.595 195.862 185.117 194.635 184.433 193.699C183.749 192.763 182.892 192.164 181.977 191.979C181.061 191.795 180.13 192.035 179.307 192.667C178.484 193.3 177.809 194.294 177.37 195.519H177.37Z" fill="#FFB8B8"/>
<path d="M147.519 210.019L135.567 192.015C135.023 191.197 134.591 190.225 134.297 189.155C134.002 188.086 133.851 186.939 133.851 185.782C133.85 184.624 134.002 183.477 134.296 182.407C134.59 181.337 135.021 180.365 135.564 179.547C136.108 178.728 136.753 178.078 137.463 177.636C138.174 177.193 138.935 176.965 139.703 176.965C140.472 176.965 141.233 177.194 141.943 177.637C142.653 178.081 143.298 178.731 143.842 179.55L155.794 197.555C155.975 197.828 156.119 198.151 156.217 198.508C156.315 198.864 156.365 199.246 156.365 199.632C156.365 200.018 156.315 200.4 156.217 200.756C156.119 201.113 155.975 201.436 155.794 201.709L150.278 210.019C149.912 210.569 149.416 210.878 148.899 210.878C148.381 210.878 147.885 210.569 147.519 210.019Z" fill="#2F2E41"/>
<path d="M109.804 156.537C111.688 153.157 112.495 148.735 113.145 144.432C114.173 137.623 114.969 130.582 117.253 124.506C119.538 118.43 123.736 113.396 128.364 113.779C132.966 114.16 136.687 119.737 138.662 126.083C139.14 125.804 139.652 125.678 140.165 125.715C140.677 125.753 141.179 125.952 141.637 126.299C143.06 127.474 143.593 130.811 142.408 132.482C143.654 131.588 145.011 131.099 146.391 131.047C147.771 130.996 149.142 131.382 150.416 132.181C152.055 133.232 153.469 134.943 154.504 137.126C155.538 139.309 156.153 141.88 156.28 144.556C156.33 145.642 156.231 146.732 155.99 147.758C155.748 148.784 155.369 149.724 154.877 150.52C152.834 153.688 149.946 152.595 147.377 151.788C144.951 151.026 141.996 150.821 140.629 154.303C140.091 155.754 139.94 157.459 140.208 159.072C140.731 162.548 142.44 164.969 144.097 167.286L144.368 168.045C138.516 169.764 132.125 163.744 130.59 155.065C129.055 146.386 132.61 136.374 138.254 133.479C137.878 133.497 137.506 133.363 137.176 133.091C136.847 132.82 136.571 132.421 136.378 131.935C136.184 131.45 136.081 130.895 136.078 130.329C136.074 129.763 136.171 129.206 136.359 128.715C134.734 127.491 133.027 126.614 131.238 126.791C128.323 127.079 125.799 130.205 124.282 133.966C122.765 137.727 122.078 142.093 121.382 146.367C120.686 150.642 119.933 154.998 118.31 158.658C117.187 161.193 115.685 163.298 113.926 164.804C112.166 166.309 110.197 167.175 108.176 167.331C106.155 167.487 104.138 166.93 102.286 165.703C100.433 164.476 98.7965 162.614 97.5065 160.265C99.545 161.754 101.851 162.196 104.072 161.523C106.293 160.849 108.307 159.098 109.804 156.537Z" fill="#2F2E41"/>
</svg>
