<svg width="180" height="200" viewBox="0 0 180 200" fill="none" xmlns="http://www.w3.org/2000/svg">
<path d="M110.903 30.142C109.751 29.4907 108.17 30.8396 107.37 33.1549C107.041 34.0748 106.888 35.0823 106.925 36.0931L105.988 38.8955L105.971 38.8981L101.666 48.4459L95.5045 36.9269C94.562 35.165 92.836 34.3873 91.2387 35.005H91.2387C88.6228 36.0166 87.6543 40.1092 89.3922 42.8077L99.5684 58.6085C100.636 60.2658 102.688 59.9386 103.405 57.9967L109.407 39.969L110.141 37.9121C110.75 37.267 111.23 36.4447 111.539 35.5139C112.339 33.1979 112.054 30.7933 110.903 30.142V30.142Z" fill="#FFB6B6"/>
<path d="M180 190.731C180 191.02 179.818 191.253 179.592 191.253H0.408257C0.181839 191.253 0 191.02 0 190.731C0 190.441 0.181839 190.208 0.408257 190.208H179.592C179.818 190.208 180 190.441 180 190.731Z" fill="#3F3D56"/>
<path d="M111.323 31.0374L111.502 21.606L115.79 18.5861L119.319 25.6072L111.323 31.0374Z" fill="#FFB6B6"/>
<path d="M96.5373 33.3237L89.3899 30.1799C89.3899 30.1799 83.3593 39.3255 86.4862 50.4716L87.3797 63.904C87.3797 63.904 75.0951 77.0507 74.2017 93.9128C73.3082 110.775 44.272 155.359 44.272 155.359C44.272 155.359 33.5509 156.217 32.8808 161.361C32.2107 166.505 36.6779 173.079 35.7844 178.795C34.891 184.511 42.1809 201.087 57.6329 199.944C73.0849 198.8 120.883 187.654 121.553 174.793C122.223 161.933 97.654 66.1904 97.654 66.1904L101.228 53.3295C101.228 53.3295 103.685 48.1852 100.111 42.755C96.5373 37.3249 96.5372 33.3237 96.5372 33.3237L96.5373 33.3237Z" fill="#536DFE"/>
<path d="M89.0454 30.7533L89.2262 30.1799L90.5065 24.7498L96.9839 27.6077L96.5372 33.3237L89.0454 30.7533Z" fill="#FFB6B6"/>
<path d="M96.7235 28.8187C100.727 28.8187 103.973 24.6656 103.973 19.5424C103.973 14.4192 100.727 10.266 96.7235 10.266C92.7197 10.266 89.4739 14.4192 89.4739 19.5424C89.4739 24.6656 92.7197 28.8187 96.7235 28.8187Z" fill="#FFB6B6"/>
<path d="M96.1451 7.07094C96.3548 7.22763 96.6358 6.99056 96.7031 6.69191C96.7703 6.39325 96.692 6.07616 96.6143 5.78169L96.2231 4.29925C95.9457 3.24788 95.6513 2.15976 95.0505 1.35952C94.1436 0.151696 92.7025 -0.15557 91.4051 0.0670339C89.7391 0.352899 88.0953 1.50725 87.3206 3.41612C86.5459 5.325 86.8757 7.98856 88.2755 9.1795C86.2805 12.1053 85.5851 15.366 85.6949 19.2463C85.8047 23.1266 89.1094 26.6978 91.2646 29.4313C91.7458 29.058 92.1834 27.3086 91.9187 26.673C91.654 26.0375 92.0332 25.3012 91.7055 24.7158C91.3777 24.1304 91.1035 25.0625 91.4348 24.4804C91.6439 24.1131 90.8278 23.2681 91.1387 23.0483C92.642 21.985 93.142 19.5873 94.0862 17.7512C95.2251 15.5365 97.1743 14.0367 99.237 13.7878C100.373 13.6508 101.574 13.899 102.505 14.7431C103.436 15.5872 104.039 17.0956 103.823 18.5297C104.383 17.8029 104.661 16.7379 104.556 15.7268C104.451 14.7157 103.965 13.7808 103.277 13.2662C103.695 11.4954 103.337 9.45835 102.365 8.088C101.394 6.71765 97.4535 6.95105 96.0354 7.3117" fill="#2F2E41"/>
<path d="M95.9248 13.8416C94.0466 14.101 92.6904 16.1828 91.5453 18.1054C90.8853 19.2135 90.1939 20.4372 90.2104 21.8303C90.2272 23.2388 90.9632 24.4469 91.3149 25.7817C91.8898 27.9634 91.3295 30.5592 89.9609 32.0542C91.3132 32.3825 92.7751 31.0851 93.0085 29.3495C93.2803 27.3289 92.0832 25.3788 92.225 23.3366C92.3499 21.5374 93.458 20.1527 94.4 18.8074C95.342 17.4622 96.2268 15.677 95.7934 13.958" fill="#2F2E41"/>
<path d="M166.906 143.458C165.822 143.607 164.639 143.832 163.38 144.159C158.045 145.55 157.934 150.185 157.981 151.248L157.945 151.219C157.408 152.321 157.072 153.435 156.869 154.487L156.625 140.279C156.783 139.857 156.926 139.379 157.046 138.889C157.446 140.463 158.1 141.95 158.665 141.851C159.399 141.723 159.719 138.96 159.582 136.997C160.515 138.534 162.085 140.179 162.678 139.672C163.151 139.267 162.871 137.598 162.354 136.082C163.431 136.912 164.624 137.458 164.994 136.93C165.499 136.211 164.288 133.756 163.172 132.386C164.666 132.564 166.567 132.26 166.691 131.39C166.794 130.673 165.663 129.768 164.452 129.186C165.668 128.776 166.805 128.061 166.767 127.354C166.723 126.514 165.035 125.951 163.579 125.865C164.677 124.766 165.686 123.246 165.377 122.559C165.094 121.927 163.774 122.171 162.556 122.728C163.277 121.41 163.783 119.924 163.397 119.416C162.917 118.782 161.211 119.875 160.047 121.084C160.273 119.201 160.159 116.825 159.499 116.61C158.947 116.43 158.165 117.813 157.628 119.318C157.391 117.738 156.911 116.238 156.357 116.238C155.568 116.238 154.929 119.282 154.929 121.265C154.929 121.377 154.931 121.483 154.935 121.584C154.856 121.466 154.765 121.343 154.662 121.215C153.55 119.833 151.398 118.3 150.848 119.024C150.462 119.532 150.969 121.018 151.69 122.336C150.472 121.78 149.152 121.535 148.868 122.167C148.487 123.016 150.116 125.136 151.441 126.164C151.361 126.151 151.278 126.141 151.189 126.133C149.643 125.998 147.226 126.608 147.172 127.615C147.134 128.322 148.271 129.037 149.487 129.447C148.277 130.029 147.146 130.934 147.248 131.651C147.373 132.521 149.273 132.825 150.767 132.647C149.651 134.017 148.441 136.472 148.946 137.192C149.316 137.719 150.509 137.173 151.586 136.343C151.069 137.86 150.788 139.528 151.261 139.933C151.887 140.469 153.603 138.605 154.508 137.001C154.416 138.963 154.783 141.659 155.511 141.765C155.815 141.809 156.138 141.394 156.429 140.754L155.604 156.027C155.411 157.805 156.644 158.966 156.755 159.698L156.932 170.04C156.732 169.304 156.461 168.55 156.097 167.802L156.061 167.831C156.107 166.768 155.997 162.132 150.661 160.742C149.403 160.414 148.22 160.19 147.135 160.041C145.855 159.865 145.356 162.107 146.512 162.831C148.187 163.88 149.762 165.201 150.583 166.766C152.683 170.767 155.583 168.454 155.996 168.095C156.456 169.076 156.758 170.065 156.949 171.005L157.043 176.497C157.02 176.627 157.004 176.7 157.003 176.706L157.047 176.722L157.276 190.014L159.396 189.992L158.638 176.406C158.765 175.673 159.157 173.176 158.638 170.583L157.879 159.908C157.878 159.9 157.922 160.189 157.879 159.908L156.89 155.714C157.034 154.416 157.368 152.957 158.046 151.512C158.458 151.871 161.359 154.184 163.458 150.183C164.279 148.618 165.855 147.297 167.529 146.248C168.686 145.524 168.186 143.282 166.906 143.458L166.906 143.458ZM157.22 174.906L157.18 172.582C157.261 173.461 157.257 174.254 157.22 174.906Z" fill="#F2F2F2"/>
<path d="M26.5894 143.458C25.5049 143.607 24.3219 143.832 23.0636 144.159C17.7279 145.55 17.6172 150.185 17.6639 151.248L17.6277 151.219C17.0912 152.321 16.7552 153.435 16.5521 154.487L16.3078 140.279C16.4657 139.857 16.6095 139.379 16.7294 138.889C17.1288 140.463 17.7835 141.95 18.3478 141.851C19.0817 141.723 19.4016 138.96 19.2647 136.997C20.198 138.534 21.7685 140.179 22.361 139.672C22.8345 139.267 22.5537 137.598 22.0368 136.082C23.1138 136.912 24.3067 137.458 24.6768 136.93C25.1819 136.211 23.9716 133.756 22.8554 132.386C24.3495 132.564 26.2497 132.26 26.3742 131.39C26.4769 130.673 25.346 129.768 24.1355 129.186C25.3513 128.776 26.4883 128.061 26.4506 127.354C26.4058 126.514 24.7178 125.951 23.2616 125.865C24.36 124.766 25.3692 123.246 25.0606 122.559C24.7768 121.927 23.4569 122.171 22.2391 122.728C22.9598 121.41 23.4665 119.924 23.0806 119.416C22.5999 118.782 20.894 119.875 19.7298 121.084C19.9564 119.201 19.8418 116.825 19.182 116.61C18.63 116.43 17.8477 117.813 17.3113 119.318C17.0743 117.738 16.5944 116.238 16.0405 116.238C15.2515 116.238 14.6119 119.282 14.6119 121.265C14.6119 121.377 14.6142 121.483 14.6182 121.584C14.5391 121.466 14.4483 121.343 14.3448 121.215C13.233 119.833 11.0808 118.3 10.5311 119.024C10.1453 119.532 10.6519 121.018 11.3726 122.336C10.1548 121.78 8.8349 121.535 8.55117 122.167C8.16992 123.016 9.79955 125.136 11.1242 126.164C11.0446 126.151 10.9609 126.141 10.8719 126.133C9.32563 125.998 6.90874 126.608 6.85503 127.615C6.81732 128.322 7.95426 129.037 9.17007 129.447C7.95961 130.029 6.8287 130.934 6.93135 131.651C7.05593 132.521 8.95613 132.825 10.4502 132.647C9.33401 134.017 8.12371 136.472 8.6288 137.192C8.99895 137.719 10.1918 137.173 11.2688 136.343C10.7519 137.86 10.4711 139.528 10.9446 139.933C11.5703 140.469 13.2862 138.605 14.1909 137.001C14.0987 138.963 14.4656 141.659 15.1936 141.765C15.4981 141.809 15.8207 141.394 16.1119 140.754L15.2873 156.027C15.0945 157.805 16.3274 158.966 16.4376 159.698L16.6155 170.04C16.4148 169.304 16.1444 168.55 15.7799 167.802L15.7437 167.831C15.7905 166.768 15.6796 162.132 10.3441 160.742C9.08571 160.414 7.9027 160.19 6.81827 160.041C5.53821 159.865 5.03889 162.107 6.19527 162.831C7.86996 163.88 9.4453 165.201 10.2664 166.766C12.3657 170.767 15.2662 168.454 15.6786 168.095C16.1393 169.076 16.4413 170.065 16.6321 171.005L16.7265 176.497C16.7034 176.627 16.6874 176.7 16.6861 176.706L16.7304 176.722L16.959 190.014L19.0794 189.992L18.3209 176.406C18.4484 175.673 18.8405 173.176 18.3209 170.583L17.5625 159.908C17.5606 159.9 17.6056 160.189 17.5625 159.908L16.5732 155.714C16.7171 154.416 17.0509 152.957 17.729 151.512C18.1414 151.871 21.042 154.184 23.1412 150.183C23.9623 148.618 25.5377 147.297 27.2124 146.248C28.3687 145.524 27.8694 143.282 26.5894 143.458L26.5894 143.458ZM16.9033 174.906L16.8633 172.582C16.9439 173.461 16.9398 174.254 16.9033 174.906Z" fill="#F2F2F2"/>
<path d="M87.3445 64.5086L97.8473 64.4651C98.5094 64.4624 98.5107 63.1455 97.8473 63.1482L87.3445 63.1916C86.6824 63.1943 86.6811 64.5113 87.3445 64.5086Z" fill="#6C63FF"/>
<path d="M116.004 91.1258C115.412 90.1844 114.652 89.4381 113.788 88.9495L113.216 88.0846L113.244 88.049L102.108 64.535L96.073 41.5713C95.3747 38.9143 93.0953 37.5256 91.0431 38.5067C88.9902 39.4883 87.9812 42.451 88.817 45.0432L95.8694 66.9163L110.206 91.8247L110.553 92.3747C110.767 93.5513 111.197 94.6454 111.809 95.5655C113.316 97.8951 115.475 98.7888 116.634 97.5625C117.792 96.3362 117.51 93.4543 116.004 91.1258V91.1258Z" fill="#FFB6B6"/>
</svg>
