<svg width="180" height="200" viewBox="0 0 180 200" fill="none" xmlns="http://www.w3.org/2000/svg">
<g clip-path="url(#clip0_36_494)">
<path d="M117.174 197.764L83.4551 117.223C83.4456 117.026 83.3996 116.835 83.3211 116.667C83.2426 116.499 83.1341 116.36 83.0051 116.261C82.8572 116.148 82.6882 116.094 82.518 116.105C82.5126 116.104 82.5071 116.105 82.5016 116.104C82.4961 116.105 82.4906 116.104 82.4851 116.105C82.2545 116.09 82.0285 116.195 81.8546 116.396C81.6807 116.597 81.5723 116.88 81.552 117.185L45.8145 197.764C45.755 197.9 45.7163 198.051 45.7007 198.207C45.6851 198.364 45.6929 198.523 45.7237 198.675C45.7545 198.827 45.8076 198.97 45.8801 199.095C45.9526 199.221 46.0429 199.326 46.146 199.404C46.2491 199.483 46.363 199.535 46.481 199.555C46.5991 199.576 46.719 199.565 46.834 199.524C46.949 199.484 47.0568 199.413 47.1512 199.317C47.2457 199.221 47.3249 199.101 47.3844 198.964L82.4775 119.839L115.605 198.964C115.664 199.101 115.743 199.221 115.838 199.317C115.932 199.413 116.04 199.484 116.155 199.524C116.27 199.565 116.39 199.576 116.508 199.555C116.626 199.535 116.74 199.483 116.843 199.404C116.946 199.326 117.036 199.221 117.109 199.095C117.181 198.97 117.235 198.827 117.265 198.675C117.296 198.523 117.304 198.364 117.288 198.207C117.273 198.051 117.234 197.9 117.174 197.764Z" fill="#3F3D56"/>
<path d="M76.9144 183.945L80.7258 182.787L79.1666 162.76L73.5415 164.47L76.9144 183.945Z" fill="#FFB6B6"/>
<path d="M79.861 174.27L74.4371 175.919L72.7028 171.429L72.6046 171.27C71.8353 170.019 71.4083 168.459 71.3931 166.846L66.8849 151.047L66.5163 150.815C66.2311 150.636 65.9782 150.377 65.7743 150.058C65.5705 149.738 65.4204 149.365 65.3342 148.962C65.248 148.56 65.2276 148.138 65.2743 147.724C65.321 147.31 65.4339 146.915 65.6053 146.563L65.128 144.891L51.661 144.924L51.6476 144.919L35.1104 138.773L36.8468 125.06L41.4986 128.937C43.0315 128.805 69.2899 126.669 71.7156 134.465C73.8758 141.407 76.9887 153.268 79.2196 161.995C79.3309 162.387 79.4692 162.764 79.6327 163.123C79.9798 163.831 80.1835 164.645 80.2242 165.488C80.2506 165.855 80.3034 166.217 80.3819 166.57C81.3091 170.243 79.8965 174.174 79.8821 174.213L79.861 174.27Z" fill="#2F2E41"/>
<path d="M75.6267 182.271L76.8659 181.894L81.2525 177.817L84.2968 179.635L84.2971 179.635C85.7625 179.19 87.3013 179.534 88.5752 180.592C89.8491 181.65 90.7536 183.334 91.0899 185.276L91.131 185.514L76.9357 189.828L75.6267 182.271Z" fill="#2F2E41"/>
<path d="M19.3529 182.72C19.7404 177.133 22.211 171.538 26.1736 169.557C24.7324 175.352 24.8851 181.637 26.6047 187.297C27.2738 189.477 28.1894 191.81 27.6642 194.058C27.3375 195.457 26.4817 196.553 25.5125 197.257C24.5432 197.96 23.4573 198.322 22.385 198.678L22.1781 198.919C20.3396 193.864 18.9654 188.308 19.3529 182.72Z" fill="#F0F0F0"/>
<path d="M26.216 169.66C23.9668 173.223 22.6221 177.634 22.3729 182.267C22.3059 183.263 22.3579 184.266 22.5268 185.241C22.7145 186.183 23.0893 187.042 23.6123 187.728C24.0901 188.38 24.636 188.974 24.9858 189.769C25.1604 190.179 25.2675 190.633 25.3001 191.102C25.3327 191.571 25.2901 192.044 25.1751 192.49C24.9104 193.61 24.3576 194.538 23.7932 195.42C23.1665 196.4 22.5039 197.404 22.2583 198.678C22.2285 198.832 22.0495 198.762 22.0792 198.608C22.5065 196.392 24.085 195.076 24.8043 193.066C25.1399 192.128 25.2642 191.05 24.905 190.091C24.5908 189.251 24.0284 188.638 23.5402 187.984C23.0227 187.325 22.6348 186.508 22.4105 185.605C22.2046 184.645 22.1236 183.645 22.1709 182.649C22.2503 180.404 22.5956 178.19 23.1942 176.087C23.8674 173.682 24.8461 171.447 26.0881 169.48C26.165 169.358 26.2924 169.539 26.216 169.66L26.216 169.66Z" fill="white"/>
<path d="M22.3867 180.769C21.8057 180.608 21.2867 180.178 20.9226 179.557C20.5584 178.936 20.3727 178.164 20.3986 177.378C20.3999 177.346 20.4105 177.316 20.4282 177.294C20.446 177.273 20.4694 177.261 20.4936 177.261C20.5178 177.262 20.5409 177.275 20.558 177.297C20.5751 177.32 20.5849 177.351 20.5853 177.383C20.5601 178.114 20.7332 178.834 21.0732 179.411C21.4132 179.988 21.8978 180.386 22.4395 180.531C22.5572 180.563 22.5038 180.8 22.3867 180.769H22.3867Z" fill="white"/>
<path d="M23.3369 187.439C24.3583 186.571 25.0951 185.225 25.4006 183.669C25.4308 183.515 25.6098 183.585 25.5797 183.739C25.2595 185.358 24.4905 186.756 23.4262 187.657C23.3247 187.742 23.236 187.525 23.3369 187.439H23.3369Z" fill="white"/>
<path d="M24.046 173.909C24.2611 174.033 24.496 174.085 24.7298 174.059C24.9636 174.033 25.189 173.931 25.3856 173.762C25.4862 173.674 25.5748 173.892 25.4748 173.979C25.257 174.165 25.008 174.277 24.7497 174.306C24.4915 174.336 24.2317 174.281 23.9932 174.146C23.97 174.136 23.9505 174.114 23.9388 174.086C23.927 174.057 23.9239 174.024 23.9301 173.992C23.9372 173.961 23.9534 173.935 23.9751 173.919C23.9968 173.903 24.0223 173.9 24.046 173.909H24.046Z" fill="white"/>
<path d="M38.627 178.978C38.5653 179.034 38.5037 179.091 38.442 179.15C37.616 179.921 36.8387 180.78 36.1177 181.718C36.0611 181.789 36.0045 181.862 35.9496 181.936C34.2307 184.22 32.8468 186.906 31.8683 189.859C31.4797 191.035 31.1592 192.248 30.9095 193.488C30.5648 195.2 30.2939 197.093 29.5638 198.513C29.4889 198.662 29.4071 198.805 29.3188 198.941L22.4168 199.235C22.4009 199.225 22.3849 199.218 22.3689 199.208L22.0938 199.236C22.1033 199.171 22.1142 199.104 22.1237 199.039C22.1291 199.001 22.136 198.963 22.1414 198.925C22.1455 198.9 22.1496 198.875 22.1522 198.852C22.1536 198.843 22.155 198.835 22.1564 198.828C22.159 198.805 22.1632 198.784 22.1659 198.763C22.2261 198.387 22.2884 198.01 22.3529 197.634C22.3528 197.632 22.3528 197.632 22.3543 197.63C22.8245 194.754 23.5505 191.963 24.5172 189.314C24.5468 189.235 24.5763 189.155 24.6091 189.076C25.058 187.903 25.5786 186.78 26.1656 185.719C26.4884 185.139 26.8332 184.581 27.1986 184.048C28.1447 182.672 29.2483 181.501 30.4689 180.58C32.9024 178.743 35.7522 177.958 38.4234 178.903C38.4918 178.927 38.5586 178.951 38.627 178.978Z" fill="#F0F0F0"/>
<path d="M38.6144 179.094C35.1994 180.145 32.1211 182.594 29.8168 186.094C29.3106 186.836 28.8958 187.679 28.5878 188.592C28.3094 189.494 28.2185 190.479 28.3244 191.443C28.4096 192.345 28.5755 193.255 28.4937 194.168C28.4465 194.635 28.3255 195.084 28.1384 195.484C27.9512 195.885 27.7023 196.228 27.408 196.492C26.6874 197.176 25.8245 197.476 24.9729 197.73C24.0274 198.012 23.042 198.285 22.2671 199.106C22.1732 199.206 22.0621 199.007 22.1559 198.908C23.5041 197.479 25.3623 197.688 26.8501 196.657C27.5443 196.175 28.1333 195.414 28.2827 194.361C28.4133 193.441 28.2428 192.502 28.1506 191.59C28.0368 190.651 28.0983 189.69 28.3297 188.79C28.6017 187.859 28.9912 186.996 29.4816 186.239C30.5653 184.509 31.8473 183.017 33.2809 181.815C34.9113 180.432 36.7083 179.429 38.5941 178.848C38.7109 178.812 38.7304 179.059 38.6144 179.094V179.094Z" fill="white"/>
<path d="M30.5085 184.909C30.1177 184.318 29.8985 183.561 29.8899 182.775C29.8814 181.988 30.0841 181.223 30.4618 180.617C30.5386 180.494 30.6857 180.647 30.6089 180.769C30.2563 181.333 30.0676 182.046 30.0767 182.778C30.0857 183.51 30.2921 184.214 30.6585 184.762C30.738 184.882 30.5876 185.028 30.5085 184.91V184.909Z" fill="white"/>
<path d="M28.2358 190.994C29.4457 191.115 30.6458 190.628 31.5968 189.63C31.6909 189.531 31.802 189.729 31.7079 189.828C30.7169 190.865 29.4672 191.368 28.2083 191.238C28.0883 191.226 28.1164 190.981 28.2358 190.994V190.994Z" fill="white"/>
<path d="M34.9508 180.756C35.066 181.027 35.2302 181.255 35.4285 181.421C35.6269 181.587 35.8533 181.685 36.0873 181.707C36.2074 181.717 36.1792 181.962 36.0599 181.951C35.8014 181.926 35.5515 181.817 35.332 181.635C35.1125 181.452 34.9302 181.201 34.8009 180.903C34.7869 180.877 34.7811 180.844 34.7847 180.812C34.7883 180.78 34.801 180.75 34.8203 180.73C34.8402 180.711 34.8651 180.703 34.8895 180.708C34.914 180.712 34.936 180.73 34.9508 180.756H34.9508Z" fill="white"/>
<path d="M132.276 182.72C131.888 177.133 129.418 171.538 125.455 169.557C126.896 175.352 126.744 181.637 125.024 187.297C124.355 189.477 123.439 191.81 123.964 194.058C124.291 195.457 125.147 196.553 126.116 197.257C127.086 197.96 128.171 198.322 129.244 198.678L129.451 198.919C131.289 193.864 132.663 188.308 132.276 182.72Z" fill="#F0F0F0"/>
<path d="M125.413 169.66C127.662 173.223 129.007 177.634 129.256 182.267C129.323 183.263 129.271 184.266 129.102 185.241C128.914 186.183 128.54 187.042 128.017 187.728C127.539 188.38 126.993 188.974 126.643 189.769C126.469 190.179 126.362 190.633 126.329 191.102C126.296 191.571 126.339 192.044 126.454 192.49C126.719 193.61 127.271 194.538 127.836 195.42C128.462 196.4 129.125 197.404 129.371 198.678C129.4 198.832 129.579 198.762 129.55 198.608C129.122 196.392 127.544 195.076 126.825 193.066C126.489 192.128 126.365 191.05 126.724 190.091C127.038 189.251 127.601 188.638 128.089 187.984C128.606 187.325 128.994 186.508 129.219 185.605C129.424 184.645 129.505 183.645 129.458 182.649C129.379 180.404 129.033 178.19 128.435 176.087C127.762 173.682 126.783 171.447 125.541 169.48C125.464 169.358 125.337 169.539 125.413 169.66L125.413 169.66Z" fill="white"/>
<path d="M129.242 180.769C129.823 180.608 130.342 180.178 130.706 179.557C131.07 178.936 131.256 178.164 131.23 177.378C131.229 177.346 131.218 177.316 131.201 177.294C131.183 177.272 131.159 177.261 131.135 177.261C131.111 177.262 131.088 177.275 131.071 177.297C131.054 177.32 131.044 177.351 131.043 177.383C131.069 178.114 130.896 178.834 130.556 179.411C130.216 179.988 129.731 180.386 129.189 180.531C129.072 180.563 129.125 180.8 129.242 180.769Z" fill="white"/>
<path d="M128.292 187.439C127.27 186.571 126.534 185.225 126.228 183.669C126.198 183.515 126.019 183.585 126.049 183.739C126.369 185.358 127.138 186.756 128.202 187.657C128.304 187.742 128.393 187.525 128.292 187.439H128.292Z" fill="white"/>
<path d="M127.583 173.909C127.368 174.033 127.133 174.085 126.899 174.059C126.665 174.033 126.44 173.931 126.243 173.762C126.143 173.674 126.054 173.892 126.154 173.979C126.372 174.165 126.621 174.277 126.879 174.306C127.137 174.336 127.397 174.281 127.636 174.146C127.659 174.136 127.678 174.114 127.69 174.086C127.702 174.057 127.705 174.024 127.699 173.992C127.692 173.961 127.675 173.935 127.654 173.919C127.632 173.903 127.607 173.9 127.583 173.909H127.583Z" fill="white"/>
<path d="M113.002 178.978C113.063 179.034 113.125 179.091 113.187 179.15C114.013 179.921 114.79 180.78 115.511 181.718C115.568 181.789 115.624 181.862 115.679 181.936C117.398 184.22 118.782 186.906 119.76 189.859C120.149 191.035 120.469 192.248 120.719 193.488C121.064 195.2 121.335 197.093 122.065 198.513C122.14 198.662 122.222 198.805 122.31 198.941L129.212 199.235C129.228 199.225 129.244 199.218 129.26 199.208L129.535 199.236C129.525 199.171 129.515 199.104 129.505 199.039C129.5 199.001 129.493 198.963 129.487 198.925C129.483 198.9 129.479 198.875 129.476 198.852C129.475 198.843 129.474 198.835 129.472 198.828C129.47 198.805 129.465 198.784 129.463 198.763C129.403 198.387 129.34 198.01 129.276 197.634C129.276 197.632 129.276 197.632 129.274 197.63C128.804 194.754 128.078 191.963 127.112 189.314C127.082 189.235 127.052 189.155 127.02 189.076C126.571 187.903 126.05 186.78 125.463 185.719C125.14 185.139 124.796 184.581 124.43 184.048C123.484 182.672 122.38 181.501 121.16 180.58C118.726 178.743 115.876 177.958 113.205 178.903C113.137 178.927 113.07 178.951 113.002 178.978Z" fill="#F0F0F0"/>
<path d="M113.015 179.094C116.43 180.145 119.508 182.594 121.812 186.094C122.318 186.836 122.733 187.679 123.041 188.592C123.32 189.494 123.41 190.479 123.305 191.443C123.219 192.345 123.053 193.255 123.135 194.168C123.182 194.635 123.303 195.084 123.491 195.484C123.678 195.885 123.927 196.228 124.221 196.492C124.942 197.176 125.804 197.476 126.656 197.73C127.602 198.012 128.587 198.285 129.362 199.106C129.456 199.206 129.567 199.007 129.473 198.908C128.125 197.479 126.267 197.688 124.779 196.657C124.085 196.175 123.496 195.414 123.346 194.361C123.216 193.441 123.386 192.502 123.478 191.59C123.592 190.651 123.531 189.69 123.299 188.79C123.027 187.859 122.638 186.996 122.147 186.239C121.064 184.509 119.782 183.017 118.348 181.815C116.718 180.432 114.921 179.429 113.035 178.848C112.918 178.812 112.899 179.059 113.015 179.094V179.094Z" fill="white"/>
<path d="M121.12 184.909C121.511 184.318 121.73 183.561 121.739 182.775C121.747 181.988 121.545 181.223 121.167 180.617C121.09 180.494 120.943 180.647 121.02 180.769C121.372 181.333 121.561 182.046 121.552 182.778C121.543 183.51 121.337 184.214 120.97 184.762C120.891 184.882 121.041 185.028 121.12 184.91V184.909Z" fill="white"/>
<path d="M123.393 190.994C122.183 191.115 120.983 190.628 120.032 189.63C119.938 189.531 119.827 189.729 119.921 189.828C120.912 190.865 122.162 191.368 123.421 191.238C123.541 191.226 123.512 190.981 123.393 190.994V190.994Z" fill="white"/>
<path d="M116.678 180.756C116.563 181.027 116.398 181.255 116.2 181.421C116.002 181.587 115.775 181.685 115.541 181.707C115.421 181.717 115.45 181.962 115.569 181.951C115.827 181.926 116.077 181.817 116.297 181.635C116.516 181.452 116.699 181.201 116.828 180.903C116.842 180.877 116.848 180.844 116.844 180.812C116.84 180.78 116.828 180.75 116.808 180.73C116.788 180.711 116.764 180.703 116.739 180.708C116.715 180.712 116.693 180.73 116.678 180.756H116.678Z" fill="white"/>
<path d="M180 199.683C180 199.767 179.974 199.847 179.93 199.907C179.885 199.966 179.824 200 179.76 200H0.239684C0.176116 200 0.11515 199.967 0.0702012 199.907C0.0252519 199.847 0 199.767 0 199.683C0 199.598 0.0252519 199.518 0.0702012 199.458C0.11515 199.398 0.176116 199.365 0.239684 199.365H179.76C179.824 199.365 179.885 199.399 179.93 199.458C179.974 199.518 180 199.598 180 199.683Z" fill="#3F3D56"/>
<path d="M115.634 76.8482C116.135 76.8482 116.541 76.3106 116.541 75.6474C116.541 74.9843 116.135 74.4467 115.634 74.4467C115.134 74.4467 114.728 74.9843 114.728 75.6474C114.728 76.3106 115.134 76.8482 115.634 76.8482Z" fill="#3F3D56"/>
<path d="M104.285 84.8964L116.504 74.7262C116.615 74.6342 116.738 74.5728 116.867 74.5458C116.996 74.5187 117.128 74.5266 117.254 74.5689C117.381 74.6112 117.5 74.687 117.603 74.7919C117.707 74.8967 117.794 75.0283 117.858 75.1788C117.923 75.3292 117.963 75.4954 117.978 75.6673C117.992 75.8392 117.981 76.0132 117.943 76.1788C117.905 76.3444 117.843 76.4981 117.759 76.6308C117.675 76.7635 117.572 76.8723 117.456 76.9506L104.592 85.6134C104.52 85.6615 104.437 85.6713 104.361 85.6406C104.284 85.61 104.219 85.5414 104.18 85.4491C104.14 85.3567 104.129 85.2477 104.149 85.1448C104.168 85.0419 104.217 84.9529 104.285 84.8964V84.8964Z" fill="#E4E4E4"/>
<path d="M79.7706 106.795C79.6743 106.606 79.6241 106.382 79.6266 106.153C79.629 105.925 79.6841 105.703 79.7845 105.517C79.9913 105.15 80.2666 104.861 80.5833 104.678C81.2372 104.237 81.9414 103.942 82.6677 103.805C83.2196 103.701 83.8221 103.668 84.2502 103.195C84.6755 102.725 84.9127 101.847 85.4637 101.773C85.9965 101.703 86.4061 102.475 86.9403 102.523C87.5988 102.582 88.0299 101.561 88.6707 101.352C89.0996 101.212 89.5406 101.459 89.943 101.701L92.3573 103.152L93.5949 103.896C94.0271 104.155 94.5146 104.505 94.5962 105.125C94.7083 105.976 93.9939 106.577 93.3828 106.879C89.0201 109.012 84.2261 109.013 79.8629 106.881" fill="#6C63FF"/>
<path d="M83.4081 122.477C100.928 122.477 115.131 119.789 115.131 116.473C115.131 113.157 100.928 110.469 83.4081 110.469C65.8881 110.469 51.6853 113.157 51.6853 116.473C51.6853 119.789 65.8881 122.477 83.4081 122.477Z" fill="#3F3D56"/>
<path d="M147.76 153.696H126.007C125.006 153.696 124.194 154.771 124.194 156.098C124.194 157.424 125.006 158.499 126.007 158.499H147.76C148.761 158.499 149.573 157.424 149.573 156.098C149.573 154.771 148.761 153.696 147.76 153.696Z" fill="#3F3D56"/>
<path d="M158.302 110.88L151.118 156.095L152.989 167.668L156.521 189.508V199.325C156.522 199.338 156.521 199.352 156.519 199.365C156.518 199.582 156.488 199.797 156.431 200H153.591C153.533 199.797 153.503 199.582 153.502 199.365C153.501 199.352 153.5 199.338 153.5 199.325V189.93L150.294 170.107L149.645 166.104L148.39 158.347L148.028 156.101V156.098L148.386 153.846L148.662 152.109L155.345 110.058C155.386 109.801 155.464 109.557 155.576 109.339C155.688 109.122 155.831 108.936 155.997 108.792C156.163 108.649 156.349 108.549 156.544 108.501C156.739 108.452 156.94 108.455 157.134 108.509C157.328 108.563 157.513 108.667 157.676 108.815C157.84 108.964 157.98 109.154 158.089 109.374C158.197 109.594 158.272 109.84 158.309 110.099C158.345 110.357 158.343 110.623 158.302 110.88L158.302 110.88Z" fill="#3F3D56"/>
<path d="M127.518 156.098V199.325C127.518 199.338 127.518 199.352 127.516 199.365C127.515 199.582 127.485 199.797 127.427 200H124.587C124.53 199.797 124.5 199.582 124.499 199.365C124.497 199.352 124.496 199.338 124.497 199.325V156.098C124.497 155.567 124.656 155.058 124.939 154.683C125.222 154.307 125.607 154.097 126.007 154.097C126.408 154.097 126.792 154.307 127.075 154.683C127.359 155.058 127.518 155.567 127.518 156.098Z" fill="#3F3D56"/>
<path d="M129.633 148.893H144.134C145.577 148.893 146.96 149.652 147.98 151.003C149 152.355 149.573 154.187 149.573 156.098H124.194C124.194 154.187 124.767 152.355 125.787 151.003C126.807 149.652 128.19 148.893 129.633 148.893Z" fill="#3F3D56"/>
<path d="M151.385 170.107H126.007C125.607 170.107 125.222 169.896 124.939 169.52C124.656 169.145 124.497 168.636 124.497 168.105C124.497 167.575 124.656 167.066 124.939 166.69C125.222 166.315 125.607 166.104 126.007 166.104H151.385C151.786 166.104 152.17 166.315 152.454 166.69C152.737 167.066 152.896 167.575 152.896 168.105C152.896 168.636 152.737 169.145 152.454 169.52C152.17 169.896 151.786 170.107 151.385 170.107Z" fill="#3F3D56"/>
<path d="M33.3384 158.572H58.9363C59.9374 158.572 60.749 157.497 60.749 156.171V155.443C60.749 154.116 59.9374 153.041 58.9363 153.041H33.3384C32.3372 153.041 31.5256 154.116 31.5256 155.443V156.171C31.5256 157.497 32.3372 158.572 33.3384 158.572Z" fill="#3F3D56"/>
<path d="M33.0747 155.839L32.6114 158.369L30.9114 167.633L30.1784 171.636L26.7744 190.202V198.258C26.7753 198.652 26.6869 199.038 26.5207 199.365C26.3899 199.63 26.2122 199.848 26.0031 200H24.5246C24.3154 199.848 24.1377 199.63 24.007 199.365C23.8407 199.038 23.7523 198.652 23.7532 198.258V189.722L27.5358 169.095L29.977 155.775L21.6988 103.676C21.6578 103.418 21.6555 103.153 21.692 102.895C21.7285 102.636 21.803 102.39 21.9114 102.17C22.0198 101.95 22.1598 101.76 22.3236 101.612C22.4873 101.464 22.6715 101.359 22.8657 101.305C23.0598 101.251 23.2601 101.249 23.455 101.297C23.65 101.346 23.8358 101.445 24.0018 101.589C24.1679 101.732 24.3109 101.918 24.4227 102.135C24.5346 102.352 24.613 102.597 24.6535 102.854L32.3053 150.999L32.6578 153.219L33.0686 155.807L33.0747 155.839Z" fill="#3F3D56"/>
<path d="M60.1728 155.807V198.258C60.1737 198.652 60.0853 199.038 59.919 199.365C59.7883 199.629 59.6106 199.848 59.4014 200H57.921C57.7128 199.847 57.5359 199.629 57.4054 199.365C57.2391 199.038 57.1507 198.652 57.1516 198.258V155.807C57.1516 155.276 57.3108 154.767 57.5941 154.392C57.8774 154.016 58.2616 153.806 58.6622 153.806C59.0629 153.806 59.4471 154.016 59.7304 154.392C60.0137 154.767 60.1728 155.276 60.1728 155.807Z" fill="#3F3D56"/>
<path d="M60.749 155.807H31.5256V154.715C31.5256 153.769 31.6663 152.832 31.9396 151.958C32.2129 151.084 32.6134 150.29 33.1184 149.621C33.6234 148.952 34.2229 148.421 34.8827 148.059C35.5425 147.697 36.2497 147.511 36.9638 147.511H55.3108C56.7531 147.511 58.1364 148.27 59.1562 149.621C60.1761 150.972 60.749 152.804 60.749 154.715V155.807H60.749Z" fill="#3F3D56"/>
<path d="M58.6615 171.635H29.4381C29.0375 171.635 28.6532 171.424 28.3699 171.049C28.0866 170.673 27.9275 170.164 27.9275 169.633C27.9275 169.103 28.0866 168.594 28.3699 168.218C28.6532 167.843 29.0375 167.632 29.4381 167.632H58.6615C59.0622 167.632 59.4464 167.843 59.7297 168.218C60.013 168.594 60.1721 169.103 60.1721 169.633C60.1721 170.164 60.013 170.673 59.7297 171.049C59.4464 171.424 59.0622 171.635 58.6615 171.635Z" fill="#3F3D56"/>
<path d="M96.2184 189.092L93.0435 187.08L97.4047 169.499L102.091 172.468L96.2184 189.092Z" fill="#9E616A"/>
<path d="M117.735 187.5L114.321 188.616L109.375 171.312L114.413 169.665L117.735 187.5Z" fill="#9E616A"/>
<path d="M104.65 112.675C105.103 113.65 105.825 114.351 106.663 114.629C107.501 114.908 108.387 114.741 109.134 114.165C109.284 114.045 109.426 113.908 109.559 113.757L119.597 121.388L119.161 113.555L109.696 107.509C109.181 106.823 108.509 106.384 107.785 106.259C107.061 106.134 106.326 106.331 105.696 106.818C105.333 107.107 105.017 107.489 104.767 107.942C104.518 108.395 104.339 108.909 104.241 109.455C104.144 110.001 104.13 110.567 104.2 111.12C104.27 111.673 104.423 112.202 104.65 112.675Z" fill="#9E616A"/>
<path d="M115.281 118.515L117.056 119.947L125.025 126.385C125.548 126.819 126.131 127.112 126.74 127.247C127.349 127.382 127.972 127.357 128.573 127.173C129.175 126.989 129.743 126.65 130.246 126.175C130.749 125.7 131.176 125.098 131.503 124.404C132.093 123.116 132.301 121.584 132.089 120.105L128.547 96.6626C128.416 95.7423 128.137 94.8703 127.728 94.1062C127.319 93.3422 126.791 92.704 126.179 92.2353C125.567 91.7666 124.886 91.4785 124.182 91.3907C123.478 91.3029 122.769 91.4174 122.101 91.7265C120.98 92.2486 120.051 93.3172 119.503 94.7148C118.955 96.1125 118.829 97.7342 119.152 99.25L122.855 115.886L117.179 112.38L115.281 118.515Z" fill="#E6E6E6"/>
<path d="M111.086 182.651L105.623 168.135L105.624 168.102L106.163 141.478C106.17 141.241 106.184 141.004 106.206 140.77C106.301 139.702 106.556 138.67 106.955 137.735C107.355 136.799 107.891 135.978 108.532 135.319C109.146 134.683 109.85 134.214 110.602 133.942C111.355 133.669 112.14 133.598 112.914 133.732L128.535 136.41L129.077 133.475L129.178 133.426L144.146 126.159L144.232 126.345C146.192 130.571 147.563 139.012 147.936 141.498L147.942 141.534C147.949 141.586 147.954 141.618 147.956 141.627C148.726 145.87 145.542 152.899 142.371 153.955C135.69 156.211 129.715 154.451 122.796 152.413C120.315 151.682 117.751 150.927 114.927 150.274L115.011 152.476C115.08 154.171 115.346 155.841 115.799 157.429C116.303 159.383 116.7 160.926 115.859 164.144L115.452 165.7C115.663 166.473 115.736 167.3 115.665 168.117C115.593 168.933 115.38 169.716 115.041 170.404L114.959 170.57L118.562 182.648L111.086 182.651Z" fill="#2F2E41"/>
<path d="M102.11 176.231L95.5952 175.429L97.9032 165.65C98.3795 159.265 99.5796 153.012 101.463 147.101L104.611 137.217C104.619 136.997 104.633 136.775 104.653 136.559C104.748 135.491 105.003 134.459 105.402 133.524C105.801 132.588 106.337 131.767 106.979 131.108C107.593 130.472 108.297 130.004 109.049 129.731C109.801 129.459 110.587 129.387 111.36 129.521L126.959 132.195L127.638 124.641L142.61 121.987L142.679 122.135C145.296 127.775 146.957 132.192 147.907 136.032C147.955 136.228 147.997 136.428 148.034 136.627C148.809 140.899 146.873 145.229 143.716 146.281C135.673 148.997 126.001 148.922 113.284 146.042L107.129 165.446C106.541 167.3 105.812 169.069 104.955 170.728L102.11 176.231Z" fill="#2F2E41"/>
<path d="M124.835 78.2728C129.002 78.2728 132.381 73.697 132.381 68.0524C132.381 62.4078 129.002 57.832 124.835 57.832C120.667 57.832 117.288 62.4078 117.288 68.0524C117.288 73.697 120.667 78.2728 124.835 78.2728Z" fill="#9E616A"/>
<path d="M127.013 132.552L125.931 127.413L125.664 124.878L124.108 124.947L121.054 115.607L119.867 113.144C119.625 112.807 119.406 112.482 119.21 112.171C117.974 110.32 116.982 108.205 116.278 105.917C115.785 104.272 115.495 102.533 115.42 100.767C115.199 95.5479 116.859 90.0266 120.497 83.8881C120.437 83.6708 120.397 83.4449 120.378 83.2151C120.313 82.4694 120.473 81.7198 120.823 81.1294C121.173 80.5391 121.685 80.1557 122.247 80.0627L125.755 79.5407C126.028 79.4998 126.305 79.5312 126.568 79.633C126.832 79.7348 127.077 79.905 127.291 80.1338C127.514 80.3705 127.699 80.6635 127.835 80.9959C127.972 81.3283 128.057 81.6933 128.086 82.0698C128.133 82.6521 128.047 83.2397 127.838 83.756C129.626 84.0568 131.311 85.0347 132.691 86.5723C134.07 88.11 135.085 90.1422 135.615 92.4251C137.714 97.6172 139.387 103.092 140.606 108.757C140.846 109.867 140.739 111.01 140.636 112.115C140.54 113.136 140.441 114.192 140.607 115.245C140.776 116.315 141.183 117.389 141.613 118.526C142.106 119.828 142.616 121.175 142.754 122.547L142.763 122.644L127.013 132.552Z" fill="#E4E4E4"/>
<path opacity="0.2" d="M116.371 105.866C117.073 108.141 118.058 110.244 119.287 112.085C119.497 112.418 119.72 112.745 119.952 113.072L121.146 115.554C125.547 111.184 129.112 93.9783 129.112 93.9783L124.147 92.6987L116.371 105.866Z" fill="black"/>
<path d="M113.366 79.2276C113.8 80.217 113.927 81.3921 113.717 82.5029C113.508 83.6137 112.98 84.5725 112.245 85.1753C112.094 85.2947 111.936 85.3974 111.773 85.4822L112.124 100.808L107.115 96.6299L107.549 82.717C107.336 81.7912 107.36 80.7979 107.618 79.8922C107.876 78.9865 108.352 78.2193 108.974 77.7104C109.336 77.4203 109.738 77.2292 110.157 77.1486C110.576 77.0679 111.002 77.0992 111.412 77.2406C111.821 77.382 112.205 77.6307 112.54 77.972C112.876 78.3133 113.157 78.7403 113.366 79.2276Z" fill="#9E616A"/>
<path d="M112.565 95.0229L107.056 96.0607L107.293 111.175C107.306 112.253 107.528 113.308 107.936 114.241C108.345 115.174 108.926 115.953 109.626 116.504C110.481 117.17 111.476 117.45 112.461 117.302C113.447 117.154 114.369 116.585 115.089 115.682L128.096 99.1085C129.011 97.9584 129.559 96.3875 129.626 94.7188C129.694 93.0502 129.276 91.4106 128.459 90.1374C128.055 89.5034 127.559 88.9835 127 88.6085C126.441 88.2336 125.831 88.0111 125.206 87.9544C124.581 87.8977 123.954 88.0079 123.362 88.2785C122.769 88.5491 122.224 88.9745 121.759 89.5296C121.63 89.6818 121.508 89.8431 121.392 90.0128L112.804 103.102L112.565 95.0229Z" fill="#E6E6E6"/>
<path d="M66.4877 193.606L70.3979 193.606L72.2582 173.624L66.4871 173.625L66.4877 193.606Z" fill="#FFB6B6"/>
<path d="M44.3235 78.5695C48.6338 78.5695 52.128 73.9404 52.128 68.2301C52.128 62.5199 48.6338 57.8907 44.3235 57.8907C40.0132 57.8907 36.519 62.5199 36.519 68.2301C36.519 73.9404 40.0132 78.5695 44.3235 78.5695Z" fill="#FFB6B6"/>
<path d="M71.6741 187.451H66.1369L64.7251 184.944L64.3431 182.582L64.0142 182.16C63.568 181.593 63.2796 180.843 63.1955 180.031C63.1115 179.219 63.2369 178.394 63.5513 177.688L59.5382 152.883C58.4872 152.76 46.6337 151.356 38.394 149.425C36.2853 148.93 34.6389 147.572 33.5006 145.388C30.7034 140.022 31.9016 131.339 31.914 131.252L31.9279 131.155L32.0018 131.144L51.2478 128.283L51.2738 128.299C51.9124 128.7 66.944 138.153 69.4005 141.408C70.5097 142.877 72.9844 151.608 73.5385 160.89C73.6377 162.553 73.2805 164.247 72.9351 165.884C72.612 167.417 72.2778 169.001 72.3438 170.499C72.4457 172.81 72.5422 175.235 72.6308 177.705C72.645 178.099 72.8688 178.506 73.0853 178.9C73.3115 179.311 73.5251 179.7 73.5386 180.107C73.6702 184.052 71.724 187.367 71.7044 187.4L71.6741 187.451Z" fill="#2F2E41"/>
<path d="M72.9349 95.7691C72.5156 95.6172 72.0763 95.589 71.648 95.6864C71.2196 95.7838 70.8125 96.0044 70.4555 96.3328C70.0984 96.6612 69.8001 97.0892 69.5814 97.5869C69.3628 98.0845 69.2291 98.6396 69.1899 99.2131L62.7053 101.898L62.9758 107.517L72.0932 103.555C72.8247 103.578 73.5373 103.245 74.096 102.619C74.6547 101.993 75.0205 101.117 75.1243 100.157C75.228 99.1974 75.0625 98.2207 74.6589 97.412C74.2554 96.6032 73.642 96.0187 72.9349 95.7691V95.7691Z" fill="#FFB6B6"/>
<path d="M68.704 105.067L63.8575 107.497L63.7336 107.815C63.4365 108.579 62.9226 109.155 62.3049 109.416C61.6872 109.678 61.0164 109.604 60.4399 109.21L49.5466 114.672C49.5466 114.672 44.6818 108.223 41.2183 102.467L42.3987 92.8485C42.6721 90.6167 43.2532 88.4707 44.1129 86.5176C51.216 88.581 55.2934 101.736 55.2934 101.736L68.095 98.4997L68.704 105.067Z" fill="#6C63FF"/>
<path d="M43.2144 78.0168C41.2606 78.7159 39.1065 77.7865 37.5817 76.0235C36.0569 74.2604 35.1031 71.7622 34.5535 69.1818C34.151 67.2919 33.9602 65.1941 34.5954 63.4198C35.2305 61.6456 36.94 60.4486 38.2588 61.3448C37.4453 60.089 37.8517 58.012 38.8019 56.9378C39.7521 55.8635 41.0569 55.5555 42.2996 55.3871C44.1031 55.1428 45.966 55.1155 47.6822 55.8895C49.3983 56.6636 50.9576 58.3558 51.4948 60.6498C52.0433 60.9881 52.6611 61.0759 53.2514 60.8994C53.8416 60.7228 54.371 60.2919 54.7566 59.6741C54.856 60.3836 54.7762 61.1168 54.5294 61.7602C54.2826 62.4035 53.8827 62.9212 53.3915 63.2331L56.021 62.1037C56.4732 63.3718 55.6808 64.9413 54.6675 65.3474C53.6542 65.7535 52.5604 65.3096 51.5988 64.7229C50.6372 64.1362 49.7054 63.3945 48.6609 63.1657C47.6165 62.9369 46.3896 63.3815 45.9065 64.6294C45.6534 65.283 45.6402 66.0486 45.4933 66.7569C45.3464 67.4652 44.9742 68.1996 44.4215 68.2576C44.0722 68.2942 43.7303 68.0477 43.3821 68.0981C42.9503 68.1606 42.6199 68.6787 42.5049 69.2336C42.4182 69.799 42.4171 70.3816 42.5018 70.9476L43.1697 77.7113" fill="#2F2E41"/>
<path d="M33.5454 146.624C33.5439 146.624 33.5424 146.624 33.541 146.623L33.4793 146.609L33.4614 146.53C33.2371 145.53 32.9515 144.507 32.6754 143.517C32.2687 142.146 31.9254 140.744 31.6472 139.318C31.4282 137.954 31.2764 136.574 31.1927 135.184C31.1157 134.176 31.036 133.132 30.9006 132.106C30.8405 131.65 31.0684 131.218 31.2888 130.8C31.4932 130.413 31.6862 130.048 31.6457 129.702C31.6043 129.348 31.3082 128.959 31.0218 128.584C30.7079 128.172 30.3833 127.746 30.3373 127.298C29.7117 121.182 29.4205 115.014 29.466 108.842C29.5307 100.304 29.822 94.4835 30.3318 91.5434C31.7026 83.6379 38.0356 82.1952 39.0269 82.0171C39.1325 81.6445 39.2948 81.3048 39.5038 81.0189C39.7128 80.733 39.964 80.5072 40.2416 80.3555C40.5193 80.2038 40.8176 80.1294 41.118 80.137C41.4183 80.1446 41.7142 80.234 41.9874 80.3997L46.4871 83.1286C47.3999 83.6841 48.2167 84.4823 48.8867 85.4737C49.5567 86.4651 50.0657 87.6284 50.382 88.8914L51.0505 91.5912L51.3853 109.714L49.5298 122.477L53.1553 129.681C33.8329 143.735 33.6076 146.624 33.5454 146.624Z" fill="#6C63FF"/>
<path d="M64.3835 191.593L65.6549 191.593L70.6185 188.918L73.2789 191.592H73.2792C74.7826 191.592 76.2245 192.384 77.2876 193.792C78.3506 195.2 78.9479 197.11 78.948 199.102V199.346L64.3838 199.347L64.3835 191.593Z" fill="#2F2E41"/>
<path d="M74.5585 108.702C74.1837 108.41 73.7652 108.231 73.3325 108.177C72.8998 108.123 72.4633 108.196 72.054 108.389C71.6447 108.583 71.2723 108.893 70.9632 109.298C70.6542 109.703 70.4158 110.192 70.265 110.732L63.4762 111.083L62.5615 115.272L72.2128 115.927C72.9144 116.202 73.6679 116.127 74.3305 115.716C74.9931 115.304 75.5188 114.585 75.808 113.695C76.0971 112.804 76.1296 111.804 75.8993 110.884C75.6691 109.964 75.192 109.187 74.5585 108.702Z" fill="#FFB6B6"/>
<path d="M68.9822 116.379L62.0087 116.263L61.126 116.248L46.9381 116.011C46.9381 116.011 43.0853 111.141 39.7305 106.128L40.2007 101.622C40.6594 97.1999 42.3151 93.1493 44.8599 90.2239C49.6648 94.4773 52.4513 102.897 52.4513 102.897L57.1234 105.666C60.4114 105.861 63.6154 107.104 66.4633 109.29L67.9998 110.469L68.9822 116.379Z" fill="#6C63FF"/>
<path d="M120.226 196.023L117.906 196.781L116.951 194.014L116.431 197.263L110.277 199.275C109.982 199.372 109.672 199.341 109.391 199.187C109.11 199.033 108.874 198.764 108.717 198.42C108.559 198.076 108.489 197.674 108.517 197.273C108.544 196.872 108.667 196.493 108.869 196.192L112.945 190.088L112.399 187.154L117.644 185.873L120.226 196.023Z" fill="#2F2E41"/>
<path d="M95.6454 196.971L93.4328 195.775L93.8905 192.794L92.0263 195.014L86.1577 191.841C85.8764 191.689 85.6392 191.421 85.4806 191.078C85.3221 190.735 85.2505 190.333 85.2764 189.932C85.3023 189.531 85.4243 189.151 85.6246 188.849C85.8249 188.546 86.0929 188.336 86.3897 188.249L92.3972 186.496L93.2593 183.698L98.0685 186.753L95.6454 196.971Z" fill="#2F2E41"/>
<path d="M87.9397 115.406H86.127C84.1779 115.403 82.3093 114.376 80.9311 112.55C79.5528 110.724 78.7776 108.248 78.7754 105.666V105.533H95.2914V105.666C95.2892 108.248 94.5139 110.724 93.1357 112.55C91.7575 114.376 89.8888 115.403 87.9397 115.406Z" fill="#E4E4E4"/>
<path d="M86.1272 102.064C86.1272 102.727 85.2208 103.265 85.2208 103.265C85.2208 103.265 84.3145 102.727 84.3145 102.064C84.3145 101.401 85.2208 100.863 85.2208 100.863C85.2208 100.863 86.1272 101.401 86.1272 102.064Z" fill="#3F3D56"/>
<path d="M91.5654 102.064C91.5654 102.727 90.6591 103.265 90.6591 103.265C90.6591 103.265 89.7527 102.727 89.7527 102.064C89.7527 101.401 90.6591 100.863 90.6591 100.863C90.6591 100.863 91.5654 101.401 91.5654 102.064Z" fill="#3F3D56"/>
<path d="M87.9399 104.465C87.9399 105.129 87.0336 105.666 87.0336 105.666C87.0336 105.666 86.1272 105.129 86.1272 104.465C86.1272 103.802 87.0336 103.265 87.0336 103.265C87.0336 103.265 87.9399 103.802 87.9399 104.465Z" fill="#3F3D56"/>
<path d="M81.5953 99.5291C82.0959 99.5291 82.5017 98.9915 82.5017 98.3283C82.5017 97.6652 82.0959 97.1276 81.5953 97.1276C81.0948 97.1276 80.689 97.6652 80.689 98.3283C80.689 98.9915 81.0948 99.5291 81.5953 99.5291Z" fill="#3F3D56"/>
<path d="M68.4136 95.7478L82.7085 98.3633C82.8378 98.3869 82.9621 98.445 83.074 98.5341C83.1859 98.6232 83.283 98.7414 83.3595 98.8816C83.4359 99.0218 83.4901 99.1811 83.5188 99.3498C83.5475 99.5186 83.55 99.6932 83.5263 99.8633C83.5026 100.033 83.4532 100.195 83.3809 100.339C83.3086 100.483 83.2151 100.607 83.1059 100.701C82.9967 100.796 82.8741 100.861 82.7456 100.891C82.6171 100.921 82.4853 100.917 82.3581 100.878L68.3006 96.5582C68.2226 96.5343 68.1545 96.4713 68.1105 96.3825C68.0666 96.2937 68.0502 96.1859 68.0647 96.0815C68.0793 95.9771 68.1237 95.8842 68.1886 95.822C68.2536 95.7598 68.3342 95.7332 68.4136 95.7478Z" fill="#E4E4E4"/>
<path d="M85.7843 36.0794V0H83.9716V36.0794C81.4948 36.3788 79.192 37.8938 77.5151 40.327C75.8381 42.7602 74.9083 45.936 74.908 49.2308V52.8331H81.2525C81.2525 54.1069 81.6345 55.3286 82.3144 56.2293C82.9943 57.1301 83.9164 57.6361 84.878 57.6361C85.8395 57.6361 86.7616 57.1301 87.4416 56.2293C88.1215 55.3286 88.5034 54.1069 88.5034 52.8331H94.848V49.2308C94.8477 45.936 93.9178 42.7602 92.2409 40.327C90.564 37.8938 88.2611 36.3788 85.7843 36.0794Z" fill="#F0F0F0"/>
<path d="M109.123 27.0595V0H107.764V27.0595C105.906 27.2841 104.179 28.4203 102.921 30.2453C101.664 32.0702 100.966 34.452 100.966 36.9231V39.6248H105.724C105.724 40.5802 106.011 41.4965 106.521 42.172C107.031 42.8476 107.722 43.2271 108.444 43.2271C109.165 43.2271 109.856 42.8476 110.366 42.172C110.876 41.4965 111.163 40.5802 111.163 39.6248H115.921V36.9231C115.921 34.452 115.223 32.0702 113.966 30.2453C112.708 28.4203 110.981 27.2841 109.123 27.0595Z" fill="#F0F0F0"/>
<path d="M63.2007 27.0595V0H61.8412V27.0595C59.9836 27.2841 58.2565 28.4203 56.9988 30.2453C55.7411 32.0702 55.0437 34.452 55.0435 36.9231V39.6248H59.8019C59.8019 40.5802 60.0883 41.4965 60.5983 42.172C61.1082 42.8476 61.7998 43.2271 62.521 43.2271C63.2421 43.2271 63.9337 42.8476 64.4437 42.172C64.9536 41.4965 65.2401 40.5802 65.2401 39.6248H69.9985V36.9231C69.9982 34.452 69.3008 32.0702 68.0432 30.2453C66.7855 28.4203 65.0583 27.2841 63.2007 27.0595Z" fill="#F0F0F0"/>
<path d="M145.028 63.6199C143.745 61.6382 143.135 59.0089 142.11 56.7585C141.085 54.5082 139.3 52.494 137.415 53.0177C136.115 53.3788 135.111 54.898 134.603 56.5917C134.094 58.2854 133.999 60.1533 133.91 61.9832C133.941 58.2227 132.071 54.5772 129.495 53.3773C126.919 52.1774 123.836 53.5159 122.218 56.5369C121.511 55.6696 120.589 55.1757 119.626 55.1489C118.663 55.1221 117.726 55.5643 116.993 56.3916C115.545 58.106 115.225 61.369 116.29 63.5557C117.355 65.7424 119.661 66.557 121.353 65.3442L121.951 66.0733C121.614 67.6336 122.267 69.4767 123.365 70.064C124.255 70.5404 125.512 70.4611 125.845 71.6986C126.078 72.5633 125.643 73.4863 125.18 74.1508C124.717 74.8153 124.168 75.5014 124.112 76.4209C124.028 77.8083 125.11 78.7802 126.094 79.0729C128.466 79.7787 131.098 78.3234 132.465 75.5501C132.492 75.4966 132.52 75.443 132.551 75.3894C133.318 74.0899 133.877 72.5967 134.194 71.0013C134.511 69.4059 134.579 67.7416 134.394 66.1102C134.317 65.4692 134.395 64.9924 134.728 64.8406C136.17 64.1845 140.21 65.5616 141.432 66.8062C142.655 68.0508 143.634 69.698 144.812 71.0229C145.989 72.3478 147.49 73.3698 148.985 73.009C150.183 72.7201 151.202 71.5683 151.887 70.1789C152.572 68.7896 152.966 67.1702 153.32 65.5608C150.671 67.5875 147.047 66.7391 145.028 63.6199Z" fill="#2F2E41"/>
</g>
<defs>
<clipPath id="clip0_36_494">
<rect width="180" height="200" fill="white"/>
</clipPath>
</defs>
</svg>
