<svg width="338" height="406" viewBox="0 0 338 406" fill="none" xmlns="http://www.w3.org/2000/svg">
<g clip-path="url(#clip0_11_269)">
<path d="M56.0618 141.336C55.271 141.446 54.4752 141.471 53.6816 141.413C53.5463 141.392 53.4106 141.446 53.3037 141.562C53.1969 141.678 53.1274 141.847 53.1102 142.033L51.5919 157.719C51.4751 158.858 51.1367 159.932 50.6125 160.827C50.1803 161.539 49.859 162.366 49.6686 163.257C49.4782 164.147 49.4227 165.082 49.5056 166.003V192.649C49.5056 192.649 49.4077 196.202 51.3895 196.202C53.7615 196.612 56.1614 196.612 58.5334 196.202C58.5334 196.202 60.1202 195.788 60.1202 192.509V166.273C60.2412 165.358 60.2163 164.417 60.0472 163.516C59.8781 162.615 59.5687 161.776 59.1407 161.056C58.634 160.158 58.3065 159.093 58.1906 157.967L56.6136 141.952C56.5956 141.772 56.5286 141.608 56.4261 141.494C56.3237 141.379 56.1934 141.323 56.0618 141.336V141.336Z" fill="white"/>
<path d="M54.9545 196.958C53.7557 196.959 52.5581 196.856 51.3685 196.651C51.1027 196.66 50.8385 196.593 50.5924 196.454C50.3464 196.315 50.1238 196.108 49.9387 195.845C49.1322 194.691 49.177 192.715 49.1794 192.632L49.1791 166.03C49.095 165.052 49.1565 164.061 49.3598 163.117C49.5632 162.172 49.9042 161.295 50.3619 160.539C50.8472 159.708 51.1605 158.712 51.2686 157.656L52.7866 141.974C52.8162 141.672 52.9298 141.398 53.1035 141.21C53.2772 141.022 53.4973 140.934 53.7171 140.966C54.488 141.022 55.261 140.996 56.0291 140.889L56.0382 140.888C56.2526 140.866 56.4648 140.958 56.6318 141.144C56.7988 141.331 56.9079 141.598 56.9371 141.891L58.5142 157.906C58.6226 158.954 58.9274 159.944 59.3985 160.78C59.8523 161.544 60.1809 162.434 60.3618 163.389C60.5427 164.344 60.5717 165.341 60.4467 166.313V192.509C60.4467 196.119 58.6127 196.639 58.5941 196.644C57.3869 196.853 56.1713 196.958 54.9545 196.958V196.958ZM53.6372 141.86C53.5887 141.856 53.541 141.878 53.5034 141.921C53.4659 141.963 53.4412 142.024 53.4341 142.09L51.9156 157.779C51.7907 158.999 51.4282 160.15 50.8666 161.109C50.4629 161.775 50.1626 162.548 49.9842 163.381C49.8059 164.213 49.7533 165.086 49.8297 165.948L49.8321 166.003V192.649C49.8315 192.682 49.7968 194.348 50.4106 195.223C50.5376 195.401 50.6904 195.541 50.8591 195.632C51.0278 195.723 51.2086 195.764 51.3896 195.752L51.4303 195.756C53.7752 196.161 56.1477 196.161 58.4927 195.756C58.5237 195.745 59.7937 195.346 59.7937 192.509L59.799 166.192C59.912 165.341 59.8891 164.466 59.7318 163.628C59.5745 162.791 59.2866 162.01 58.8881 161.341C58.3442 160.379 57.9923 159.237 57.8674 158.03L56.2901 142.013C56.2831 141.947 56.2587 141.887 56.2215 141.845C56.1842 141.803 56.1369 141.781 56.0888 141.784C55.2832 141.895 54.4726 141.921 53.6641 141.862C53.6552 141.86 53.6462 141.86 53.6372 141.86H53.6372Z" fill="#3F3D56"/>
<path d="M53.6652 166.48H56.0715C57.0284 166.48 57.9461 167.003 58.6227 167.935C59.2993 168.867 59.6794 170.131 59.6794 171.449V183.92C59.6794 185.238 59.2993 186.502 58.6227 187.434C57.9461 188.366 57.0284 188.889 56.0715 188.889H53.6652C52.7084 188.889 51.7907 188.366 51.1141 187.434C50.4375 186.502 50.0574 185.238 50.0574 183.92V171.449C50.0574 170.797 50.1507 170.15 50.332 169.547C50.5133 168.945 50.7791 168.397 51.1141 167.935C51.4491 167.474 51.8468 167.108 52.2846 166.858C52.7223 166.608 53.1914 166.48 53.6652 166.48V166.48Z" fill="#536DFE"/>
<path d="M9.42619 395.525H17.2713L21.0036 353.846L9.4248 353.846L9.42619 395.525Z" fill="#9F616A"/>
<path d="M7.42517 391.997L22.8751 391.997H22.8757C25.487 391.997 27.9912 393.426 29.8376 395.969C31.6841 398.512 32.7214 401.961 32.7216 405.558V405.999L7.42564 406L7.42517 391.997Z" fill="#2F2E41"/>
<path d="M4.49414 246.656C4.49414 246.656 1.09411 251.95 6.72403 272.586L5.73237 385.735L23.9772 385.245L27.9876 330.052L35.2894 249.509L4.49414 246.656Z" fill="#2F2E41"/>
<path d="M41.5469 262.3L41.3471 262.258C18.0069 257.355 0.393982 252.655 0.218796 252.608L0 252.549L6.11845 232.052C6.07012 229.91 4.74569 169.763 7.28108 152.482C9.73549 135.754 21.3048 133.012 22.6232 132.754L23.947 126.713L40.6713 138.7L43.5882 152.527L44.1807 190.424L41.5469 262.3Z" fill="#3F3D56"/>
<path d="M51.6197 184.299C50.8666 184.299 50.1215 184.513 49.4315 184.929C48.7415 185.345 48.1214 185.953 47.6102 186.714H19.4993L9.20239 189.733L10.893 207.693L47.5219 196.843C48.1284 197.786 48.8967 198.506 49.7568 198.935C50.6169 199.364 51.5413 199.489 52.4457 199.3C53.3501 199.11 54.2056 198.612 54.9341 197.85C55.6626 197.088 56.241 196.087 56.6163 194.938C56.9917 193.789 57.1521 192.528 57.0829 191.272C57.0138 190.016 56.7172 188.803 56.2203 187.745C55.7234 186.687 55.042 185.818 54.2384 185.216C53.4348 184.614 52.5345 184.299 51.6197 184.299H51.6197Z" fill="#9F616A"/>
<path d="M51.8635 119.924C55.4525 110.88 53.0396 99.5422 46.4742 94.5988C39.9088 89.6555 31.6771 92.9789 28.0881 102.022C24.4992 111.065 26.912 122.403 33.4774 127.347C40.0428 132.29 48.2746 128.967 51.8635 119.924Z" fill="#9F616A"/>
<path d="M27.2338 96.0544L26.577 94.2336L29.8819 91.972C29.8819 91.972 33.5276 83.8012 40.1248 86.0974C46.7219 88.3935 49.6901 89.7677 49.6901 89.7677L52.9866 92.0524L51.3321 94.3198L54.3002 95.694L52.3173 97.051L54.6244 98.8775L53.3824 108.241C53.3824 108.241 51.3196 101.139 47.3538 103.853C43.388 106.567 36.134 102.45 36.134 102.45L29.8319 119.25C29.8319 119.25 28.5318 113.361 26.2137 114.931C26.2137 114.931 20.2916 101.94 27.2338 96.0544Z" fill="#2F2E41"/>
<path d="M11.073 211.06L7.8583 197.889L7.08069 153.984L8.45041 147.755C8.94343 145.512 9.76001 143.431 10.8512 141.634C11.9424 139.837 13.2857 138.362 14.8007 137.297C16.3157 136.232 17.9711 135.6 19.6678 135.437C21.3645 135.275 23.0676 135.586 24.6749 136.352C26.2822 137.118 27.7607 138.323 29.0218 139.895C30.2829 141.467 31.3007 143.373 32.014 145.5C32.7274 147.626 33.1217 149.929 33.1734 152.271C33.2251 154.613 32.933 156.944 32.3147 159.127L24.973 185.04L25.3462 186.037L41.2519 185.86L46.9018 199.868L11.073 211.06Z" fill="#3F3D56"/>
<path d="M170.212 205.648C170.806 205.098 171.304 204.374 171.673 203.529C172.042 202.685 172.271 201.739 172.346 200.758C172.421 199.778 172.338 198.787 172.105 197.855C171.871 196.923 171.492 196.073 170.994 195.365L178.834 173.974L169.854 175.409L163.786 195.502C162.977 196.733 162.525 198.329 162.514 199.989C162.503 201.649 162.935 203.256 163.727 204.507C164.519 205.757 165.617 206.564 166.812 206.775C168.007 206.985 169.217 206.584 170.212 205.648V205.648Z" fill="#FFB7B7"/>
<path d="M233.089 357.169L226.023 357.168L222.662 319.629L233.09 319.63L233.089 357.169Z" fill="#FFB7B7"/>
<path d="M234.891 366.602L212.108 366.601V366.204C212.108 362.965 213.043 359.858 214.706 357.568C216.369 355.277 218.624 353.99 220.976 353.99H220.976L234.891 353.991L234.891 366.602Z" fill="#2F2E41"/>
<path d="M194.475 357.169L187.409 357.168L184.047 319.629L194.476 319.63L194.475 357.169Z" fill="#FFB7B7"/>
<path d="M194.548 366.602L171.765 366.601V366.204C171.765 362.965 172.699 359.858 174.362 357.568C176.025 355.277 178.281 353.99 180.633 353.99H180.633L194.548 353.991L194.548 366.602Z" fill="#2F2E41"/>
<path d="M193.896 198.623L186.98 220.568L181.275 346.708L195.683 345.915L199.618 285.783L211.758 232.226L218.736 291.934L221.618 344.327L233.54 345.038L238.291 198.623H193.896Z" fill="#2F2E41"/>
<path d="M228.467 90.3315L208.422 91.0222L196.654 99.3435L196.008 160.736L188.668 203.123C188.668 203.123 234.527 207.47 240.867 201.12L233.375 152.696L243.424 100.364L228.467 90.3315Z" fill="#536DFE"/>
<path d="M199.749 100.361L197.883 98.6254C197.883 98.6254 190.152 101.817 187.867 116.015C187.867 116.015 186.119 123.139 185.351 128.036C184.472 133.654 165.04 185.253 165.04 185.253L176.674 189.85L198.003 142.34L199.749 100.361Z" fill="#536DFE"/>
<path d="M243.109 213.521C242.649 212.766 242.315 211.881 242.129 210.929C241.944 209.977 241.913 208.98 242.037 208.01C242.162 207.039 242.439 206.118 242.85 205.311C243.262 204.504 243.796 203.831 244.416 203.339L241.163 179.8L249.507 184.59L251.318 206.209C251.848 207.699 251.964 209.405 251.642 211.005C251.32 212.604 250.583 213.985 249.572 214.887C248.56 215.788 247.343 216.147 246.152 215.895C244.961 215.643 243.878 214.798 243.109 213.521V213.521Z" fill="#FFB7B7"/>
<path d="M240.408 101.097L242.549 100.137C242.549 100.137 249.341 106.141 248.694 120.657C248.694 120.657 248.949 128.169 248.706 133.168C248.427 138.901 252.164 195.88 252.164 195.88H240.061L234.874 144.281L240.408 101.097Z" fill="#536DFE"/>
<path d="M233.387 64.5746C233.387 68.36 232.572 72.0603 231.045 75.2078C229.519 78.3552 227.348 80.8084 224.809 82.257C222.27 83.7056 219.476 84.0846 216.781 83.3461C214.086 82.6076 211.61 80.7848 209.666 78.1081C207.723 75.4314 206.4 72.0211 205.863 68.3085C205.327 64.5958 205.602 60.7475 206.654 57.2503C207.706 53.7531 209.487 50.7639 211.772 48.6609C214.057 46.5578 216.744 45.4353 219.492 45.4353V45.4353C223.168 45.4227 226.697 47.422 229.303 50.9934C231.909 54.5648 233.378 59.4158 233.387 64.4792C233.387 64.511 233.387 64.5428 233.387 64.5746Z" fill="#FFB7B7"/>
<path d="M205.643 38.8671C207.27 34.0459 210.421 34.9991 213.175 36.6333C216.664 35.5674 219.982 32.3763 223.741 34.2635C227.444 41.6812 239.875 39.4988 237.23 51.5748C237.227 54.4684 241.184 52.7841 240.493 57.5233C242.589 66.6437 232.927 83.9165 227.381 80.2791C228.753 76.8165 231.886 68.9515 227.134 68.1714C216.91 81.2741 226.079 43.221 213.233 54.2875C208.98 59.6489 203.157 44.2298 205.643 38.8671Z" fill="#2F2E41"/>
<path d="M245.542 215.429C246.204 215.613 246.887 215.594 247.543 215.374C248.199 215.155 248.812 214.739 249.339 214.158C249.866 213.577 250.294 212.844 250.592 212.01C250.891 211.176 251.054 210.262 251.069 209.333L285.959 164.1L278.108 155.475L246.222 202.763C245.086 202.833 244.009 203.473 243.193 204.564C242.378 205.654 241.881 207.119 241.797 208.68C241.714 210.242 242.049 211.791 242.739 213.035C243.429 214.279 244.426 215.131 245.542 215.429V215.429Z" fill="#9F616A"/>
<path d="M281.015 171.412L274.227 160.455C274.034 160.143 273.892 159.778 273.811 159.383C273.729 158.989 273.711 158.575 273.756 158.17C273.801 157.765 273.909 157.378 274.073 157.036C274.236 156.694 274.451 156.404 274.703 156.186L283.54 148.567C284.704 147.215 286.209 146.553 287.727 146.727C289.244 146.902 290.649 147.898 291.634 149.497C292.618 151.096 293.103 153.168 292.98 155.258C292.857 157.348 292.138 159.286 290.98 160.647L284.15 171.435C283.955 171.744 283.713 171.991 283.442 172.16C283.171 172.329 282.876 172.415 282.579 172.412C282.281 172.41 281.987 172.32 281.718 172.147C281.448 171.974 281.208 171.723 281.015 171.412V171.412Z" fill="#CBCBCB"/>
<path d="M262.762 394.61L254.231 394.61L250.173 349.289L262.763 349.29L262.762 394.61Z" fill="#9F616A"/>
<path d="M264.937 406L237.431 405.999V405.519C237.431 401.608 238.559 397.858 240.567 395.092C242.575 392.327 245.298 390.773 248.137 390.773H248.138L264.938 390.774L264.937 406Z" fill="#2F2E41"/>
<path d="M330.952 394.61L322.421 394.61L318.363 349.289L330.954 349.29L330.952 394.61Z" fill="#9F616A"/>
<path d="M333.127 406L305.621 405.999V405.519C305.621 401.608 306.749 397.858 308.757 395.092C310.765 392.327 313.488 390.773 316.327 390.773H316.328L333.128 390.774L333.127 406Z" fill="#2F2E41"/>
<path d="M308.006 195.436L316.605 151.677L305.449 143.04H289.879L283.823 151.965C283.823 151.965 273.704 161.661 276.153 172.405L280.104 196.875L274.062 235.74L243.617 293.893L236.411 351.015L264.78 361.258L295.456 278.059L310.33 370.183L338 368.266L328.465 256.566C328.465 256.566 325.747 222.538 311.5 201.292L308.006 195.436Z" fill="#2F2E41"/>
<path d="M325.764 234.153C326.244 233.498 326.613 232.707 326.847 231.835C327.08 230.962 327.172 230.03 327.115 229.103C327.059 228.177 326.856 227.278 326.52 226.472C326.184 225.665 325.724 224.969 325.172 224.434L318.501 162.437L308.924 166.602L318.51 226.312C317.919 227.649 317.704 229.238 317.906 230.778C318.109 232.319 318.715 233.704 319.609 234.67C320.503 235.637 321.623 236.118 322.758 236.022C323.892 235.927 324.962 235.262 325.764 234.153V234.153Z" fill="#9F616A"/>
<path d="M320.149 172.167L309.761 173.817C309.465 173.864 309.166 173.823 308.883 173.696C308.6 173.569 308.34 173.36 308.121 173.082C307.903 172.805 307.73 172.465 307.615 172.087C307.499 171.709 307.445 171.302 307.454 170.892L307.791 156.54C307.625 154.455 308.066 152.366 309.018 150.729C309.969 149.092 311.352 148.041 312.865 147.807C314.378 147.573 315.896 148.174 317.087 149.48C318.279 150.786 319.045 152.688 319.219 154.771L321.912 168.596C321.989 168.992 322.003 169.406 321.954 169.81C321.904 170.214 321.792 170.599 321.625 170.938C321.457 171.277 321.239 171.562 320.984 171.774C320.73 171.986 320.445 172.12 320.149 172.167V172.167Z" fill="#CBCBCB"/>
<path d="M280.251 130.596V112.159C280.251 105.606 282.141 99.3223 285.505 94.689C288.869 90.0557 293.431 87.4528 298.188 87.4528C302.945 87.4528 307.508 90.0557 310.872 94.689C314.235 99.3223 316.125 105.606 316.125 112.159V130.596C316.124 131.476 315.87 132.32 315.419 132.942C314.967 133.564 314.355 133.914 313.716 133.915H282.661C282.022 133.914 281.409 133.564 280.958 132.942C280.506 132.32 280.252 131.476 280.251 130.596V130.596Z" fill="#2F2E41"/>
<path d="M300.81 131.266C307.183 126.468 309.525 115.462 306.042 106.684C302.558 97.9058 294.567 94.6798 288.194 99.4782C281.822 104.277 279.479 115.283 282.963 124.061C286.447 132.838 294.437 136.064 300.81 131.266Z" fill="#9F616A"/>
<path d="M276.008 113.634C276.012 108.452 277.508 103.485 280.168 99.8209C282.828 96.157 286.435 94.0961 290.197 94.0902H292.874C296.636 94.0961 300.242 96.157 302.902 99.8209C305.562 103.485 307.059 108.452 307.063 113.634V114.003H301.405L299.475 106.56L299.09 114.003H296.166L295.192 110.247L294.997 114.003H276.008V113.634Z" fill="#2F2E41"/>
<path d="M293.208 135.988C292.943 135.493 292.784 134.904 292.751 134.29C292.717 133.676 292.81 133.061 293.019 132.517C295.857 125.084 299.829 111.351 294.556 102.881L294.177 102.272H309.484V133.926L295.579 137.305C295.438 137.339 295.296 137.356 295.153 137.357C294.773 137.357 294.399 137.233 294.061 136.995C293.723 136.757 293.431 136.412 293.208 135.988V135.988Z" fill="#2F2E41"/>
<path d="M152.52 152.843C152.326 153.118 152.148 153.414 151.987 153.727L127.047 152.887L124.138 145.564L115.54 150.167L119.776 163.821C120.119 164.924 120.711 165.844 121.466 166.443C122.22 167.043 123.095 167.289 123.96 167.145L152.137 162.457C152.802 163.616 153.707 164.469 154.732 164.902C155.757 165.335 156.854 165.328 157.876 164.882C158.898 164.436 159.798 163.572 160.454 162.404C161.111 161.237 161.495 159.822 161.553 158.347C161.612 156.872 161.343 155.408 160.783 154.148C160.223 152.889 159.397 151.894 158.417 151.297C157.436 150.7 156.347 150.528 155.293 150.804C154.24 151.08 153.273 151.791 152.52 152.843H152.52Z" fill="#FFB7B7"/>
<path d="M71.2194 361.465H79.4198L83.3209 317.898L71.218 317.899L71.2194 361.465Z" fill="#FFB7B7"/>
<path d="M69.1277 357.777L85.2773 357.776H85.2779C88.0074 357.777 90.625 359.27 92.5551 361.928C94.4851 364.587 95.5695 368.192 95.5697 371.952V372.412L69.1282 372.414L69.1277 357.777Z" fill="#2F2E41"/>
<path d="M145.682 361.214L153.223 356.776L144.385 314.601L133.256 321.15L145.682 361.214Z" fill="#FFB7B7"/>
<path d="M142.707 358.954L157.558 350.215L157.558 350.215C160.068 348.738 162.902 348.695 165.435 350.096C167.968 351.496 169.993 354.225 171.066 357.682L171.197 358.106L146.881 372.414L142.707 358.954Z" fill="#2F2E41"/>
<path d="M111.079 162.281L111.672 175.517L94.3388 178.072L76.2015 180.745L81.5397 160.647L111.079 162.281Z" fill="#FFB7B7"/>
<path d="M111.688 167.03C111.491 166.924 91.9134 156.434 79.8877 165.011L79.592 165.222L77.193 148.958L75.8259 113.989L84.7211 108.2L87.1702 100.644L103.852 99.2839L107.28 105.759L118.952 111.028L111.976 167.187L111.688 167.03Z" fill="#E4E4E4"/>
<path d="M112.301 135.467L114.364 113.135L119.063 111.166L119.142 111.206C119.25 111.261 121.804 112.607 122.503 117.476C123.174 122.15 128.226 151.233 128.277 151.526L128.328 151.817L116.456 158.36L112.301 135.467Z" fill="#E4E4E4"/>
<path d="M139.574 353.557L155.378 349.092L130.119 253.094L121.475 220.35C121.475 220.35 115.992 194.096 113.515 183.937L112.02 170.304L76.6317 175.7C76.6317 175.7 66.7479 195.693 69.7505 228.281L68.3925 350.766L84.1957 351.882L97.4325 228.35L120.665 296.07C120.665 296.07 127.987 324.968 133.226 331.232L139.574 353.557Z" fill="#2F2E41"/>
<path d="M90.8233 180.246C90.545 180.237 90.2666 180.258 89.9907 180.309L73.4814 154.548L75.4018 146.63L67.1054 141.076L62.7167 154.638C62.3621 155.733 62.2752 156.958 62.4688 158.127C62.6625 159.297 63.1264 160.348 63.7908 161.124L85.4449 186.396C85.2798 187.855 85.4412 189.349 85.9075 190.679C86.3739 192.009 87.1232 193.112 88.0558 193.841C88.9883 194.57 90.0599 194.891 91.128 194.761C92.1962 194.631 93.2102 194.056 94.0353 193.112C94.8603 192.169 95.4573 190.902 95.7468 189.48C96.0363 188.057 96.0046 186.548 95.6559 185.151C95.3072 183.754 94.6581 182.537 93.7948 181.661C92.9316 180.784 91.8951 180.291 90.8233 180.246V180.246Z" fill="#FFB7B7"/>
<path d="M65.6108 144.893L72.065 119.571C72.7904 116.586 73.6993 114.773 74.7666 114.181C74.9769 114.051 75.2045 113.982 75.435 113.979C75.6656 113.976 75.8941 114.039 76.106 114.164L79.0001 119.2L81.6861 134.742L74.7993 157.055L65.6108 144.893Z" fill="#E4E4E4"/>
<path d="M108.331 94.0439H79.9975C79.4147 94.043 78.8559 93.7237 78.4438 93.1561C78.0317 92.5884 77.7999 91.8188 77.7992 91.016V74.1942C77.7992 68.2159 79.5234 62.4825 82.5925 58.2552C85.6615 54.0279 89.8241 51.653 94.1644 51.653C98.5048 51.653 102.667 54.0279 105.736 58.2552C108.806 62.4825 110.53 68.2159 110.53 74.1942V91.016C110.529 91.8188 110.297 92.5884 109.885 93.1561C109.473 93.7237 108.914 94.043 108.331 94.0439V94.0439Z" fill="#2F2E41"/>
<path d="M97.5274 93.6523C104.154 93.6523 109.526 86.2532 109.526 77.1259C109.526 67.9986 104.154 60.5995 97.5274 60.5995C90.9008 60.5995 85.5289 67.9986 85.5289 77.1259C85.5289 86.2532 90.9008 93.6523 97.5274 93.6523Z" fill="#FFB7B7"/>
<path d="M114.401 75.8765H97.0759L96.8982 72.4503L96.0099 75.8765H93.3422L92.9901 69.086L91.2295 75.8765H86.0675V75.54C86.0714 70.8126 87.4365 66.2803 89.8634 62.9374C92.2903 59.5946 95.5808 57.7143 99.013 57.7089H101.456C104.888 57.7143 108.178 59.5946 110.605 62.9374C113.032 66.2802 114.397 70.8126 114.401 75.54L114.401 75.8765Z" fill="#2F2E41"/>
<path d="M96.9341 97.1841C96.8036 97.1839 96.6734 97.1681 96.545 97.1368L83.8585 94.0537V65.1741H97.8239L97.4782 65.7293C92.6677 73.4568 96.2918 85.9871 98.8802 92.7684C99.071 93.265 99.1561 93.8258 99.1257 94.3862C99.0952 94.9465 98.9505 95.4836 98.7082 95.9356C98.5052 96.3222 98.2386 96.6369 97.9302 96.8539C97.6218 97.0709 97.2804 97.1841 96.9341 97.1841V97.1841Z" fill="#2F2E41"/>
<path d="M248.903 166.602C248.113 166.711 247.317 166.737 246.523 166.678C246.388 166.658 246.252 166.711 246.145 166.828C246.038 166.944 245.969 167.113 245.952 167.299L244.433 182.985C244.317 184.124 243.978 185.197 243.454 186.092C243.022 186.805 242.701 187.632 242.51 188.522C242.32 189.413 242.264 190.348 242.347 191.269V217.915C242.347 217.915 242.249 221.467 244.231 221.467C246.603 221.878 249.003 221.878 251.375 221.467C251.375 221.467 252.962 221.054 252.962 217.775V191.539C253.083 190.623 253.058 189.683 252.889 188.782C252.72 187.881 252.41 187.042 251.982 186.322C251.476 185.424 251.148 184.359 251.032 183.232L249.455 167.218C249.437 167.038 249.37 166.874 249.268 166.759C249.165 166.645 249.035 166.589 248.903 166.602V166.602Z" fill="white"/>
<path d="M247.796 222.224C246.597 222.224 245.4 222.122 244.21 221.917C243.944 221.926 243.68 221.858 243.434 221.72C243.188 221.581 242.965 221.374 242.78 221.111C241.974 219.957 242.019 217.981 242.021 217.897L242.021 191.296C241.937 190.318 241.998 189.327 242.201 188.382C242.405 187.438 242.746 186.561 243.203 185.804C243.689 184.974 244.002 183.978 244.11 182.922L245.628 167.239C245.658 166.938 245.771 166.664 245.945 166.476C246.119 166.287 246.339 166.2 246.559 166.231C247.33 166.287 248.103 166.261 248.871 166.154L248.88 166.153C249.094 166.132 249.306 166.224 249.473 166.41C249.64 166.596 249.749 166.863 249.779 167.157L251.356 183.172C251.464 184.219 251.769 185.21 252.24 186.046C252.694 186.81 253.022 187.699 253.203 188.654C253.384 189.609 253.413 190.607 253.288 191.579V217.775C253.288 221.384 251.454 221.904 251.436 221.909C250.228 222.119 249.013 222.224 247.796 222.224V222.224ZM246.479 167.125C246.43 167.122 246.383 167.144 246.345 167.186C246.307 167.229 246.283 167.289 246.276 167.355L244.757 183.044C244.632 184.265 244.27 185.416 243.708 186.375C243.304 187.041 243.004 187.814 242.826 188.646C242.647 189.478 242.595 190.352 242.671 191.213L242.674 191.269V217.914C242.673 217.948 242.638 219.614 243.252 220.489C243.379 220.667 243.532 220.806 243.701 220.897C243.869 220.988 244.05 221.029 244.231 221.018L244.272 221.021C246.617 221.427 248.989 221.427 251.334 221.021C251.365 221.011 252.635 220.612 252.635 217.775L252.641 191.458C252.754 190.607 252.731 189.732 252.573 188.894C252.416 188.056 252.128 187.276 251.73 186.607C251.186 185.644 250.834 184.503 250.709 183.295L249.132 167.278C249.125 167.212 249.1 167.153 249.063 167.11C249.026 167.068 248.978 167.047 248.93 167.05C248.125 167.161 247.314 167.187 246.506 167.127C246.497 167.126 246.488 167.125 246.479 167.125V167.125Z" fill="#3F3D56"/>
<path d="M246.507 191.745H248.913C249.87 191.745 250.788 192.269 251.464 193.201C252.141 194.133 252.521 195.397 252.521 196.715V209.185C252.521 210.503 252.141 211.767 251.464 212.699C250.788 213.631 249.87 214.155 248.913 214.155H246.507C245.55 214.155 244.632 213.631 243.956 212.699C243.279 211.767 242.899 210.503 242.899 209.185V196.715C242.899 195.397 243.279 194.133 243.956 193.201C244.632 192.269 245.55 191.745 246.507 191.745V191.745Z" fill="#F51643"/>
<path d="M167.245 144.996C166.455 145.106 165.659 145.132 164.865 145.073C164.73 145.053 164.594 145.106 164.487 145.222C164.381 145.338 164.311 145.508 164.294 145.694L162.776 161.38C162.659 162.518 162.32 163.592 161.796 164.487C161.364 165.2 161.043 166.027 160.852 166.917C160.662 167.807 160.606 168.742 160.689 169.664V196.309C160.689 196.309 160.591 199.862 162.573 199.862C164.945 200.273 167.345 200.273 169.717 199.862C169.717 199.862 171.304 199.448 171.304 196.17V169.933C171.425 169.018 171.4 168.077 171.231 167.177C171.062 166.276 170.752 165.436 170.324 164.717C169.818 163.818 169.49 162.753 169.374 161.627L167.797 145.613C167.779 145.433 167.712 145.269 167.61 145.154C167.507 145.04 167.377 144.983 167.245 144.996V144.996Z" fill="white"/>
<path d="M166.138 200.619C164.939 200.619 163.742 200.516 162.552 200.312C162.286 200.32 162.022 200.253 161.776 200.114C161.53 199.976 161.308 199.768 161.122 199.506C160.316 198.352 160.361 196.376 160.363 196.292L160.363 169.691C160.279 168.713 160.34 167.721 160.544 166.777C160.747 165.833 161.088 164.956 161.546 164.199C162.031 163.368 162.344 162.373 162.452 161.317L163.97 145.634C164 145.332 164.114 145.058 164.287 144.87C164.461 144.682 164.681 144.594 164.901 144.626C165.672 144.682 166.445 144.656 167.213 144.549L167.222 144.548C167.436 144.527 167.649 144.618 167.816 144.805C167.982 144.991 168.092 145.258 168.121 145.551L169.698 161.567C169.806 162.614 170.111 163.605 170.582 164.441C171.036 165.204 171.365 166.094 171.546 167.049C171.726 168.004 171.755 169.001 171.63 169.973V196.17C171.63 199.779 169.796 200.299 169.778 200.304C168.571 200.514 167.355 200.619 166.138 200.619V200.619ZM164.821 145.52C164.772 145.517 164.725 145.539 164.687 145.581C164.65 145.624 164.625 145.684 164.618 145.75L163.099 161.439C162.974 162.659 162.612 163.81 162.05 164.77C161.647 165.436 161.346 166.209 161.168 167.041C160.99 167.873 160.937 168.747 161.013 169.608L161.016 169.663V196.309C161.015 196.342 160.981 198.009 161.594 198.884C161.721 199.062 161.874 199.201 162.043 199.292C162.212 199.383 162.392 199.424 162.573 199.412L162.614 199.416C164.959 199.821 167.331 199.821 169.676 199.416C169.707 199.405 170.977 199.006 170.977 196.17L170.983 169.853C171.096 169.002 171.073 168.127 170.916 167.289C170.758 166.451 170.47 165.671 170.072 165.002C169.528 164.039 169.176 162.898 169.051 161.69L167.474 145.673C167.467 145.607 167.442 145.547 167.405 145.505C167.368 145.463 167.321 145.442 167.273 145.445C166.467 145.556 165.656 145.582 164.848 145.522C164.839 145.521 164.83 145.52 164.821 145.52V145.52Z" fill="#3F3D56"/>
<path d="M164.849 170.14H167.255C168.212 170.14 169.13 170.664 169.806 171.596C170.483 172.528 170.863 173.792 170.863 175.11V187.58C170.863 188.898 170.483 190.162 169.806 191.094C169.13 192.026 168.212 192.55 167.255 192.55H164.849C163.892 192.55 162.975 192.026 162.298 191.094C161.621 190.162 161.241 188.898 161.241 187.58V175.11C161.241 173.792 161.621 172.528 162.298 171.596C162.975 170.664 163.892 170.14 164.849 170.14V170.14Z" fill="#536DFE"/>
<path d="M153.405 122.121C152.614 122.23 151.819 122.256 151.025 122.197C150.89 122.177 150.754 122.23 150.647 122.346C150.54 122.462 150.471 122.632 150.454 122.818L148.935 138.504C148.819 139.642 148.48 140.716 147.956 141.611C147.524 142.324 147.203 143.151 147.012 144.041C146.822 144.931 146.766 145.866 146.849 146.788V173.433C146.849 173.433 146.751 176.986 148.733 176.986C151.105 177.397 153.505 177.397 155.877 176.986C155.877 176.986 157.464 176.572 157.464 173.294V147.057C157.585 146.142 157.56 145.201 157.391 144.301C157.222 143.4 156.912 142.56 156.484 141.841C155.978 140.942 155.65 139.877 155.534 138.751L153.957 122.737C153.939 122.557 153.872 122.393 153.77 122.278C153.667 122.164 153.537 122.107 153.405 122.121V122.121Z" fill="white"/>
<path d="M152.298 177.743C151.099 177.743 149.902 177.64 148.712 177.436C148.446 177.444 148.182 177.377 147.936 177.238C147.69 177.1 147.467 176.892 147.282 176.63C146.476 175.476 146.521 173.5 146.523 173.416L146.523 146.815C146.438 145.837 146.5 144.845 146.703 143.901C146.907 142.957 147.248 142.08 147.705 141.323C148.191 140.492 148.504 139.497 148.612 138.441L150.13 122.758C150.16 122.456 150.273 122.183 150.447 121.994C150.621 121.806 150.841 121.718 151.061 121.75C151.832 121.806 152.605 121.78 153.373 121.673L153.382 121.672C153.596 121.651 153.808 121.742 153.975 121.929C154.142 122.115 154.251 122.382 154.281 122.676L155.858 138.691C155.966 139.738 156.271 140.729 156.742 141.565C157.196 142.328 157.524 143.218 157.705 144.173C157.886 145.128 157.915 146.126 157.79 147.097V173.294C157.79 176.903 155.956 177.423 155.938 177.428C154.73 177.638 153.515 177.743 152.298 177.743V177.743ZM150.981 122.644C150.932 122.641 150.884 122.663 150.847 122.705C150.809 122.748 150.785 122.808 150.778 122.874L149.259 138.563C149.134 139.783 148.772 140.934 148.21 141.894C147.806 142.56 147.506 143.333 147.328 144.165C147.149 144.997 147.097 145.871 147.173 146.732L147.176 146.787V173.433C147.175 173.466 147.14 175.133 147.754 176.008C147.881 176.186 148.034 176.325 148.203 176.416C148.371 176.507 148.552 176.548 148.733 176.536L148.774 176.54C151.119 176.945 153.491 176.945 155.836 176.54C155.867 176.529 157.137 176.13 157.137 173.294L157.143 146.977C157.256 146.126 157.233 145.251 157.075 144.413C156.918 143.575 156.63 142.795 156.232 142.126C155.688 141.163 155.336 140.022 155.211 138.814L153.634 122.797C153.627 122.731 153.602 122.671 153.565 122.629C153.528 122.587 153.48 122.566 153.432 122.569C152.627 122.68 151.816 122.706 151.008 122.646C150.999 122.645 150.99 122.644 150.981 122.644V122.644Z" fill="#3F3D56"/>
<path d="M151.009 147.264H153.415C154.372 147.264 155.29 147.788 155.966 148.72C156.643 149.652 157.023 150.916 157.023 152.234V164.704C157.023 166.022 156.643 167.286 155.966 168.218C155.29 169.15 154.372 169.674 153.415 169.674H151.009C150.052 169.674 149.134 169.15 148.458 168.218C147.781 167.286 147.401 166.022 147.401 164.704V152.234C147.401 150.916 147.781 149.652 148.458 148.72C149.134 147.788 150.052 147.264 151.009 147.264Z" fill="#F51643"/>
<path d="M25.9218 45.1167C32.2916 45.1167 37.4554 38.0042 37.4554 29.2305C37.4554 20.4568 32.2916 13.3444 25.9218 13.3444C19.5519 13.3444 14.3882 20.4568 14.3882 29.2305C14.3882 38.0042 19.5519 45.1167 25.9218 45.1167Z" fill="#F0F0F0"/>
<path d="M291.656 31.7723C298.025 31.7723 303.189 24.6598 303.189 15.8862C303.189 7.11248 298.025 0 291.656 0C285.286 0 280.122 7.11248 280.122 15.8862C280.122 24.6598 285.286 31.7723 291.656 31.7723Z" fill="#F0F0F0"/>
<path d="M159.711 71.8055C164.298 71.8055 168.016 66.6845 168.016 60.3674C168.016 54.0504 164.298 48.9294 159.711 48.9294C155.125 48.9294 151.407 54.0504 151.407 60.3674C151.407 66.6845 155.125 71.8055 159.711 71.8055Z" fill="#F0F0F0"/>
</g>
<defs>
<clipPath id="clip0_11_269">
<rect width="338" height="406" fill="white"/>
</clipPath>
</defs>
</svg>
