<svg width="338" height="406" viewBox="0 0 338 406" fill="none" xmlns="http://www.w3.org/2000/svg">
<path d="M69.2355 396.554L74.4538 396.553L76.9362 363.868L69.2345 363.869L69.2355 396.554Z" fill="#9E616A"/>
<path d="M67.9045 393.787L69.3733 393.787L75.1074 390L78.1808 393.786H78.1812C79.918 393.786 81.5837 394.907 82.8118 396.901C84.0399 398.896 84.7299 401.601 84.7301 404.421V404.767L67.9048 404.768L67.9045 393.787Z" fill="#2F2E41"/>
<path d="M93.4777 396.554L98.696 396.553L101.178 363.868L93.4767 363.869L93.4777 396.554Z" fill="#9E616A"/>
<path d="M92.1467 393.787L93.6155 393.787L99.3496 390L102.423 393.786H102.423C104.16 393.786 105.826 394.907 107.054 396.901C108.282 398.896 108.972 401.601 108.972 404.421V404.767L92.147 404.768L92.1467 393.787Z" fill="#2F2E41"/>
<path d="M97.6488 217.684L56.6509 219.421L57.3639 251.842C57.3639 251.842 56.6509 260.526 58.077 262.842C59.503 265.157 60.216 265.157 59.503 269.21C58.79 273.263 62.5571 279.882 62.0995 280.625C61.642 281.368 60.5725 285.421 60.5725 285.421L64.1375 318.421C64.1375 318.421 66.633 375.736 67.346 376.894C68.059 378.052 68.772 376.894 68.059 379.789C67.346 382.684 66.633 381.526 67.346 382.684C67.9776 383.79 68.5726 384.949 69.1285 386.157H77.7478C77.7478 386.157 78.3976 380.368 78.3976 379.789C78.3976 379.21 79.1106 375.736 79.1106 375.157C79.1106 374.578 78.4804 373.555 78.4804 373.555C78.2627 372.378 78.1155 371.17 78.0411 369.947C78.0411 368.789 75.9021 324.21 75.9021 324.21L80.1801 266.315L90.5187 323.052C90.5187 323.052 90.5187 372.842 91.2317 373.999C91.9447 375.157 91.9447 374.578 91.5882 376.894C91.2317 379.21 89.8057 378.631 90.8752 380.368C91.9448 382.105 92.3013 379.21 91.9448 382.105L91.5882 384.999L102.283 385.248C102.283 385.248 103.709 380.368 102.996 378.631C102.283 376.894 102.326 377.368 103.196 374.526C104.066 371.684 104.422 371.105 104.066 370.526C103.709 369.947 103.709 366.868 103.709 366.868L101.927 311.473C101.927 311.473 101.57 253 101.57 251.263C101.543 250.369 101.645 249.477 101.866 248.658V246.301L100.501 237.947L97.6488 217.684Z" fill="#2F2E41"/>
<path d="M144.046 91.4138C143.849 92.3032 143.534 93.1116 143.124 93.782C142.714 94.4525 142.218 94.9687 141.672 95.2944C141.125 95.6201 140.542 95.7473 139.962 95.667C139.382 95.5867 138.82 95.301 138.315 94.8298L120.519 119.042L119.552 107.207L136.958 85.5682C137.502 84.2442 138.325 83.2901 139.273 82.8866C140.221 82.483 141.227 82.6581 142.101 83.3787C142.974 84.0992 143.655 85.3152 144.013 86.7961C144.372 88.277 144.383 89.92 144.046 91.4138V91.4138Z" fill="#9E616A"/>
<path d="M65.5738 101.407C71.6774 101.407 76.6254 93.3713 76.6254 83.4592C76.6254 73.5471 71.6774 65.5118 65.5738 65.5118C59.4702 65.5118 54.5222 73.5471 54.5222 83.4592C54.5222 93.3713 59.4702 101.407 65.5738 101.407Z" fill="#9E616A"/>
<path d="M74.5334 65.5977C73.5045 61.6153 69.0951 59.2507 62.1178 59.6069C55.1406 59.963 53.9187 73.4752 53.9187 73.4752C50.0756 79.2922 56.2802 97.454 57.3566 94.95C58.4331 92.446 60.2404 94.8128 60.2404 94.8128L58.518 79.0803C60.3369 80.2166 62.293 80.9796 64.0038 79.6557L61.1693 77.1943C63.5185 77.669 65.8677 78.1438 68.217 78.6185L65.3105 74.9873C65.3809 74.9495 65.4514 74.9103 65.5219 74.8718C66.6875 75.6879 67.9358 76.1482 69.2041 76.2294C70.6859 76.2115 72.2607 75.0839 72.8816 72.8988C73.0467 72.2988 73.1361 71.6512 73.1446 70.9942C75.1877 72.0714 76.2605 75.9583 76.2605 75.9583C75.8726 72.4294 75.2947 68.9625 74.5334 65.5977V65.5977Z" fill="#2F2E41"/>
<path d="M74.4202 102.209C71.9522 102.209 70.3628 102.762 66.5226 103.812C59.4344 105.752 63.6794 116.69 63.6794 116.69C63.6794 116.69 64.0002 116.425 63.1315 116.69C62.2628 116.954 59.3012 121.114 59.3012 121.114L54.0048 128.753C46.0233 138.926 47.8101 154.797 47.8101 154.797L59.4492 173.819L54.3503 211.983C54.3503 211.983 56.5172 217.65 55.3967 220.191C54.2763 222.732 65.2688 222.002 65.2688 222.002C72.8554 227.493 99.5839 222.852 99.5839 222.852C99.2137 221.281 95.6351 209.105 95.6351 209.105C97.19 204.744 95.7091 198.444 95.7091 198.444C95.7091 198.444 94.1642 168.641 93.177 164.52C92.1898 160.4 95.7042 138.076 98.0143 138.316C100.324 138.557 115.246 126.196 115.246 126.196C115.246 126.196 114.871 125.226 119.797 121.956C122.626 120.151 125.221 117.493 127.443 114.124L129.467 107.559C128.494 108.169 125.212 98.1167 125.212 98.1167L123.78 99.0029L122.951 98.6137C122.951 98.6137 116.48 101.604 115.157 103.784C113.834 105.964 113.39 105.355 112.195 105.844C111.001 106.333 110.853 107.696 110.478 107.543C110.103 107.391 109.436 109.235 108.913 108.994C108.39 108.754 107.269 109.724 106.524 109.964C105.779 110.205 100.482 113.844 100.482 113.844C97.2047 111.151 88.3199 112.241 88.3199 112.241C88.3199 112.241 85.4126 109.459 84.5883 112.241C84.3665 113.031 84.0104 113.702 83.5618 114.175C83.1133 114.648 82.5909 114.903 82.0561 114.91L78.5121 112.449C78.3061 113.67 74.4404 100.944 74.4202 102.209Z" fill="#536DFE"/>
<path d="M57.4998 251.572C57.1127 250.866 56.8257 250.031 56.6588 249.126C56.492 248.22 56.4494 247.266 56.5341 246.331C56.6188 245.396 56.8287 244.503 57.1491 243.714C57.4695 242.925 57.8925 242.259 58.3883 241.764L53.3672 209.71L60.232 213.982L64.0472 244.251C64.5039 245.659 64.6267 247.29 64.3924 248.835C64.1581 250.38 63.5829 251.732 62.7759 252.634C61.9688 253.537 60.986 253.927 60.0136 253.731C59.0412 253.535 58.1467 252.767 57.4998 251.572V251.572Z" fill="#9E616A"/>
<path d="M48.2593 148.701L47.6392 161.502C47.6392 161.502 46.8684 175.564 47.0703 178.165C47.2721 180.765 47.6479 196.645 47.6479 196.645L54.1825 217.638L61.5865 214.432L61.1434 204.584L61.5865 213.63L62.5737 205.614L60.1057 191.987L61.5865 187.178L60.8398 171.033L48.2593 148.701Z" fill="#536DFE"/>
<path d="M223.557 118.786L226.002 119.636C226.018 117.976 226.145 116.323 226.382 114.708C226.604 116.686 227.072 118.57 227.758 120.245L241.778 125.107L255.237 102.04C255.258 90.5061 251.314 81.7411 244.243 81.7411C243.816 81.7411 243.375 81.7745 242.928 81.8412C239.107 80.8028 235.188 82.2123 231.994 85.7728C228.801 89.3334 226.583 94.7673 225.807 100.931C220.795 108.945 222.613 113.657 223.557 118.786Z" fill="#2F2E41"/>
<path d="M216.665 388.549H211.58L209.161 356.695H216.666L216.665 388.549Z" fill="#FFB6B6"/>
<path d="M218.94 404.23H215.331L214.687 398.697L213.038 404.23H203.467C203.008 404.23 202.561 403.992 202.192 403.55C201.822 403.109 201.549 402.487 201.413 401.776C201.276 401.065 201.283 400.301 201.433 399.597C201.583 398.893 201.867 398.285 202.245 397.861L209.887 389.289V383.696L217.926 384.475L218.94 404.23Z" fill="#2F2E41"/>
<path d="M276.242 379.56L271.819 383.635L260.035 357.869L266.563 351.855L276.242 379.56Z" fill="#FFB6B6"/>
<path d="M282.986 391.375L279.847 394.267L277.606 389.972L277.852 396.106L269.528 403.776C269.129 404.143 268.668 404.294 268.213 404.206C267.757 404.119 267.331 403.796 266.996 403.287C266.661 402.778 266.435 402.108 266.351 401.376C266.268 400.644 266.33 399.887 266.53 399.216L270.572 385.636L268.872 380.771L276.101 375.006L282.986 391.375Z" fill="#2F2E41"/>
<path d="M197.868 124.366C198.519 124.519 199.142 124.903 199.693 125.489C200.244 126.075 200.708 126.851 201.054 127.76C201.4 128.67 201.62 129.692 201.696 130.754C201.773 131.816 201.705 132.892 201.498 133.907L209.28 144.845L206.34 154.146L195.484 138.448C194.457 137.77 193.619 136.504 193.129 134.889C192.639 133.274 192.531 131.424 192.824 129.688C193.118 127.952 193.794 126.452 194.723 125.471C195.653 124.49 196.772 124.097 197.868 124.366V124.366Z" fill="#FFB6B6"/>
<path d="M204.594 158.409L199.39 144.962L205.177 135.354L209.287 143.476L214.378 147.165L221.365 154.078C222.755 151.423 233.461 131.449 238.238 137.2C238.812 137.835 239.294 138.664 239.651 139.63C240.009 140.597 240.233 141.677 240.309 142.798C240.647 148.145 237.696 153.584 237.584 153.785L231.273 167.609C231.077 168.478 228.989 177.43 225.731 179.838C225.268 180.198 224.764 180.398 224.251 180.425C223.739 180.452 223.228 180.306 222.752 179.996C214.117 174.53 208.3 168.364 205.704 161.98C205.245 160.869 204.872 159.669 204.594 158.409Z" fill="#2F2E41"/>
<path d="M223.853 186.475C223.853 186.475 208.9 225.153 211.609 229.552C214.318 233.951 218.534 235.107 218.534 235.107L227.863 215.475L223.853 186.475Z" fill="#2F2E41"/>
<path d="M237.073 133.649L230.026 141.391C226.751 144.99 224.287 150.224 223.009 156.302C221.731 162.379 221.708 168.968 222.944 175.068L224.928 184.861L237.073 133.649Z" fill="#2F2E41"/>
<path d="M249.535 239.23L250.477 244.559L253.692 308.824L269.754 357.435L262.087 366.327L240.185 320.088L231.522 274.174L217.917 375.813L207.696 374.627L214.795 233.707L228.265 194.042L249.535 239.23Z" fill="#2F2E41"/>
<path d="M238.272 135.596L228.464 148.614C226.311 151.471 224.761 155.347 224.029 159.703V159.703C223.697 161.68 223.539 163.725 223.561 165.774L223.853 194.041L214.86 233.072C214.86 233.072 239.241 248.029 242.491 234.831C245.742 221.634 238.272 135.596 238.272 135.596Z" fill="#536DFE"/>
<path d="M224.612 221.634L222.987 211.076L223.384 184.805C223.415 183.279 228.426 159.521 234.74 134.286L240.172 125.465L243.101 122.37L249.547 132.033C249.547 132.033 248.727 158.483 248.993 185.56C249.066 193.052 248.255 201.801 247.909 208.436L250.871 229.808V241.704L250.678 241.768C250.486 241.831 247.518 241.682 235.338 241.682C225.247 241.682 231.965 230.063 224.612 221.634Z" fill="#2F2E41"/>
<path opacity="0.2" d="M246.814 155.621L248.296 170.63L238.272 177.345L246.814 155.621Z" fill="black"/>
<path d="M236.717 119.555C242.137 119.555 246.531 112.419 246.531 103.617C246.531 94.8155 242.137 87.6802 236.717 87.6802C231.297 87.6802 226.904 94.8155 226.904 103.617C226.904 112.419 231.297 119.555 236.717 119.555Z" fill="#FFB6B6"/>
<path opacity="0.2" d="M253.161 184.481C250.549 189.392 247.006 192.755 243.09 194.041C239.173 195.326 235.104 194.462 231.522 191.584L229.386 189.867L253.161 184.481Z" fill="black"/>
<path d="M219.012 180.812C219.449 180.013 219.99 179.38 220.594 178.957C221.199 178.534 221.854 178.332 222.512 178.364C223.17 178.397 223.815 178.663 224.403 179.144C224.991 179.626 225.507 180.31 225.914 181.151L235.823 176.633L238.982 185.742L224.934 191.803C224.02 192.82 222.907 193.258 221.807 193.032C220.707 192.807 219.697 191.934 218.967 190.579C218.237 189.225 217.838 187.482 217.846 185.682C217.855 183.882 218.269 182.149 219.012 180.812V180.812Z" fill="#FFB6B6"/>
<path d="M240.211 190.457L230.433 190.1L228.685 176.963L235.123 175.869L239.825 171.002L247.228 165.344C246.629 161.998 242.266 136.482 247.853 133.178C248.496 132.751 249.187 132.554 249.881 132.602C250.574 132.65 251.253 132.941 251.871 133.456C254.804 135.945 255.973 142.941 256.015 143.204L259.641 159.374C259.979 160.118 263.428 167.882 262.87 173.624C262.8 174.45 262.625 175.242 262.356 175.952C262.088 176.662 261.731 177.274 261.309 177.748C253.742 186.436 247.368 190.922 242.657 190.921C241.833 190.931 241.011 190.775 240.211 190.457V190.457Z" fill="#2F2E41"/>
<path d="M224.949 93.133C225.735 94.7925 228.441 96.2603 231.656 97.4445C231.651 97.3362 231.651 97.2277 231.651 97.1193C231.667 95.4589 231.794 93.8062 232.031 92.1906C232.253 94.1691 232.721 96.0533 233.407 97.7281C233.458 97.8532 233.51 97.9783 233.566 98.1034C236.324 98.9874 239.241 99.6712 241.526 100.13C239.955 109.32 233.931 116.859 234.583 122.447L252.233 128.301C252.125 125.979 252.239 123.644 252.572 121.379C252.91 124.368 253.802 127.118 255.129 129.26L256.629 129.76L257.076 126.183C260.948 111.08 255.551 95.6182 246.707 87.6205C245.131 83.7822 242.683 81.1137 239.898 80.1982L237.695 79.4643C236.305 79.0026 234.873 78.99 233.481 79.427C232.088 79.8641 230.762 80.7423 229.579 82.0116C228.395 83.2808 227.377 84.9163 226.583 86.8245C225.788 88.7327 225.233 90.8763 224.949 93.133Z" fill="#2F2E41"/>
<path d="M8.43576 384.834L8.19799 376.152C5.71917 374 2.95437 372.863 0.143677 372.841C4.01203 377.977 3.5286 387.877 6.15123 394.784C6.97938 396.928 8.09399 398.742 9.41248 400.091C10.731 401.44 12.2195 402.291 13.7679 402.579L17.0051 405.797C17.4492 401.776 17.3513 397.646 16.718 393.692C16.0847 389.738 14.9311 386.054 13.3366 382.893C12.4313 381.135 11.3932 379.568 10.2468 378.231C9.47153 381.551 8.43576 384.834 8.43576 384.834Z" fill="#F2F2F2"/>
<path d="M183.314 54.5513C184.535 63.2644 185.116 73.1425 181.858 80.9396C180.474 84.2846 178.442 86.7843 176.084 88.0431C173.698 89.1922 171.181 89.4433 168.726 88.7771C163.171 87.5271 158.233 82.8276 152.769 81.003C150.358 80.1978 147.799 79.9317 145.478 81.4813C143.739 82.6424 141.907 84.9767 141.898 88.3066C141.89 91.726 143.719 93.9956 145.537 95.0469C147.964 96.4497 150.486 95.9068 153.004 95.73C155.715 95.5395 158.479 95.9376 160.731 98.6339C162.668 101.089 164.154 104.36 165.026 108.091C166.158 112.552 166.618 117.349 167.342 122.004C167.989 126.19 168.904 130.253 170.073 134.129C172.365 141.725 175.579 148.491 179.522 154.02C181.466 156.738 183.829 159.506 186.484 159.755C188.533 159.947 191.022 158.549 191.812 155.18C192.105 153.726 192.077 152.151 191.731 150.727C191.385 149.303 190.744 148.12 189.918 147.382C188.163 145.943 186.251 147.995 185.684 150.812C185.536 151.461 185.484 152.158 185.533 152.846C185.582 153.534 185.73 154.194 185.966 154.771C186.498 156.06 185.216 157.265 184.687 155.984C183.46 153.012 184.101 149.014 185.605 146.633C186.338 145.419 187.319 144.68 188.363 144.553C189.408 144.427 190.445 144.922 191.281 145.946C192.149 147.02 192.806 148.483 193.17 150.155C193.535 151.826 193.59 153.634 193.331 155.357C192.699 159.057 190.46 161.411 188.224 161.994C185.463 162.714 182.805 160.952 180.577 158.406C178.34 155.784 176.307 152.734 174.52 149.321C170.889 142.539 168.159 134.612 166.501 126.036C164.871 117.554 164.753 106.35 159.91 100.621C157.418 97.6739 154.364 98.0008 151.442 98.2714C148.863 98.5102 146.347 98.4668 143.98 96.5705C142.026 95.0047 140.45 92.1146 140.417 88.4324C140.384 84.7153 142.01 81.7264 143.924 80.0329C148.983 75.5591 155.057 79.1672 160.027 82.1561C165.024 85.1618 170.73 88.6896 176.041 85.5266C178.492 83.9797 180.465 80.9176 181.528 77.0114C182.814 72.5824 182.997 67.557 182.7 62.7504C182.525 60.2056 182.253 57.6809 181.886 55.1906C181.675 53.6839 183.102 53.0406 183.314 54.5514V54.5513Z" fill="#3F3D56"/>
<path d="M174.237 30.1092C175.702 38.0488 177.909 45.5756 180.783 52.4254C181.493 54.1088 182.24 55.7494 183.024 57.3472C183.632 55.5506 184.37 53.8771 185.22 52.3613C188.206 47.0307 192.209 43.5438 196.094 40.0489C199.979 36.5539 203.923 32.8025 206.667 27.1353C207.899 24.5842 208.78 21.6353 209.253 18.4861C209.875 14.2136 209.638 9.75681 208.103 6.18974C205.872 1.00345 201.425 -0.824175 197.644 0.674798C193.858 2.17377 190.689 6.44624 188.231 11.352C189.036 5.32401 185.121 -0.495525 181.335 0.0335238C177.549 0.570589 174.514 5.94123 173.507 11.889C172.495 17.8288 173.151 24.1934 174.237 30.1092Z" fill="#F50057"/>
<g opacity="0.2">
<path d="M180.783 52.4254C181.493 54.1087 182.24 55.7493 183.024 57.3472C183.632 55.5506 184.37 53.877 185.22 52.3613C188.206 47.0307 192.209 43.5438 196.094 40.0488C199.979 36.5539 203.923 32.8025 206.667 27.1352C207.899 24.5841 208.78 21.6353 209.254 18.4861C200.521 20.4521 192.497 27.3651 186.597 38.0048C184.235 42.3242 182.276 47.1828 180.783 52.4254V52.4254Z" fill="black"/>
</g>
</svg>
